<svg width="131" height="124" viewBox="0 0 131 124" fill="none" xmlns="http://www.w3.org/2000/svg">
<path d="M8 114.54L4.18541 113.336C3.7549 114.701 4.08579 116.191 5.05319 117.245C6.02059 118.299 7.4772 118.756 8.8733 118.443L8 114.54ZM42.881 4V0C41.1356 0 39.5917 1.13177 39.0664 2.7963L42.881 4ZM126.375 88.057L127.248 91.9605C129.076 91.5517 130.375 89.9297 130.375 88.057L126.375 88.057ZM126.375 4L130.375 4C130.375 1.79086 128.584 0 126.375 0V4ZM11.8146 115.744L46.6956 5.2037L39.0664 2.7963L4.18541 113.336L11.8146 115.744ZM125.502 84.1535L7.1267 110.636L8.8733 118.443L127.248 91.9605L125.502 84.1535ZM130.375 88.057L130.375 4L122.375 4L122.375 88.057L130.375 88.057ZM42.881 8H126.375V0H42.881V8Z" fill="black"/>
<path d="M55.5 83.7668C79.9572 83.691 109.129 54.8068 97.7294 29.6782C96.5423 27.1394 95.3919 25.0003 95.0342 24.81C94.5825 24.6485 93.8522 25.1714 93.0363 26.1142C91.0342 28.7207 85.2157 33.9063 81.8999 35.8273C80.3375 36.9042 76.3876 38.7109 73.2961 40.0498C65.5004 43.332 61.7312 46.0935 59.6491 50.0341C58.2422 52.6555 55.777 63.2099 56.5809 63.5718C57.5602 64.1712 67.3523 63.4714 69.9198 62.6864C74.0372 61.4276 77.6932 58.0159 78.8984 54.1466C79.7914 51.4683 79.2958 45.6196 78.1753 44.5584C77.8828 44.2455 76.6768 44.2205 75.5157 44.37C73.6941 44.6274 73.5428 44.7763 74.0393 45.4206C74.2769 45.8615 74.6807 47.5184 74.7915 49.1965C75.159 54.9902 70.2271 58.7921 64.9221 56.8104C60.6376 55.2271 59.5325 50.9685 62.372 47.4897C63.7956 45.9588 64.4142 45.6584 73.8807 43.2778C82.2854 41.0078 84.1823 40.3252 85.6975 39.0659C87.7708 37.3364 88.0346 37.5553 86.5829 39.694C85.9548 40.5793 85.5494 42.5008 85.5901 44.594C85.7406 49.6495 84.542 54.912 82.3892 58.6773C79.0479 64.4066 74.0165 67.9392 62.8554 72.644C54.6997 76.0362 49.6957 78.6788 40.8688 84.4675C31.46 90.648 26.4053 94.3846 24.8357 96.4737L23.5191 98.0746L24.0915 95.9994C24.7338 93.2009 27.8335 88.9492 33.0538 83.7668C38.8275 78.0984 41.0215 73.824 42.5297 64.3668C45.2567 48.4255 50.1849 39.7116 60.3583 33.4C63.1285 31.6543 65.3018 30.8957 74.1318 28.393C93.2921 23.0315 100.188 20.7264 103.548 18.3041C105.298 17.1698 106.749 16.3154 106.808 16.5111C106.863 16.6911 106.509 17.4927 106.092 18.4248C105.35 19.9443 105.379 20.0382 107.41 23.7141C110.75 29.4036 113.168 36.3596 113.898 42.3333C114.256 45.1257 114.61 47.6281 114.738 47.6831C115.268 47.8207 115.209 38.907 114.774 36.1385C114.753 35.7027 114.731 35.275 114.707 34.8553C114.768 33.915 115.308 34.8207 116.453 38.5651C119.928 49.289 110 65 106.092 69.5C102.185 74 97.6798 79.6883 89.3166 82.5C80.9534 85.3117 55.5 83.7668 55.5 83.7668Z" fill="black"/>
</svg>
