<svg width="131" height="122" viewBox="0 0 131 122" fill="none" xmlns="http://www.w3.org/2000/svg">
<path d="M8 114.54L4.18541 113.336C3.7549 114.701 4.08579 116.191 5.05319 117.245C6.02059 118.299 7.4772 118.756 8.8733 118.443L8 114.54ZM42.881 4V0C41.1356 0 39.5917 1.13177 39.0664 2.7963L42.881 4ZM126.375 88.057L127.248 91.9605C129.076 91.5517 130.375 89.9297 130.375 88.057L126.375 88.057ZM126.375 4L130.375 4C130.375 1.79086 128.584 0 126.375 0V4ZM11.8146 115.744L46.6956 5.2037L39.0664 2.7963L4.18541 113.336L11.8146 115.744ZM125.502 84.1535L7.1267 110.636L8.8733 118.443L127.248 91.9605L125.502 84.1535ZM130.375 88.057L130.375 4L122.375 4L122.375 88.057L130.375 88.057ZM42.881 8H126.375V0H42.881V8Z" fill="black"/>
<path fill-rule="evenodd" clip-rule="evenodd" d="M55.2683 17.2499C53.5607 26.4285 51.9793 34.1519 50.5948 40.9141C47.2088 57.4514 45 68.2394 45 80.5C66.3024 80.5 85.1944 78.1034 112.255 66.7401C95.8977 83.9237 80.3933 85.4437 63.387 87.1109C53.7207 88.0586 43.5692 89.0538 32.5 93C35.9293 82.3691 37.8298 71.7383 39.6337 61.6479C42.7254 44.3535 45.5333 28.647 55.2683 17.2499Z" fill="black"/>
<path fill-rule="evenodd" clip-rule="evenodd" d="M103.5 22.1996C103.5 22.1996 76.4848 15.6996 61.5 27.1996C45.0188 39.8479 44.9911 57.7849 44.9708 70.9196C44.9646 74.9194 44.9591 78.4739 44.4899 81.2981C47.6751 80.9589 51.175 80.8943 54.8608 80.8263C68.5442 80.5737 84.7891 80.2739 97 65.6996C107 45.1996 103.5 22.1996 103.5 22.1996ZM93.6262 32.2307C93.6262 32.2307 81.9242 28.0825 72.9248 31.9103C48.0596 42.4866 49.4764 56.8013 50.7108 69.2734C50.8664 70.8449 51.019 72.3872 51.1158 73.8891C70.53 76.3935 90.7569 74.5025 93.4379 48.5372C95.4562 36.6669 93.6262 32.2307 93.6262 32.2307Z" fill="black"/>
<path fill-rule="evenodd" clip-rule="evenodd" d="M56.0154 69.1618C61.8156 75.002 71.1078 75.4059 80.6419 66.4109C80.6419 66.4109 90.5811 57.0337 87.4026 39.5494C69.5767 35.8842 59.6374 45.2615 59.6374 45.2615C50.1034 54.2564 50.2152 63.3215 56.0154 69.1618ZM58.2052 67.0958C61.8304 70.7459 67.9715 70.6836 74.6232 64.4081C74.6232 64.4081 81.5576 57.8658 80.1032 46.436C68.4298 44.6474 61.4954 51.1897 61.4954 51.1897C54.8438 57.4652 54.5801 63.4456 58.2052 67.0958Z" fill="black"/>
<path d="M72.0572 76.2834C66.3791 81.6404 56.7877 80.9604 50.6343 74.7645C44.4809 68.5686 44.0956 59.2031 49.7737 53.846C55.4518 48.489 65.0432 49.169 71.1966 55.3649C77.35 61.5608 77.7353 70.9264 72.0572 76.2834Z" fill="black"/>
</svg>
