<?xml version="1.0" encoding="UTF-8"?>
<svg xmlns="http://www.w3.org/2000/svg" xmlns:xlink="http://www.w3.org/1999/xlink" width="24px" height="24px" viewBox="0 0 24 24" version="1.1">
<g id="surface1">
<path style=" stroke:none;fill-rule:nonzero;fill:rgb(0%,0%,0%);fill-opacity:1;" d="M 12.164062 0.722656 C 12.023438 0.78125 11.855469 0.96875 11.808594 1.105469 C 11.738281 1.304688 11.785156 1.566406 11.910156 1.722656 L 12.015625 1.855469 L 11.648438 2.777344 C 11.238281 3.792969 11.0625 4.289062 10.992188 4.644531 L 10.945312 4.875 L 10.800781 4.90625 C 10.722656 4.921875 10.648438 4.925781 10.636719 4.914062 C 10.625 4.898438 10.613281 4.449219 10.613281 3.921875 C 10.613281 2.9375 10.671875 2.023438 10.742188 2.023438 C 10.820312 2.023438 11.011719 1.839844 11.070312 1.707031 C 11.257812 1.296875 11.039062 0.863281 10.589844 0.769531 C 10.421875 0.734375 10.394531 0.738281 10.222656 0.816406 C 9.6875 1.058594 9.703125 1.746094 10.246094 1.996094 L 10.382812 2.058594 L 10.355469 2.234375 C 10.234375 3.046875 10.226562 4.351562 10.34375 4.910156 C 10.363281 5.003906 10.355469 5.015625 10.246094 5.046875 L 10.128906 5.085938 L 10 4.898438 C 9.605469 4.300781 9.199219 3.351562 9.042969 2.65625 C 9 2.46875 9.003906 2.460938 9.070312 2.410156 C 9.191406 2.324219 9.28125 2.117188 9.28125 1.914062 C 9.28125 1.671875 9.148438 1.457031 8.929688 1.351562 C 8.382812 1.085938 7.820312 1.597656 8.046875 2.152344 C 8.144531 2.375 8.300781 2.5 8.542969 2.542969 C 8.644531 2.566406 8.675781 2.585938 8.691406 2.660156 C 8.875 3.457031 9.1875 4.203125 9.632812 4.90625 C 9.734375 5.070312 9.816406 5.210938 9.8125 5.214844 C 9.804688 5.21875 9.746094 5.25 9.675781 5.292969 L 9.550781 5.367188 L 9.21875 5.121094 C 9.039062 4.988281 8.773438 4.773438 8.625 4.644531 C 8.363281 4.410156 7.78125 3.742188 7.628906 3.5 L 7.550781 3.371094 L 7.613281 3.230469 C 7.75 2.925781 7.648438 2.585938 7.359375 2.394531 C 7.214844 2.296875 7.140625 2.28125 6.933594 2.292969 C 6.71875 2.308594 6.484375 2.519531 6.410156 2.769531 C 6.285156 3.164062 6.65625 3.601562 7.078125 3.570312 L 7.242188 3.558594 L 7.550781 3.964844 C 7.910156 4.449219 8.441406 4.972656 8.886719 5.285156 C 9.066406 5.410156 9.210938 5.519531 9.210938 5.535156 C 9.210938 5.546875 9.179688 5.570312 9.136719 5.589844 C 9.015625 5.644531 8.585938 6 8.253906 6.3125 C 7.148438 7.363281 6.285156 8.914062 6.007812 10.355469 C 5.660156 12.144531 6.035156 13.757812 7.132812 15.203125 C 8.355469 16.804688 10.75 18.257812 13.449219 19.019531 L 13.785156 19.113281 L 14.105469 19.421875 C 14.28125 19.585938 14.601562 19.847656 14.8125 19.992188 C 15.386719 20.390625 15.636719 20.601562 16.121094 21.113281 C 17.070312 22.125 16.925781 22.003906 17.1875 22.027344 C 17.347656 22.039062 17.414062 22.035156 17.414062 22.003906 C 17.414062 21.984375 17.324219 21.871094 17.21875 21.757812 C 17.113281 21.636719 16.878906 21.371094 16.703125 21.160156 C 16.359375 20.75 16.074219 20.46875 15.707031 20.171875 C 15.316406 19.867188 14.816406 19.542969 14.460938 19.371094 C 14.273438 19.28125 14.074219 19.171875 14.019531 19.128906 C 13.964844 19.078125 13.730469 18.902344 13.5 18.730469 C 12.320312 17.847656 11.628906 17.21875 11.03125 16.476562 C 10.226562 15.484375 9.652344 14.242188 9.445312 13.046875 C 9.382812 12.695312 9.378906 12.554688 9.390625 12.011719 C 9.40625 11.628906 9.433594 11.296875 9.464844 11.152344 C 9.589844 10.597656 9.808594 10.109375 10.082031 9.769531 L 10.210938 9.609375 L 9.886719 9.285156 C 9.605469 9.003906 9.539062 8.914062 9.40625 8.640625 C 9.199219 8.21875 9.144531 7.996094 9.148438 7.574219 C 9.152344 7.277344 9.15625 7.257812 9.183594 7.40625 C 9.210938 7.574219 9.378906 8.078125 9.402344 8.058594 C 9.410156 8.050781 9.386719 7.910156 9.359375 7.746094 C 9.296875 7.394531 9.3125 6.964844 9.402344 6.585938 C 9.457031 6.34375 9.457031 6.339844 9.382812 6.261719 C 9.347656 6.222656 9.3125 6.179688 9.3125 6.167969 C 9.3125 6.160156 9.410156 6.179688 9.527344 6.214844 C 9.757812 6.292969 10.1875 6.308594 11.355469 6.277344 C 11.894531 6.261719 12.03125 6.269531 12.214844 6.320312 C 12.542969 6.410156 12.816406 6.554688 13.054688 6.769531 C 13.320312 7.007812 13.503906 7.273438 13.753906 7.761719 C 14.011719 8.269531 14.195312 8.46875 14.617188 8.6875 C 14.992188 8.882812 15.246094 9.070312 15.332031 9.210938 L 15.386719 9.308594 L 15.242188 9.226562 C 15.050781 9.121094 14.824219 9.042969 14.121094 8.84375 C 13.550781 8.679688 13.117188 8.597656 12.605469 8.554688 C 12.253906 8.523438 11.882812 8.425781 11.671875 8.3125 C 11.355469 8.140625 11.109375 7.804688 10.984375 7.378906 C 10.949219 7.265625 10.898438 7.164062 10.847656 7.125 C 10.730469 7.03125 10.746094 7.015625 10.890625 7.078125 C 10.996094 7.121094 11.117188 7.125 11.625 7.105469 C 12.199219 7.082031 12.238281 7.085938 12.34375 7.152344 C 12.566406 7.292969 12.578125 7.554688 12.359375 7.71875 C 12.097656 7.921875 11.757812 7.792969 11.675781 7.457031 C 11.652344 7.363281 11.644531 7.261719 11.65625 7.234375 C 11.671875 7.1875 11.660156 7.179688 11.554688 7.199219 C 11.394531 7.226562 11.390625 7.230469 11.398438 7.402344 C 11.421875 7.828125 11.746094 8.132812 12.1875 8.132812 C 12.339844 8.132812 12.902344 7.996094 12.949219 7.949219 C 12.984375 7.917969 12.667969 7.371094 12.539062 7.242188 C 12.359375 7.058594 12.097656 6.96875 11.601562 6.917969 C 11.40625 6.898438 11.152344 6.859375 11.046875 6.832031 C 10.828125 6.777344 10.410156 6.585938 10.253906 6.476562 C 10.195312 6.433594 10.140625 6.414062 10.121094 6.433594 C 10.066406 6.488281 10.015625 6.996094 10.035156 7.277344 C 10.109375 8.292969 10.714844 9.136719 11.515625 9.332031 C 11.835938 9.410156 12.300781 9.382812 12.6875 9.265625 C 13.4375 9.039062 13.613281 9.003906 13.996094 9.015625 C 14.21875 9.023438 14.402344 9.050781 14.472656 9.082031 C 14.585938 9.128906 14.566406 9.132812 14.152344 9.121094 L 13.71875 9.113281 L 13.921875 9.160156 C 14.890625 9.382812 15.902344 9.878906 16.460938 10.414062 C 16.640625 10.585938 16.664062 10.550781 16.601562 10.21875 C 16.519531 9.75 16.199219 9.253906 15.671875 8.789062 C 14.863281 8.070312 14.78125 7.964844 14.542969 7.273438 C 14.367188 6.753906 14.246094 6.496094 14.050781 6.210938 C 13.851562 5.914062 13.375 5.457031 13.089844 5.289062 C 12.621094 5.011719 12.070312 4.859375 11.554688 4.859375 L 11.273438 4.859375 L 11.292969 4.746094 C 11.328125 4.546875 11.542969 3.933594 11.835938 3.222656 C 11.992188 2.832031 12.171875 2.390625 12.230469 2.242188 L 12.335938 1.972656 L 12.503906 1.957031 C 12.808594 1.925781 13.027344 1.714844 13.078125 1.394531 C 13.117188 1.152344 12.933594 0.855469 12.675781 0.730469 C 12.535156 0.664062 12.304688 0.660156 12.164062 0.722656 Z M 12.164062 0.722656 "/>
<path style=" stroke:none;fill-rule:nonzero;fill:rgb(0%,0%,0%);fill-opacity:1;" d="M 2.707031 5.488281 C 2.304688 5.691406 2.355469 6.261719 2.792969 6.453125 C 3.355469 6.703125 3.78125 5.914062 3.292969 5.53125 C 3.164062 5.429688 2.863281 5.40625 2.707031 5.488281 Z M 2.707031 5.488281 "/>
<path style=" stroke:none;fill-rule:nonzero;fill:rgb(0%,0%,0%);fill-opacity:1;" d="M 21.65625 5.804688 C 21.640625 5.832031 21.617188 5.921875 21.59375 6.007812 C 21.542969 6.207031 21.488281 6.308594 21.371094 6.425781 C 21.253906 6.546875 20.988281 6.671875 20.796875 6.703125 C 20.617188 6.730469 20.636719 6.769531 20.839844 6.800781 C 21.238281 6.855469 21.484375 7.070312 21.601562 7.464844 L 21.675781 7.707031 L 21.730469 7.503906 C 21.804688 7.242188 21.902344 7.082031 22.066406 6.972656 C 22.210938 6.871094 22.464844 6.78125 22.625 6.78125 C 22.714844 6.78125 22.71875 6.773438 22.660156 6.75 C 22.625 6.730469 22.507812 6.695312 22.402344 6.667969 C 22.046875 6.570312 21.824219 6.332031 21.71875 5.9375 C 21.691406 5.835938 21.664062 5.777344 21.65625 5.804688 Z M 21.65625 5.804688 "/>
<path style=" stroke:none;fill-rule:nonzero;fill:rgb(0%,0%,0%);fill-opacity:1;" d="M 2.035156 6.542969 C 1.957031 6.582031 1.871094 6.648438 1.835938 6.699219 C 1.757812 6.816406 1.722656 7.039062 1.757812 7.167969 C 1.773438 7.226562 1.789062 9 1.789062 11.34375 L 1.789062 15.414062 L 2.046875 15.652344 C 2.523438 16.078125 4.796875 18.054688 4.996094 18.214844 L 5.09375 18.296875 L 5.195312 18.183594 C 5.25 18.121094 5.296875 18.054688 5.296875 18.039062 C 5.296875 17.984375 5.132812 17.832031 3.761719 16.636719 C 3.078125 16.035156 2.445312 15.484375 2.367188 15.410156 L 2.21875 15.28125 L 2.214844 12.015625 C 2.210938 10.226562 2.214844 8.492188 2.21875 8.164062 L 2.238281 7.566406 L 2.359375 7.546875 C 2.753906 7.480469 2.9375 7.078125 2.71875 6.75 C 2.621094 6.601562 2.417969 6.480469 2.261719 6.480469 C 2.214844 6.480469 2.113281 6.507812 2.035156 6.542969 Z M 2.035156 6.542969 "/>
<path style=" stroke:none;fill-rule:nonzero;fill:rgb(0%,0%,0%);fill-opacity:1;" d="M 4.097656 6.515625 C 3.953125 6.558594 3.757812 6.78125 3.730469 6.929688 C 3.6875 7.144531 3.820312 7.40625 4.023438 7.511719 C 4.277344 7.644531 4.597656 7.539062 4.722656 7.277344 C 4.875 6.953125 4.742188 6.636719 4.390625 6.519531 C 4.257812 6.472656 4.242188 6.472656 4.097656 6.515625 Z M 4.097656 6.515625 "/>
<path style=" stroke:none;fill-rule:nonzero;fill:rgb(0%,0%,0%);fill-opacity:1;" d="M 3.238281 7.5625 C 3.132812 7.605469 3.011719 7.722656 2.949219 7.832031 C 2.914062 7.90625 2.90625 8.484375 2.902344 11.070312 L 2.894531 14.222656 L 2.992188 14.308594 C 3.046875 14.355469 3.203125 14.492188 3.339844 14.613281 C 3.476562 14.734375 3.675781 14.90625 3.78125 15 C 4.210938 15.386719 4.527344 15.667969 4.945312 16.027344 C 5.1875 16.242188 5.460938 16.480469 5.550781 16.566406 C 5.644531 16.648438 5.789062 16.777344 5.863281 16.847656 L 6.007812 16.976562 L 6.101562 16.871094 C 6.152344 16.808594 6.203125 16.746094 6.214844 16.722656 C 6.246094 16.671875 5.71875 16.179688 4.402344 15.035156 C 4.105469 14.773438 3.730469 14.441406 3.570312 14.296875 L 3.273438 14.03125 L 3.273438 8.546875 L 3.433594 8.566406 C 3.703125 8.589844 3.902344 8.453125 3.980469 8.195312 C 4.101562 7.796875 3.640625 7.402344 3.238281 7.5625 Z M 3.238281 7.5625 "/>
<path style=" stroke:none;fill-rule:nonzero;fill:rgb(0%,0%,0%);fill-opacity:1;" d="M 19.453125 7.902344 C 19.390625 8.132812 19.324219 8.230469 19.171875 8.3125 C 19.085938 8.355469 18.972656 8.40625 18.914062 8.417969 C 18.816406 8.441406 18.820312 8.441406 18.996094 8.503906 C 19.226562 8.582031 19.359375 8.714844 19.433594 8.945312 L 19.496094 9.125 L 19.53125 8.964844 C 19.585938 8.765625 19.773438 8.5625 19.972656 8.5 L 20.117188 8.457031 L 19.945312 8.394531 C 19.746094 8.320312 19.589844 8.152344 19.539062 7.964844 C 19.5 7.808594 19.484375 7.796875 19.453125 7.902344 Z M 19.453125 7.902344 "/>
<path style=" stroke:none;fill-rule:nonzero;fill:rgb(0%,0%,0%);fill-opacity:1;" d="M 21.363281 7.984375 C 21.078125 8.0625 20.847656 8.265625 20.714844 8.554688 C 20.652344 8.6875 20.636719 8.785156 20.636719 8.992188 C 20.636719 9.300781 20.707031 9.476562 20.914062 9.691406 L 21.03125 9.8125 L 20.835938 10.0625 C 20.566406 10.402344 20.160156 10.796875 19.730469 11.128906 C 19.421875 11.371094 18.253906 12.167969 17.816406 12.433594 C 17.734375 12.484375 17.582031 12.578125 17.480469 12.636719 C 17.378906 12.703125 17.046875 12.894531 16.746094 13.066406 C 16.441406 13.238281 16.164062 13.40625 16.128906 13.441406 C 16.082031 13.480469 16.0625 13.546875 16.0625 13.652344 C 16.0625 13.796875 16.066406 13.804688 16.140625 13.785156 C 16.273438 13.746094 17.351562 13.175781 17.714844 12.953125 C 18.605469 12.410156 19.386719 11.882812 19.925781 11.472656 C 20.355469 11.148438 21.085938 10.425781 21.261719 10.15625 L 21.378906 9.972656 L 21.621094 9.980469 C 21.828125 9.996094 21.890625 9.980469 22.058594 9.90625 C 22.378906 9.757812 22.539062 9.566406 22.628906 9.210938 C 22.71875 8.863281 22.613281 8.515625 22.332031 8.242188 C 22.074219 7.992188 21.707031 7.894531 21.363281 7.984375 Z M 21.867188 8.554688 C 22.21875 8.738281 22.203125 9.242188 21.847656 9.417969 C 21.421875 9.625 21.019531 9.210938 21.207031 8.757812 C 21.300781 8.535156 21.632812 8.433594 21.867188 8.554688 Z M 21.867188 8.554688 "/>
<path style=" stroke:none;fill-rule:nonzero;fill:rgb(0%,0%,0%);fill-opacity:1;" d="M 18.230469 9.332031 C 17.980469 9.402344 17.882812 9.457031 17.738281 9.621094 C 17.390625 10 17.359375 10.535156 17.648438 10.945312 L 17.78125 11.125 L 17.34375 11.542969 C 16.972656 11.894531 16.601562 12.339844 16.601562 12.433594 C 16.601562 12.445312 16.554688 12.523438 16.5 12.609375 C 16.445312 12.6875 16.402344 12.757812 16.414062 12.757812 C 16.457031 12.757812 16.90625 12.460938 17.074219 12.324219 C 17.175781 12.238281 17.453125 11.980469 17.691406 11.742188 L 18.117188 11.316406 L 18.289062 11.34375 C 18.507812 11.382812 18.742188 11.339844 18.972656 11.214844 C 19.523438 10.914062 19.640625 10.128906 19.210938 9.652344 C 18.953125 9.359375 18.570312 9.234375 18.230469 9.332031 Z M 18.722656 9.921875 C 18.839844 9.992188 18.960938 10.214844 18.964844 10.355469 C 18.964844 10.484375 18.808594 10.71875 18.683594 10.777344 C 18.242188 10.988281 17.828125 10.550781 18.042969 10.101562 C 18.15625 9.863281 18.484375 9.777344 18.722656 9.921875 Z M 18.722656 9.921875 "/>
<path style=" stroke:none;fill-rule:nonzero;fill:rgb(0%,0%,0%);fill-opacity:1;" d="M 0.382812 10.308594 C 0.285156 10.375 0.230469 10.523438 0.261719 10.648438 C 0.300781 10.785156 0.492188 10.910156 0.625 10.882812 C 0.882812 10.832031 0.992188 10.503906 0.800781 10.339844 C 0.6875 10.246094 0.492188 10.230469 0.382812 10.308594 Z M 0.382812 10.308594 "/>
<path style=" stroke:none;fill-rule:nonzero;fill:rgb(0%,0%,0%);fill-opacity:1;" d="M 23.167969 10.910156 C 23.101562 11.089844 22.972656 11.203125 22.746094 11.28125 C 22.660156 11.308594 22.621094 11.335938 22.652344 11.335938 C 22.683594 11.339844 22.777344 11.367188 22.863281 11.410156 C 23.019531 11.484375 23.214844 11.726562 23.21875 11.859375 C 23.21875 11.90625 23.238281 11.886719 23.269531 11.800781 C 23.34375 11.589844 23.453125 11.46875 23.636719 11.386719 C 23.730469 11.34375 23.789062 11.308594 23.761719 11.308594 C 23.734375 11.304688 23.644531 11.273438 23.566406 11.234375 C 23.417969 11.164062 23.296875 11.011719 23.253906 10.84375 C 23.230469 10.757812 23.226562 10.761719 23.167969 10.910156 Z M 23.167969 10.910156 "/>
<path style=" stroke:none;fill-rule:nonzero;fill:rgb(0%,0%,0%);fill-opacity:1;" d="M 4.011719 11.179688 C 3.683594 11.402344 3.65625 11.796875 3.964844 12.035156 C 4.066406 12.113281 4.128906 12.128906 4.273438 12.128906 C 4.46875 12.128906 4.574219 12.070312 4.703125 11.898438 C 4.800781 11.769531 4.800781 11.480469 4.703125 11.347656 C 4.523438 11.101562 4.230469 11.03125 4.011719 11.179688 Z M 4.011719 11.179688 "/>
<path style=" stroke:none;fill-rule:nonzero;fill:rgb(0%,0%,0%);fill-opacity:1;" d="M 15.480469 11.242188 C 15.449219 11.296875 15.378906 11.363281 15.324219 11.382812 L 15.226562 11.417969 L 15.335938 11.488281 C 15.390625 11.527344 15.460938 11.609375 15.492188 11.664062 L 15.546875 11.773438 L 15.601562 11.65625 C 15.632812 11.589844 15.695312 11.519531 15.742188 11.5 C 15.84375 11.453125 15.851562 11.417969 15.757812 11.394531 C 15.722656 11.386719 15.660156 11.324219 15.621094 11.257812 C 15.582031 11.191406 15.546875 11.136719 15.546875 11.136719 C 15.542969 11.136719 15.511719 11.183594 15.480469 11.242188 Z M 15.480469 11.242188 "/>
<path style=" stroke:none;fill-rule:nonzero;fill:rgb(0%,0%,0%);fill-opacity:1;" d="M 21.039062 11.363281 C 20.589844 11.523438 20.316406 11.953125 20.355469 12.445312 L 20.367188 12.640625 L 20.046875 12.757812 C 19.625 12.910156 19.003906 13.210938 18.667969 13.425781 C 18.289062 13.671875 18.285156 13.675781 18.433594 13.824219 L 18.554688 13.945312 L 18.769531 13.808594 C 19.078125 13.617188 19.65625 13.328125 20.125 13.144531 L 20.523438 12.984375 L 20.664062 13.121094 C 20.839844 13.289062 20.980469 13.359375 21.214844 13.398438 C 21.667969 13.472656 22.085938 13.25 22.3125 12.8125 C 22.375 12.703125 22.386719 12.613281 22.390625 12.382812 C 22.390625 12.136719 22.375 12.070312 22.296875 11.90625 C 22.0625 11.429688 21.511719 11.195312 21.039062 11.363281 Z M 21.632812 11.941406 C 21.859375 12.105469 21.9375 12.429688 21.800781 12.632812 C 21.71875 12.761719 21.507812 12.890625 21.382812 12.890625 C 21.246094 12.890625 21.03125 12.769531 20.957031 12.644531 C 20.867188 12.503906 20.867188 12.285156 20.960938 12.113281 C 21.085938 11.863281 21.410156 11.785156 21.632812 11.941406 Z M 21.632812 11.941406 "/>
<path style=" stroke:none;fill-rule:nonzero;fill:rgb(0%,0%,0%);fill-opacity:1;" d="M 14.433594 12.195312 C 13.996094 12.359375 13.75 12.71875 13.75 13.195312 C 13.75 13.425781 13.765625 13.472656 13.878906 13.675781 L 14.003906 13.90625 L 13.847656 14.09375 C 13.34375 14.6875 12.753906 15.046875 11.574219 15.488281 C 11.269531 15.605469 11 15.707031 10.976562 15.722656 C 10.945312 15.738281 10.960938 15.78125 11.019531 15.886719 C 11.125 16.066406 11.105469 16.070312 11.863281 15.785156 C 13.027344 15.347656 13.519531 15.039062 14.136719 14.359375 L 14.351562 14.121094 L 14.523438 14.164062 C 14.742188 14.21875 14.816406 14.21875 15.058594 14.152344 C 15.429688 14.046875 15.742188 13.667969 15.78125 13.277344 C 15.824219 12.90625 15.578125 12.445312 15.242188 12.261719 C 15.035156 12.152344 14.640625 12.117188 14.433594 12.195312 Z M 15.019531 12.765625 C 15.4375 13.046875 15.246094 13.667969 14.738281 13.667969 C 14.324219 13.667969 14.125 13.148438 14.417969 12.828125 C 14.566406 12.667969 14.835938 12.640625 15.019531 12.765625 Z M 15.019531 12.765625 "/>
<path style=" stroke:none;fill-rule:nonzero;fill:rgb(0%,0%,0%);fill-opacity:1;" d="M 3.609375 12.425781 C 3.542969 12.503906 3.476562 12.597656 3.453125 12.632812 C 3.410156 12.707031 3.390625 13.417969 3.429688 13.554688 C 3.441406 13.597656 3.679688 13.832031 3.960938 14.078125 C 5.183594 15.152344 6.476562 16.289062 6.632812 16.429688 C 6.726562 16.515625 6.855469 16.632812 6.917969 16.6875 C 6.980469 16.746094 7.179688 16.921875 7.355469 17.074219 C 7.535156 17.234375 7.925781 17.566406 8.234375 17.816406 C 8.539062 18.066406 8.847656 18.328125 8.921875 18.394531 C 9 18.460938 9.335938 18.742188 9.671875 19.019531 C 10.90625 20.039062 12.476562 21.359375 12.71875 21.582031 C 13.167969 22 13.535156 22.578125 13.800781 23.292969 C 13.863281 23.449219 13.929688 23.578125 13.949219 23.570312 C 14.359375 23.445312 14.347656 23.453125 14.324219 23.34375 C 14.269531 23.089844 14.089844 22.605469 13.945312 22.339844 C 13.617188 21.726562 13.285156 21.34375 12.554688 20.738281 C 12.304688 20.535156 11.890625 20.195312 11.640625 19.988281 C 11.121094 19.554688 10.734375 19.234375 9.816406 18.476562 C 9.457031 18.183594 8.90625 17.722656 8.589844 17.464844 C 8.273438 17.199219 7.800781 16.8125 7.539062 16.597656 C 6.703125 15.921875 5.9375 15.285156 5.398438 14.8125 C 4.277344 13.84375 3.9375 13.550781 3.878906 13.503906 C 3.820312 13.464844 3.8125 13.417969 3.8125 13.082031 C 3.8125 12.757812 3.824219 12.691406 3.878906 12.621094 C 3.964844 12.511719 3.964844 12.480469 3.875 12.394531 C 3.742188 12.28125 3.726562 12.28125 3.609375 12.425781 Z M 3.609375 12.425781 "/>
<path style=" stroke:none;fill-rule:nonzero;fill:rgb(0%,0%,0%);fill-opacity:1;" d="M 20.589844 13.789062 C 20.554688 13.875 20.511719 13.925781 20.414062 13.96875 L 20.28125 14.027344 L 20.410156 14.109375 C 20.476562 14.152344 20.558594 14.242188 20.589844 14.300781 L 20.644531 14.414062 L 20.707031 14.289062 C 20.742188 14.214844 20.816406 14.140625 20.878906 14.109375 C 20.9375 14.078125 20.988281 14.046875 20.988281 14.039062 C 20.988281 14.027344 20.9375 13.996094 20.878906 13.972656 C 20.820312 13.945312 20.738281 13.863281 20.699219 13.796875 L 20.632812 13.667969 Z M 20.589844 13.789062 "/>
<path style=" stroke:none;fill-rule:nonzero;fill:rgb(0%,0%,0%);fill-opacity:1;" d="M 17.609375 13.878906 C 17.382812 13.964844 17.171875 14.109375 17.070312 14.246094 C 16.863281 14.542969 16.816406 14.957031 16.957031 15.304688 L 17.042969 15.507812 L 16.878906 15.667969 C 16.507812 16.050781 15.804688 16.433594 14.765625 16.824219 C 14.234375 17.019531 12.832031 17.597656 12.789062 17.640625 C 12.78125 17.644531 12.839844 17.714844 12.914062 17.789062 L 13.054688 17.933594 L 13.183594 17.878906 C 13.253906 17.847656 13.472656 17.757812 13.667969 17.671875 C 13.863281 17.589844 14.386719 17.386719 14.828125 17.214844 C 15.269531 17.042969 15.777344 16.835938 15.949219 16.75 C 16.355469 16.554688 16.824219 16.242188 17.113281 15.96875 L 17.34375 15.753906 L 17.503906 15.816406 C 17.617188 15.855469 17.746094 15.878906 17.917969 15.875 C 18.136719 15.871094 18.203125 15.855469 18.375 15.761719 C 18.730469 15.574219 18.917969 15.226562 18.890625 14.824219 C 18.859375 14.421875 18.667969 14.128906 18.320312 13.953125 C 18.113281 13.847656 17.789062 13.816406 17.609375 13.878906 Z M 18.027344 14.410156 C 18.175781 14.453125 18.308594 14.601562 18.359375 14.785156 C 18.425781 15.035156 18.234375 15.308594 17.945312 15.371094 C 17.8125 15.402344 17.566406 15.285156 17.480469 15.144531 C 17.316406 14.878906 17.449219 14.496094 17.738281 14.410156 C 17.867188 14.371094 17.886719 14.371094 18.027344 14.410156 Z M 18.027344 14.410156 "/>
<path style=" stroke:none;fill-rule:nonzero;fill:rgb(0%,0%,0%);fill-opacity:1;" d="M 22.019531 14.148438 C 21.980469 14.210938 21.90625 14.277344 21.84375 14.304688 L 21.734375 14.351562 L 21.84375 14.40625 C 21.902344 14.4375 21.984375 14.519531 22.027344 14.59375 L 22.101562 14.730469 L 22.148438 14.617188 C 22.175781 14.546875 22.242188 14.476562 22.308594 14.441406 L 22.421875 14.382812 L 22.308594 14.328125 C 22.246094 14.292969 22.179688 14.222656 22.152344 14.152344 C 22.125 14.089844 22.101562 14.039062 22.09375 14.039062 C 22.089844 14.042969 22.054688 14.089844 22.019531 14.148438 Z M 22.019531 14.148438 "/>
<path style=" stroke:none;fill-rule:nonzero;fill:rgb(0%,0%,0%);fill-opacity:1;" d="M 16.382812 14.484375 C 15.332031 14.839844 14.789062 15.082031 14.15625 15.464844 C 13.773438 15.703125 13.300781 15.902344 12.175781 16.300781 C 11.84375 16.421875 11.574219 16.523438 11.574219 16.535156 C 11.574219 16.546875 11.632812 16.617188 11.703125 16.695312 L 11.828125 16.835938 L 12.609375 16.554688 C 13.625 16.1875 13.933594 16.050781 14.492188 15.710938 C 14.949219 15.433594 15.308594 15.273438 16.207031 14.949219 L 16.601562 14.808594 L 16.601562 14.609375 C 16.601562 14.5 16.597656 14.410156 16.597656 14.414062 C 16.589844 14.414062 16.496094 14.445312 16.382812 14.484375 Z M 16.382812 14.484375 "/>
<path style=" stroke:none;fill-rule:nonzero;fill:rgb(0%,0%,0%);fill-opacity:1;" d="M 2.867188 15.082031 L 2.867188 15.3125 L 3.308594 15.695312 C 3.871094 16.183594 4.023438 16.316406 4.871094 17.070312 L 5.570312 17.691406 L 5.6875 17.5625 C 5.75 17.488281 5.800781 17.417969 5.804688 17.40625 C 5.808594 17.347656 2.960938 14.847656 2.886719 14.847656 C 2.878906 14.847656 2.867188 14.953125 2.867188 15.082031 Z M 2.867188 15.082031 "/>
<path style=" stroke:none;fill-rule:nonzero;fill:rgb(0%,0%,0%);fill-opacity:1;" d="M 20.839844 14.996094 C 20.40625 15.132812 20.171875 15.425781 20.105469 15.90625 L 20.070312 16.15625 L 19.882812 16.175781 C 19.570312 16.214844 18.921875 16.390625 18.132812 16.652344 C 17.3125 16.925781 15.789062 17.515625 15.386719 17.714844 C 15.046875 17.882812 14.027344 18.527344 13.980469 18.605469 C 13.960938 18.636719 14.160156 18.832031 14.21875 18.832031 C 14.242188 18.832031 14.8125 18.496094 15.335938 18.175781 C 15.605469 18.011719 17.386719 17.308594 18.257812 17.023438 C 18.910156 16.8125 20.046875 16.5 20.171875 16.5 C 20.207031 16.5 20.292969 16.570312 20.363281 16.652344 C 20.429688 16.738281 20.566406 16.847656 20.664062 16.898438 C 20.8125 16.976562 20.878906 16.992188 21.125 16.992188 C 21.382812 16.992188 21.433594 16.980469 21.589844 16.890625 C 22.230469 16.535156 22.300781 15.625 21.714844 15.183594 C 21.429688 14.964844 21.136719 14.902344 20.839844 14.996094 Z M 21.3125 15.558594 C 21.46875 15.632812 21.597656 15.835938 21.597656 16.007812 C 21.597656 16.175781 21.472656 16.367188 21.316406 16.4375 C 21.136719 16.519531 21.078125 16.519531 20.90625 16.433594 C 20.75 16.359375 20.617188 16.164062 20.617188 16.007812 C 20.617188 15.953125 20.648438 15.847656 20.6875 15.765625 C 20.738281 15.65625 20.785156 15.609375 20.894531 15.558594 C 21.082031 15.472656 21.136719 15.472656 21.3125 15.558594 Z M 21.3125 15.558594 "/>
<path style=" stroke:none;fill-rule:nonzero;fill:rgb(0%,0%,0%);fill-opacity:1;" d="M 15.976562 15.628906 C 15.824219 15.640625 15.640625 15.667969 15.570312 15.6875 C 15.375 15.742188 15.058594 15.949219 14.765625 16.214844 C 14.621094 16.34375 14.492188 16.453125 14.472656 16.460938 C 14.457031 16.46875 14.441406 16.484375 14.441406 16.5 C 14.441406 16.527344 15.117188 16.296875 15.394531 16.171875 C 15.484375 16.132812 15.707031 16 15.902344 15.875 C 16.269531 15.632812 16.332031 15.585938 16.28125 15.59375 C 16.261719 15.597656 16.128906 15.609375 15.976562 15.628906 Z M 15.976562 15.628906 "/>
<path style=" stroke:none;fill-rule:nonzero;fill:rgb(0%,0%,0%);fill-opacity:1;" d="M 6.160156 17.738281 C 5.855469 18.089844 5.601562 18.382812 5.605469 18.390625 C 5.605469 18.402344 5.773438 18.558594 5.980469 18.742188 L 6.351562 19.074219 L 6.46875 18.960938 C 6.589844 18.84375 7.375 17.957031 7.449219 17.855469 C 7.480469 17.808594 7.46875 17.78125 7.371094 17.703125 L 7.253906 17.609375 L 7.140625 17.738281 L 7.027344 17.863281 L 6.914062 17.769531 C 6.734375 17.621094 6.730469 17.59375 6.863281 17.441406 C 6.929688 17.363281 6.984375 17.292969 6.984375 17.28125 C 6.984375 17.257812 6.773438 17.109375 6.742188 17.109375 C 6.730469 17.109375 6.46875 17.390625 6.160156 17.738281 Z M 6.160156 17.738281 "/>
<path style=" stroke:none;fill-rule:nonzero;fill:rgb(0%,0%,0%);fill-opacity:1;" d="M 20.386719 17.285156 C 20.304688 17.457031 20.234375 17.515625 20.027344 17.582031 L 19.898438 17.625 L 20.042969 17.667969 C 20.226562 17.722656 20.332031 17.820312 20.40625 18.011719 L 20.464844 18.160156 L 20.507812 18.011719 C 20.558594 17.835938 20.707031 17.695312 20.886719 17.664062 L 20.988281 17.640625 L 20.8125 17.558594 C 20.632812 17.472656 20.558594 17.398438 20.496094 17.230469 L 20.464844 17.128906 Z M 20.386719 17.285156 "/>
<path style=" stroke:none;fill-rule:nonzero;fill:rgb(0%,0%,0%);fill-opacity:1;" d="M 17.539062 17.695312 C 17.214844 17.816406 16.976562 18.070312 16.902344 18.378906 C 16.878906 18.46875 16.859375 18.558594 16.851562 18.582031 C 16.847656 18.605469 16.699219 18.628906 16.476562 18.640625 C 15.96875 18.675781 15.367188 18.78125 15.234375 18.863281 C 15.140625 18.921875 14.867188 19.230469 14.886719 19.253906 C 14.894531 19.257812 15.066406 19.230469 15.269531 19.199219 C 15.609375 19.136719 16.714844 19 16.84375 19 C 16.871094 19 16.921875 19.054688 16.949219 19.117188 C 17.160156 19.554688 17.679688 19.792969 18.140625 19.65625 C 18.453125 19.570312 18.632812 19.410156 18.777344 19.117188 C 18.886719 18.878906 18.90625 18.683594 18.847656 18.453125 C 18.765625 18.136719 18.558594 17.875 18.28125 17.726562 C 18.136719 17.652344 17.707031 17.632812 17.539062 17.695312 Z M 18.085938 18.25 C 18.222656 18.316406 18.359375 18.53125 18.359375 18.679688 C 18.359375 18.820312 18.253906 19.003906 18.121094 19.089844 C 17.894531 19.246094 17.566406 19.152344 17.441406 18.898438 C 17.324219 18.671875 17.394531 18.410156 17.613281 18.265625 C 17.75 18.171875 17.925781 18.164062 18.085938 18.25 Z M 18.085938 18.25 "/>
<path style=" stroke:none;fill-rule:nonzero;fill:rgb(0%,0%,0%);fill-opacity:1;" d="M 7.914062 18.457031 C 7.839844 18.542969 7.574219 18.855469 7.324219 19.148438 C 7.074219 19.441406 6.855469 19.699219 6.839844 19.722656 C 6.824219 19.753906 6.9375 19.871094 7.210938 20.109375 C 7.429688 20.296875 7.621094 20.449219 7.628906 20.449219 C 7.648438 20.449219 8.632812 19.304688 8.796875 19.089844 L 8.871094 18.996094 L 8.636719 18.785156 L 8.5 18.917969 L 8.367188 19.046875 L 8.085938 18.765625 L 8.195312 18.632812 C 8.253906 18.558594 8.300781 18.484375 8.300781 18.476562 C 8.300781 18.445312 8.121094 18.292969 8.082031 18.292969 C 8.066406 18.292969 7.988281 18.367188 7.914062 18.457031 Z M 7.914062 18.457031 "/>
<path style=" stroke:none;fill-rule:nonzero;fill:rgb(0%,0%,0%);fill-opacity:1;" d="M 10.679688 18.613281 C 11.242188 19.171875 11.953125 19.757812 13.210938 20.714844 C 14.222656 21.484375 14.621094 21.941406 15.039062 22.789062 L 15.222656 23.171875 L 15.382812 23.121094 C 15.46875 23.09375 15.542969 23.070312 15.546875 23.066406 C 15.5625 23.054688 15.410156 22.691406 15.285156 22.433594 C 14.871094 21.613281 14.453125 21.171875 13.183594 20.214844 C 11.714844 19.101562 11.441406 18.90625 10.984375 18.65625 C 10.746094 18.523438 10.507812 18.390625 10.460938 18.363281 C 10.414062 18.335938 10.515625 18.449219 10.679688 18.613281 Z M 10.679688 18.613281 "/>
<path style=" stroke:none;fill-rule:nonzero;fill:rgb(0%,0%,0%);fill-opacity:1;" d="M 12.453125 19.132812 C 12.515625 19.1875 12.839844 19.445312 13.175781 19.699219 C 13.503906 19.953125 13.945312 20.292969 14.148438 20.449219 C 14.871094 21.007812 15.25 21.421875 15.648438 22.097656 C 15.75 22.273438 15.871094 22.503906 15.914062 22.621094 C 15.957031 22.734375 16.007812 22.839844 16.023438 22.851562 C 16.035156 22.867188 16.117188 22.859375 16.199219 22.835938 C 16.335938 22.796875 16.351562 22.78125 16.34375 22.691406 C 16.328125 22.535156 15.882812 21.675781 15.65625 21.378906 C 15.351562 20.96875 14.886719 20.519531 14.386719 20.15625 C 13.3125 19.371094 13.238281 19.328125 12.707031 19.148438 C 12.523438 19.082031 12.363281 19.03125 12.355469 19.03125 C 12.34375 19.03125 12.386719 19.078125 12.453125 19.132812 Z M 12.453125 19.132812 "/>
<path style=" stroke:none;fill-rule:nonzero;fill:rgb(0%,0%,0%);fill-opacity:1;" d="M 9.191406 19.746094 C 9.046875 19.921875 8.761719 20.25 8.558594 20.480469 L 8.1875 20.898438 L 8.390625 21.085938 C 8.5 21.191406 8.683594 21.359375 8.796875 21.457031 L 9.007812 21.632812 L 9.269531 21.320312 C 9.414062 21.152344 9.691406 20.828125 9.882812 20.601562 C 10.074219 20.378906 10.238281 20.179688 10.25 20.15625 C 10.265625 20.113281 10.097656 19.945312 10.03125 19.945312 C 10.011719 19.945312 9.949219 19.996094 9.894531 20.066406 C 9.78125 20.199219 9.742188 20.195312 9.574219 20.019531 L 9.480469 19.921875 L 9.601562 19.777344 C 9.664062 19.699219 9.71875 19.625 9.71875 19.621094 C 9.71875 19.589844 9.53125 19.441406 9.496094 19.4375 C 9.476562 19.4375 9.335938 19.578125 9.191406 19.746094 Z M 9.191406 19.746094 "/>
<path style=" stroke:none;fill-rule:nonzero;fill:rgb(0%,0%,0%);fill-opacity:1;" d="M 10.285156 21.203125 C 9.980469 21.558594 9.722656 21.867188 9.707031 21.890625 C 9.683594 21.929688 10.410156 22.589844 10.460938 22.570312 C 10.476562 22.5625 10.6875 22.324219 10.933594 22.035156 C 11.183594 21.75 11.394531 21.507812 11.40625 21.496094 C 11.417969 21.484375 11.46875 21.425781 11.515625 21.359375 L 11.609375 21.238281 L 11.492188 21.125 C 11.425781 21.0625 11.367188 21.015625 11.363281 21.027344 C 11.355469 21.035156 11.308594 21.097656 11.257812 21.164062 C 11.203125 21.234375 11.144531 21.292969 11.121094 21.292969 C 11.097656 21.292969 11.019531 21.242188 10.949219 21.183594 L 10.820312 21.066406 L 10.945312 20.910156 C 11.074219 20.753906 11.074219 20.75 11.015625 20.683594 C 10.863281 20.515625 10.871094 20.507812 10.285156 21.203125 Z M 10.285156 21.203125 "/>
<path style=" stroke:none;fill-rule:nonzero;fill:rgb(0%,0%,0%);fill-opacity:1;" d="M 17.707031 21.039062 C 17.378906 21.160156 17.253906 21.484375 17.421875 21.78125 C 17.519531 21.957031 17.671875 22.042969 17.886719 22.042969 C 18.203125 22.039062 18.390625 21.851562 18.390625 21.535156 C 18.390625 21.167969 18.042969 20.914062 17.707031 21.039062 Z M 17.707031 21.039062 "/>
<path style=" stroke:none;fill-rule:nonzero;fill:rgb(0%,0%,0%);fill-opacity:1;" d="M 11.738281 21.738281 C 11.636719 21.855469 11.511719 22.007812 11.457031 22.078125 L 11.363281 22.207031 L 11.457031 22.304688 C 11.511719 22.363281 11.566406 22.40625 11.578125 22.40625 C 11.597656 22.40625 12.078125 21.832031 12.128906 21.738281 C 12.160156 21.6875 12.03125 21.53125 11.960938 21.53125 C 11.9375 21.53125 11.839844 21.625 11.738281 21.738281 Z M 11.738281 21.738281 "/>
</g>
</svg>
