<svg width="131" height="122" viewBox="0 0 131 122" fill="none" xmlns="http://www.w3.org/2000/svg">
<path d="M8 114.54L4.18541 113.336C3.7549 114.701 4.08579 116.191 5.05319 117.245C6.02059 118.299 7.4772 118.756 8.8733 118.443L8 114.54ZM42.881 4V0C41.1356 0 39.5917 1.13177 39.0664 2.7963L42.881 4ZM126.375 88.057L127.248 91.9605C129.076 91.5517 130.375 89.9297 130.375 88.057L126.375 88.057ZM126.375 4L130.375 4C130.375 1.79086 128.584 0 126.375 0V4ZM11.8146 115.744L46.6956 5.2037L39.0664 2.7963L4.18541 113.336L11.8146 115.744ZM125.502 84.1535L7.1267 110.636L8.8733 118.443L127.248 91.9605L125.502 84.1535ZM130.375 88.057L130.375 4L122.375 4L122.375 88.057L130.375 88.057ZM42.881 8H126.375V0H42.881V8Z" fill="black"/>
<path fill-rule="evenodd" clip-rule="evenodd" d="M29.8536 68.3266C29.8336 68.3567 29.8139 68.3872 29.7944 68.4182C28.1524 75.2236 29.7119 80.9575 31.0024 85.7024C31.9081 89.0326 32.6813 91.8757 32.1223 94.2602C34.399 93.9888 36.5638 94.5152 39.2481 95.1679C44.0834 96.3436 50.6041 97.9291 62.5 96C62.8135 95.7989 63.0565 95.5589 63.2358 95.2847C63.0066 95.5236 62.7616 95.7621 62.5 96C49.9378 90.8018 46.3825 90.4824 40.2353 89.9302C39.2871 89.845 38.2772 89.7543 37.1631 89.6392C35.4576 81.5845 35.3035 81.0683 29.8536 68.3266Z" fill="black"/>
<path fill-rule="evenodd" clip-rule="evenodd" d="M44.1417 28.5879C46.4405 40.7666 45.9495 52.3547 45.5257 62.3563C45.2254 69.4439 44.9589 75.7348 45.7428 80.8746C66.3432 80.8746 79.541 80.5388 104.229 72.8637C85.6818 90.0751 68.7117 89.3225 50.8692 88.5312C47.0817 88.3632 43.2549 88.1935 39.3653 88.1935C36.0612 62.3838 36.035 41.8061 44.1417 28.5879Z" fill="black"/>
<path fill-rule="evenodd" clip-rule="evenodd" d="M107.5 19.5C107.5 19.5 80.4848 13 65.5 24.5C49.0188 37.1483 48.9911 55.0853 48.9708 68.22C48.9646 72.2198 48.9591 75.7743 48.4899 78.5985C51.6751 78.2593 55.175 78.1947 58.8608 78.1267C72.5442 77.8741 88.7891 77.5743 101 63C111 42.5 107.5 19.5 107.5 19.5ZM97.6262 29.5311C97.6262 29.5311 85.9242 25.3829 76.9248 29.2107C52.0596 39.787 53.4764 54.1017 54.7108 66.5738C54.8664 68.1453 55.019 69.6876 55.1158 71.1895C74.53 73.6939 94.7569 71.8029 97.4379 45.8376C99.4562 33.9673 97.6262 29.5311 97.6262 29.5311Z" fill="black"/>
<path fill-rule="evenodd" clip-rule="evenodd" d="M60.0154 66.4622C65.8156 72.3024 75.1078 72.7063 84.6419 63.7113C84.6419 63.7113 94.5811 54.3341 91.4026 36.8498C73.5767 33.1846 63.6374 42.5619 63.6374 42.5619C54.1034 51.5568 54.2152 60.6219 60.0154 66.4622ZM62.2052 64.3962C65.8304 68.0464 71.9715 67.984 78.6232 61.7085C78.6232 61.7085 85.5576 55.1662 84.1032 43.7364C72.4298 41.9478 65.4954 48.4901 65.4954 48.4901C58.8438 54.7656 58.5801 60.746 62.2052 64.3962Z" fill="black"/>
<path fill-rule="evenodd" clip-rule="evenodd" d="M62.6069 63.3771C64.9633 65.7497 68.9977 65.669 71.618 63.1968C74.2384 60.7246 74.4524 56.7971 72.0961 54.4245C69.7397 52.0519 65.7053 52.1326 63.085 54.6048C60.4646 57.077 60.2506 61.0045 62.6069 63.3771ZM63.3369 62.6884C64.6057 63.966 66.778 63.9225 68.189 62.5913C69.6 61.2601 69.7152 59.1454 68.4464 57.8678C67.1776 56.5902 65.0052 56.6337 63.5943 57.9649C62.1833 59.2961 62.0681 61.4109 63.3369 62.6884Z" fill="black"/>
</svg>
