<svg width="131" height="124" viewBox="0 0 131 124" fill="none" xmlns="http://www.w3.org/2000/svg">
<path d="M8 114.54L4.18541 113.336C3.7549 114.701 4.08579 116.191 5.05319 117.245C6.02059 118.299 7.4772 118.756 8.8733 118.443L8 114.54ZM42.881 4V0C41.1356 0 39.5917 1.13177 39.0664 2.7963L42.881 4ZM126.375 88.057L127.248 91.9605C129.076 91.5517 130.375 89.9297 130.375 88.057L126.375 88.057ZM126.375 4L130.375 4C130.375 1.79086 128.584 0 126.375 0V4ZM11.8146 115.744L46.6956 5.2037L39.0664 2.7963L4.18541 113.336L11.8146 115.744ZM125.502 84.1535L7.1267 110.636L8.8733 118.443L127.248 91.9605L125.502 84.1535ZM130.375 88.057L130.375 4L122.375 4L122.375 88.057L130.375 88.057ZM42.881 8H126.375V0H42.881V8Z" fill="black"/>
<path d="M66.0242 83.6755C76.6022 83.6428 86.0209 80.0699 91.8542 73.6728C101.131 63.4496 103.185 44.6069 96.4127 29.6782C95.2257 27.1394 94.0753 25.0003 93.7175 24.8101C93.2659 24.6486 92.5355 25.1714 91.7196 26.1142C89.7175 28.7207 83.899 33.9063 80.5832 35.8273C79.0208 36.9042 75.0709 38.711 71.9795 40.0499C64.1838 43.332 60.4145 46.0935 58.3325 50.0341C56.9256 52.6555 54.4603 63.2099 55.2643 63.5718C56.2436 64.1712 66.0356 63.4714 68.6031 62.6865C72.7205 61.4276 76.3766 58.0159 77.5817 54.1466C78.4748 51.4683 77.9791 45.6196 76.8587 44.5584C76.5661 44.2455 75.3602 44.2205 74.199 44.3701C72.3775 44.6274 72.2262 44.7763 72.7227 45.4206C72.9602 45.8615 73.3641 47.5185 73.4748 49.1965C73.8424 54.9902 68.9104 58.7921 63.6054 56.8104C59.321 55.2271 58.2158 50.9685 61.0554 47.4897C62.479 45.9588 63.0976 45.6585 72.564 43.2778C80.9687 41.0079 82.8657 40.3252 84.3809 39.0659C86.4542 37.3364 86.718 37.5553 85.2662 39.694C84.6381 40.5793 84.2327 42.5008 84.2735 44.594C84.4239 49.6495 83.2253 54.912 81.0725 58.6773C77.7313 64.4066 72.6999 67.9392 61.5388 72.644C53.383 76.0362 48.3791 78.6788 39.5522 84.4675C30.1433 90.648 25.0887 94.3847 23.5191 96.4737L22.2024 98.0746L22.7749 95.9994C23.4172 93.2009 26.5169 88.9492 31.7372 83.7668C37.5109 78.0984 39.7049 73.8241 41.2131 64.3669C43.9401 48.4255 48.8683 39.7116 59.0417 33.4C61.8119 31.6543 63.9852 30.8957 72.8152 28.393C91.9755 23.0316 98.8715 20.7264 102.231 18.3041C103.981 17.1698 105.432 16.3154 105.492 16.5111C105.547 16.6912 105.193 17.4928 104.776 18.4248C104.033 19.9443 104.062 20.0382 106.093 23.7141C109.433 29.4037 111.851 36.3596 112.582 42.3333C112.939 45.1257 113.293 47.6281 113.421 47.6831C113.951 47.8207 113.893 38.907 113.457 36.1385C113.436 35.7027 113.414 35.275 113.39 34.8553C113.451 33.9151 113.991 34.8208 115.136 38.5651C118.611 49.289 117.466 58.9521 111.642 70.0283C111.642 70.0283 104.623 78.4546 96.2599 81.2663C87.8967 84.0779 66.0242 83.6755 66.0242 83.6755Z" fill="black"/>
</svg>
