<svg width="131" height="122" viewBox="0 0 131 122" fill="none" xmlns="http://www.w3.org/2000/svg">
<path d="M8 114.54L4.18541 113.336C3.7549 114.701 4.08579 116.191 5.05319 117.245C6.02059 118.299 7.4772 118.756 8.8733 118.443L8 114.54ZM42.881 4V0C41.1356 0 39.5917 1.13177 39.0664 2.7963L42.881 4ZM126.375 88.057L127.248 91.9605C129.076 91.5517 130.375 89.9297 130.375 88.057H126.375ZM126.375 4L130.375 4C130.375 1.79086 128.584 0 126.375 0V4ZM11.8146 115.744L46.6956 5.2037L39.0664 2.7963L4.18541 113.336L11.8146 115.744ZM125.502 84.1535L7.1267 110.636L8.8733 118.443L127.248 91.9605L125.502 84.1535ZM130.375 88.057L130.375 4L122.375 4L122.375 88.057H130.375ZM42.881 8H126.375V0H42.881V8Z" fill="black"/>
<path fill-rule="evenodd" clip-rule="evenodd" d="M61.2426 18.6766C58.9629 19.6689 57.9411 21.3745 57.9411 24.19C57.9411 27.0779 59.2398 28.9859 61.7757 29.823C63.3225 30.3334 63.5637 30.6652 63.8691 32.7016C64.0591 33.9672 64.8816 36.9778 65.6974 39.3911L67.1805 43.7786L65.3516 44.9086L63.5228 46.0391L62.1728 44.3144C61.4305 43.3655 59.6172 41.1842 58.1429 39.4671C55.8586 36.8059 55.5314 36.1661 55.9254 35.1288C57.5031 30.9788 55.0914 26.7326 51.1568 26.7326C47.142 26.7326 45 28.8658 45 32.8641C45 35.8871 47.2202 38.1151 50.2546 38.1368C52.3091 38.1513 52.6585 38.3558 54.2549 40.4745C55.5911 42.248 56.9567 44.0447 58.4282 45.7896C60.8145 48.6196 60.9113 49.0026 59.5499 50.2346C58.1963 51.4599 54.9667 57.9744 54.007 61.4147C53.5059 63.2114 53.0473 68.2708 52.7641 75.1322L68.5399 85.7707C68.5399 85.7707 75.4948 81.6322 74.5191 75.1322C73.5433 68.6322 81.4425 67.5648 81.4425 67.5648C84.7958 66.6527 94.6207 67.3168 100.388 68.8444C105.39 70.1701 109.461 71.5232 112.924 73.0109C113.983 73.4659 115.031 73.8314 115.253 73.8231C115.476 73.8153 112.258 70.4957 108.103 66.4467C101.601 60.1107 100.236 58.4931 98.3068 54.8313C95.4898 49.4856 92.474 46.0148 89.0084 44.1285C86.0993 42.5451 81.8463 41.2427 79.5526 41.2328C79.029 41.2306 78.6685 41.2302 78.4544 41.053C77.9808 40.661 78.2234 39.4039 79.0008 35.3472C79.8327 31.0078 79.9807 30.6983 81.7718 29.5678C88.2656 25.468 84.5427 16.0775 77.3625 18.4472C74.7303 19.3159 73.4703 21.184 73.4703 24.219C73.4703 26.2937 73.7354 27.0194 74.9637 28.3047L76.4576 29.868L75.4948 34.1235C74.9653 36.4643 74.5263 39.1162 74.5191 40.0164C74.5066 41.5243 74.3395 41.6811 72.4004 42.0088C70.0182 42.4115 69.9007 42.3546 69.5875 40.6494C69.4627 39.9703 68.7531 37.1807 68.0108 34.4502L66.6607 29.4854L67.9947 27.5189C70.2697 24.1667 69.324 20.0794 65.9469 18.6683C63.8096 17.7754 63.3111 17.7764 61.2426 18.6766ZM93.6584 59.9953C93.6584 59.1945 88.3479 53.869 86.7106 53.0278C84.0421 51.6571 76.5762 50.4091 76.5762 51.3341C76.5762 52.5392 79.9321 56.9697 81.5574 57.9097C82.9582 58.7203 93.6584 60.5642 93.6584 59.9953Z" fill="black"/>
</svg>
