<?xml version="1.0" encoding="UTF-8"?>
<svg xmlns="http://www.w3.org/2000/svg" xmlns:xlink="http://www.w3.org/1999/xlink" width="40px" height="40px" viewBox="0 0 40 40" version="1.1">
<g id="surface1">
<path style=" stroke:none;fill-rule:nonzero;fill:rgb(0%,0%,0%);fill-opacity:1;" d="M 28.109375 2.039062 C 27.457031 2.179688 26.402344 2.40625 25.769531 2.542969 C 25.136719 2.671875 23.230469 3.074219 21.535156 3.4375 C 19.839844 3.792969 18.082031 4.164062 17.625 4.265625 C 17.167969 4.359375 15.917969 4.625 14.839844 4.851562 C 13.769531 5.082031 12.0625 5.445312 11.046875 5.65625 C 10.042969 5.871094 9.0625 6.089844 8.878906 6.136719 C 8.351562 6.285156 7.945312 6.6875 7.773438 7.226562 C 7.71875 7.394531 7.109375 14.246094 6.339844 23.402344 C 6.273438 24.199219 5.988281 27.476562 5.710938 30.6875 C 5.4375 33.898438 5.207031 36.695312 5.203125 36.90625 C 5.191406 37.578125 5.519531 38.121094 6.125 38.429688 C 6.375 38.558594 6.480469 38.574219 6.867188 38.554688 L 7.316406 38.535156 L 10.042969 37.121094 C 11.539062 36.34375 12.925781 35.621094 13.121094 35.515625 C 13.316406 35.410156 13.878906 35.117188 14.367188 34.863281 C 15.214844 34.425781 15.71875 34.164062 17.238281 33.371094 C 17.613281 33.175781 18.324219 32.808594 18.808594 32.554688 C 19.703125 32.089844 20.605469 31.617188 21.59375 31.101562 C 21.890625 30.949219 22.582031 30.585938 23.132812 30.300781 C 23.691406 30.011719 24.257812 29.714844 24.40625 29.632812 C 24.554688 29.550781 25.621094 29.003906 26.777344 28.417969 C 27.933594 27.832031 28.910156 27.335938 28.941406 27.308594 C 28.976562 27.285156 29.585938 26.96875 30.300781 26.597656 C 31.019531 26.230469 31.6875 25.882812 31.78125 25.828125 C 31.882812 25.769531 32.46875 25.46875 33.085938 25.148438 C 33.707031 24.828125 34.335938 24.492188 34.484375 24.394531 C 34.921875 24.125 35.242188 23.578125 35.25 23.09375 C 35.25 22.972656 34.953125 21.425781 34.597656 19.65625 C 33.230469 12.933594 32.382812 8.761719 31.808594 5.953125 C 31.488281 4.355469 31.179688 2.945312 31.132812 2.808594 C 31 2.464844 30.691406 2.125 30.355469 1.953125 C 29.894531 1.722656 29.492188 1.742188 28.109375 2.039062 Z M 23.164062 6.546875 C 23.414062 8.21875 24.050781 9.871094 25.042969 11.433594 C 26.023438 12.992188 26.480469 14.417969 26.480469 15.964844 C 26.480469 17.890625 25.699219 19.785156 24.347656 21.15625 C 23.691406 21.820312 23.167969 22.203125 22.429688 22.566406 C 21.539062 23.003906 20.851562 23.21875 19.015625 23.609375 C 17.671875 23.898438 17.015625 24.199219 16.652344 24.703125 L 16.488281 24.933594 L 16.453125 24.550781 C 16.398438 23.863281 16.144531 23.449219 14.859375 21.992188 C 13.402344 20.332031 12.789062 19.320312 12.464844 18.015625 C 11.710938 14.945312 12.902344 11.796875 15.484375 10.023438 C 16.109375 9.597656 16.628906 9.324219 17.648438 8.902344 C 18.757812 8.453125 19.550781 8.015625 20.378906 7.410156 C 21.109375 6.882812 22.089844 5.953125 22.628906 5.277344 L 23.015625 4.804688 L 23.050781 5.4375 C 23.074219 5.789062 23.121094 6.285156 23.164062 6.546875 Z M 10.835938 14.929688 C 10.492188 15.996094 10.390625 17.296875 10.582031 18.222656 C 10.632812 18.484375 10.777344 18.910156 10.902344 19.183594 C 11.308594 20.058594 11.675781 20.4375 13.449219 21.800781 C 15.175781 23.140625 15.835938 23.769531 16.109375 24.34375 C 16.230469 24.613281 16.261719 24.761719 16.261719 25.160156 L 16.261719 25.644531 L 16.367188 25.433594 C 16.640625 24.910156 17.191406 24.550781 17.980469 24.378906 C 18.210938 24.332031 19.011719 24.265625 19.757812 24.230469 C 23.28125 24.070312 23.4375 24.046875 24.296875 23.601562 C 25.289062 23.082031 26.269531 21.882812 26.777344 20.558594 C 26.824219 20.445312 26.878906 20.335938 26.894531 20.320312 C 26.917969 20.300781 26.992188 20.128906 27.0625 19.933594 L 27.179688 19.578125 L 27.1875 20 C 27.191406 20.53125 27.015625 21.585938 26.902344 21.683594 C 26.832031 21.742188 26.421875 22.75 26.421875 22.863281 C 26.421875 22.925781 26.351562 23.199219 26.269531 23.472656 C 25.78125 25.011719 24.847656 25.972656 23.460938 26.34375 C 22.867188 26.503906 21.796875 26.480469 20.765625 26.285156 C 18.910156 25.929688 17.429688 25.917969 16.390625 26.242188 L 16.023438 26.363281 L 15.90625 26.203125 C 15.226562 25.265625 14.105469 24.441406 12.382812 23.589844 C 11.226562 23.015625 10.722656 22.703125 10.261719 22.25 C 9.082031 21.109375 8.792969 19.378906 9.515625 17.742188 C 9.625 17.480469 9.773438 17.03125 9.839844 16.746094 C 9.898438 16.464844 10.042969 16.007812 10.160156 15.742188 C 10.363281 15.277344 10.886719 14.394531 10.964844 14.394531 C 10.988281 14.394531 10.929688 14.632812 10.835938 14.929688 Z M 9.027344 22.175781 C 9.390625 22.625 10.117188 23.191406 10.765625 23.53125 C 11.054688 23.683594 11.695312 23.96875 12.191406 24.164062 C 12.695312 24.367188 13.265625 24.609375 13.464844 24.710938 C 14.703125 25.324219 15.699219 26.296875 15.699219 26.882812 C 15.699219 27.144531 15.753906 27.152344 16.011719 26.917969 C 16.136719 26.800781 16.328125 26.671875 16.433594 26.628906 C 16.78125 26.480469 17.523438 26.402344 18.175781 26.441406 C 18.910156 26.480469 19.332031 26.558594 20.65625 26.894531 C 22.113281 27.257812 23.203125 27.316406 24.140625 27.066406 C 24.460938 26.984375 25.164062 26.671875 25.375 26.527344 C 25.691406 26.304688 25.621094 26.492188 25.261719 26.832031 C 24.644531 27.410156 23.945312 27.71875 22.972656 27.847656 C 22.222656 27.945312 21.375 27.855469 20.34375 27.570312 C 17.675781 26.835938 16.710938 26.730469 16.074219 27.109375 C 15.929688 27.191406 15.816406 27.269531 15.828125 27.285156 C 15.839844 27.296875 15.984375 27.269531 16.144531 27.222656 C 16.296875 27.175781 16.511719 27.132812 16.617188 27.132812 C 17.019531 27.132812 17.761719 27.386719 18.820312 27.890625 C 19.4375 28.1875 20.125 28.488281 20.347656 28.574219 C 20.90625 28.769531 21.585938 28.875 22.121094 28.839844 C 22.59375 28.808594 22.628906 28.84375 22.285156 29.023438 C 21.914062 29.210938 21.441406 29.28125 20.792969 29.253906 C 20.191406 29.222656 20.191406 29.222656 19.90625 29.414062 C 19.542969 29.65625 19.105469 29.761719 18.636719 29.722656 C 18.121094 29.679688 17.765625 29.542969 17.089844 29.128906 C 15.925781 28.414062 15.570312 28.425781 15.152344 29.171875 L 15.054688 29.355469 L 15.058594 28.957031 C 15.066406 28.511719 14.976562 28.316406 14.703125 28.175781 C 14.519531 28.082031 13.820312 27.960938 13.4375 27.960938 C 12.71875 27.957031 11.878906 27.636719 11.488281 27.210938 C 11.269531 26.96875 10.960938 26.421875 10.960938 26.269531 C 10.960938 26.230469 10.78125 26.097656 10.5625 25.972656 C 10.089844 25.699219 9.542969 25.183594 9.367188 24.835938 C 9.183594 24.472656 9.210938 24.425781 9.484375 24.667969 C 10.195312 25.3125 11.125 25.679688 12.675781 25.917969 C 14.289062 26.167969 15.230469 26.5625 15.484375 27.097656 C 15.628906 27.398438 15.679688 27.316406 15.558594 26.992188 C 15.34375 26.441406 14.417969 25.8125 13.03125 25.273438 C 12.660156 25.128906 12.03125 24.886719 11.648438 24.734375 C 9.703125 23.988281 8.472656 22.738281 8.230469 21.269531 C 8.121094 20.628906 8.167969 20.621094 8.464844 21.238281 C 8.625 21.5625 8.878906 21.984375 9.027344 22.175781 Z M 9.027344 22.175781 "/>
<path style=" stroke:none;fill-rule:nonzero;fill:rgb(0%,0%,0%);fill-opacity:1;" d="M 19.015625 11.171875 C 18.199219 11.390625 17.347656 11.917969 16.671875 12.628906 C 16.097656 13.234375 15.746094 13.742188 15.410156 14.46875 C 14.542969 16.296875 14.390625 18.242188 14.976562 19.894531 C 15.21875 20.570312 15.484375 20.996094 16.007812 21.515625 C 16.882812 22.398438 17.996094 22.707031 19.207031 22.398438 C 20.628906 22.03125 21.984375 20.828125 22.808594 19.195312 C 23.058594 18.707031 23.425781 17.570312 23.523438 17.003906 C 23.632812 16.378906 23.621094 15.007812 23.5 14.480469 C 23.269531 13.453125 22.863281 12.664062 22.25 12.054688 C 21.550781 11.367188 20.839844 11.074219 19.871094 11.085938 C 19.578125 11.085938 19.195312 11.125 19.015625 11.171875 Z M 19.773438 15.582031 C 20.457031 15.925781 20.792969 16.488281 20.90625 17.464844 C 21.074219 18.863281 20.355469 20.378906 19.222656 21.035156 C 18.625 21.378906 18.09375 21.183594 18.027344 20.597656 L 17.992188 20.320312 L 17.773438 20.519531 C 17.316406 20.929688 16.882812 20.839844 16.59375 20.277344 C 16.160156 19.417969 16.203125 18.121094 16.699219 17.136719 C 17.246094 16.046875 18.105469 15.410156 19.023438 15.402344 C 19.34375 15.402344 19.480469 15.4375 19.773438 15.582031 Z M 19.773438 15.582031 "/>
<path style=" stroke:none;fill-rule:nonzero;fill:rgb(0%,0%,0%);fill-opacity:1;" d="M 9.921875 19.460938 C 10.023438 20.59375 10.667969 21.550781 11.769531 22.210938 C 11.960938 22.324219 12.519531 22.636719 13.003906 22.910156 C 13.496094 23.1875 14.003906 23.476562 14.148438 23.554688 C 14.90625 24 13.84375 23.097656 12.53125 22.1875 C 11.28125 21.320312 10.539062 20.503906 10.082031 19.492188 L 9.882812 19.046875 Z M 9.921875 19.460938 "/>
<path style=" stroke:none;fill-rule:nonzero;fill:rgb(0%,0%,0%);fill-opacity:1;" d="M 24.859375 24.269531 C 24.492188 24.507812 23.84375 24.761719 23.257812 24.894531 C 22.785156 25 22.492188 25.011719 20.902344 25.023438 C 18.589844 25.035156 18.453125 25.101562 20.273438 25.3125 C 22.675781 25.605469 23.085938 25.585938 23.964844 25.152344 C 24.371094 24.953125 25.007812 24.441406 25.117188 24.222656 C 25.203125 24.074219 25.136719 24.085938 24.859375 24.269531 Z M 24.859375 24.269531 "/>
<path style=" stroke:none;fill-rule:nonzero;fill:rgb(0%,0%,0%);fill-opacity:1;" d="M 11.285156 26.480469 C 11.6875 26.902344 12.214844 27.089844 13.347656 27.226562 C 14.503906 27.363281 14.917969 27.542969 15.195312 28.019531 L 15.347656 28.289062 L 15.324219 27.914062 C 15.285156 27.179688 14.929688 27.007812 12.695312 26.660156 C 12.261719 26.585938 11.757812 26.480469 11.574219 26.421875 C 11.121094 26.261719 11.085938 26.273438 11.285156 26.480469 Z M 11.285156 26.480469 "/>
<path style=" stroke:none;fill-rule:nonzero;fill:rgb(0%,0%,0%);fill-opacity:1;" d="M 15.960938 27.726562 C 15.828125 27.777344 15.519531 28.109375 15.519531 28.203125 C 15.519531 28.234375 15.597656 28.222656 15.699219 28.167969 C 15.9375 28.046875 16.464844 28.058594 16.808594 28.191406 C 16.960938 28.257812 17.382812 28.472656 17.738281 28.667969 C 18.472656 29.082031 19.011719 29.265625 19.453125 29.257812 C 20 29.253906 20.042969 29.183594 19.578125 29.027344 C 19.355469 28.953125 18.714844 28.660156 18.15625 28.375 C 16.859375 27.707031 16.363281 27.558594 15.960938 27.726562 Z M 15.960938 27.726562 "/>
</g>
</svg>
