<svg width="119" height="111" viewBox="0 0 119 111" fill="none" xmlns="http://www.w3.org/2000/svg">
<mask id="path-1-inside-1_2_231" fill="white">
<path fill-rule="evenodd" clip-rule="evenodd" d="M34.881 0L0 110.54L118.375 84.057L118.375 0H34.881Z"/>
</mask>
<path d="M0 110.54L-9.53648 107.531C-10.6127 110.941 -9.78552 114.667 -7.36702 117.302C-4.94852 119.937 -1.30699 121.08 2.18324 120.299L0 110.54ZM34.881 0V-10C30.5174 -10 26.6576 -7.17058 25.3445 -3.00925L34.881 0ZM118.375 84.057L120.558 93.8158C125.127 92.7936 128.375 88.7386 128.375 84.057L118.375 84.057ZM118.375 0L128.375 -9.07645e-07C128.375 -5.52285 123.898 -10 118.375 -10V0ZM9.53648 113.549L44.4175 3.00925L25.3445 -3.00925L-9.53648 107.531L9.53648 113.549ZM116.192 74.2982L-2.18324 100.781L2.18324 120.299L120.558 93.8158L116.192 74.2982ZM128.375 84.057L128.375 -9.07645e-07L108.375 9.07645e-07L108.375 84.057L128.375 84.057ZM34.881 10H118.375V-10H34.881V10Z" fill="black" mask="url(#path-1-inside-1_2_231)"/>
<path fill-rule="evenodd" clip-rule="evenodd" d="M47.0629 33.534C45.6531 34.5659 44.2911 35.8337 43.0036 37.3765C32.3797 47.6602 31.7626 58.874 31.2149 68.8251C30.8712 75.07 30.5549 80.8176 27.81 85.526C32.8529 82.1529 38.4324 82.0917 44.6387 82.0235C54.0698 81.92 64.9486 81.8006 77.5924 70.0201C78.4631 69.314 79.2281 68.5653 79.897 67.7818C79.1642 68.5159 78.3964 69.262 77.5924 70.0201C59.573 69.8061 56.5286 70.2654 45.5099 71.9278C44.1963 72.126 42.7692 72.3412 41.19 72.5745C41.5851 70.7154 41.9464 69.0804 42.2743 67.5962C44.4782 57.621 45.1766 54.4599 44.5474 35.882C45.3998 35.057 46.2383 34.2749 47.0629 33.534Z" fill="black"/>
<path fill-rule="evenodd" clip-rule="evenodd" d="M58.1999 23.7711C57.0341 24.5719 55.932 25.5888 54.9211 26.8594C46.36 35.1463 46.8113 45.1626 47.2117 54.0511C47.463 59.6291 47.6943 64.7629 45.6657 68.7464C49.8642 66.1675 54.8373 66.611 60.3692 67.1043C68.7754 67.854 78.4721 68.7187 88.7017 59.268C72.6036 57.4659 69.9282 57.6064 60.2446 58.1149C59.0901 58.1755 57.8359 58.2414 56.4476 58.3098C56.6341 56.6754 56.8103 55.2392 56.9703 53.9355C58.0456 45.1734 58.3864 42.3967 56.1651 25.6552C56.852 24.9903 57.5303 24.3628 58.1999 23.7711ZM90.558 57.4637C90.0313 58.1076 89.4155 58.7116 88.7017 59.268C89.3514 58.659 89.9698 58.0576 90.558 57.4637Z" fill="black"/>
<path fill-rule="evenodd" clip-rule="evenodd" d="M66.4281 20.8721C65.6018 21.3954 64.8411 22.0898 64.1697 22.986C58.2904 28.677 59.4205 36.403 60.4233 43.259C61.0526 47.5615 61.6318 51.5214 60.3971 54.4208C63.3969 52.7701 67.2247 53.5008 71.4826 54.3136C77.9528 55.5488 85.4162 56.9735 92.4768 50.5198C92.4768 50.5198 92.4768 50.5198 92.4768 50.5198C92.9776 50.1487 93.3998 49.7332 93.7511 49.2801C93.349 49.6899 92.9245 50.1032 92.4768 50.5198M66.4281 20.8721C65.9638 21.2738 65.4957 21.7024 65.024 22.159C68.0317 35.1875 67.9897 37.2927 67.8571 43.9359C67.8373 44.9243 67.8156 46.0132 67.8016 47.2535C68.8551 47.3099 69.8064 47.3577 70.6822 47.4017C78.0279 47.7711 80.0575 47.8731 92.4768 50.5198" fill="black"/>
<path fill-rule="evenodd" clip-rule="evenodd" d="M73.8479 41.0448C78.3602 45.7064 85.5892 46.0287 93.0063 38.8491C93.0063 38.8491 100.739 31.3643 98.2659 17.4087C84.3981 14.4832 76.6657 21.968 76.6657 21.968C69.2486 29.1476 69.3356 36.3832 73.8479 41.0448ZM75.5515 39.3958C78.3717 42.3093 83.1493 42.2595 88.324 37.2505C88.324 37.2505 93.7187 32.0285 92.5873 22.9054C83.5058 21.4778 78.1111 26.6998 78.1111 26.6998C72.9364 31.7088 72.7313 36.4823 75.5515 39.3958Z" fill="black"/>
<path fill-rule="evenodd" clip-rule="evenodd" d="M75.864 38.5823C77.6971 40.4761 80.8357 40.4117 82.8743 38.4384C84.9128 36.4651 85.0793 33.3303 83.2462 31.4365C81.413 29.5427 78.2744 29.6072 76.2359 31.5804C74.1974 33.5537 74.0309 36.6885 75.864 38.5823ZM76.4319 38.0326C77.4189 39.0524 79.1089 39.0177 80.2066 37.9551C81.3043 36.8926 81.394 35.2046 80.4069 34.1849C79.4198 33.1652 77.7298 33.1999 76.6321 34.2624C75.5344 35.3249 75.4448 37.0129 76.4319 38.0326Z" fill="black"/>
</svg>
