<?xml version="1.0" encoding="UTF-8"?>
<svg xmlns="http://www.w3.org/2000/svg" xmlns:xlink="http://www.w3.org/1999/xlink" width="28px" height="28px" viewBox="0 0 28 28" version="1.1">
<g id="surface1">
<path style=" stroke:none;fill-rule:nonzero;fill:rgb(0%,0%,0%);fill-opacity:1;" d="M 21.707031 2.207031 C 21.132812 2.253906 19.679688 2.355469 18.476562 2.441406 C 17.273438 2.523438 15.332031 2.65625 14.164062 2.738281 C 12.996094 2.820312 11.191406 2.945312 10.152344 3.015625 C 8.125 3.15625 7.9375 3.1875 7.667969 3.40625 C 7.34375 3.675781 7.328125 3.726562 6.863281 5.757812 C 6.738281 6.316406 6.417969 7.699219 6.160156 8.835938 C 5.898438 9.96875 5.582031 11.355469 5.453125 11.914062 C 5.328125 12.476562 5.105469 13.429688 4.964844 14.039062 C 4.824219 14.644531 4.664062 15.351562 4.609375 15.609375 C 4.550781 15.863281 4.441406 16.324219 4.375 16.628906 C 4.117188 17.757812 3.980469 18.339844 3.886719 18.753906 C 3.835938 18.988281 3.730469 19.445312 3.652344 19.773438 C 3.582031 20.097656 3.511719 20.398438 3.503906 20.429688 C 3.472656 20.558594 3.132812 22.035156 3.035156 22.449219 C 2.980469 22.683594 2.925781 22.941406 2.910156 23.023438 C 2.878906 23.167969 2.738281 23.78125 2.613281 24.316406 C 2.511719 24.730469 2.507812 24.898438 2.578125 25.160156 C 2.664062 25.46875 2.898438 25.742188 3.207031 25.894531 C 3.644531 26.105469 3.691406 26.09375 6.730469 25 C 6.988281 24.910156 11.742188 23.226562 13.699219 22.535156 C 15.757812 21.808594 18.667969 20.777344 19.179688 20.601562 C 19.503906 20.484375 20.070312 20.289062 20.429688 20.164062 C 23.917969 18.929688 24.636719 18.667969 24.773438 18.578125 C 24.859375 18.523438 25 18.375 25.085938 18.246094 C 25.277344 17.953125 25.296875 17.777344 25.234375 16.773438 C 25.210938 16.34375 25.148438 15.371094 25.101562 14.613281 C 25.054688 13.851562 25.007812 13.078125 24.996094 12.890625 C 24.949219 12.097656 24.796875 9.621094 24.699219 7.984375 C 24.640625 7.015625 24.585938 6.0625 24.570312 5.863281 C 24.382812 2.871094 24.390625 2.992188 24.296875 2.792969 C 24.175781 2.558594 23.976562 2.351562 23.765625 2.238281 C 23.53125 2.117188 23.023438 2.109375 21.707031 2.207031 Z M 18.617188 3.769531 C 18.609375 3.835938 18.570312 4.027344 18.535156 4.199219 C 18.460938 4.601562 18.460938 5.214844 18.539062 5.707031 C 18.574219 5.921875 18.628906 6.28125 18.667969 6.507812 C 18.765625 7.113281 18.988281 7.84375 19.320312 8.652344 C 19.785156 9.777344 19.921875 10.382812 19.921875 11.339844 C 19.921875 12.269531 19.773438 12.917969 19.367188 13.742188 C 19.058594 14.371094 18.757812 14.769531 18.191406 15.300781 C 17.109375 16.316406 16.097656 16.730469 14.367188 16.863281 C 14.046875 16.886719 13.535156 16.925781 13.230469 16.953125 C 12.378906 17.019531 12.007812 17.125 11.632812 17.417969 L 11.484375 17.539062 L 11.484375 17.210938 C 11.484375 16.710938 11.390625 16.515625 10.40625 14.929688 C 9.527344 13.519531 9.273438 12.699219 9.316406 11.410156 C 9.363281 9.894531 9.882812 8.667969 10.933594 7.625 C 11.75 6.8125 12.722656 6.320312 14.144531 5.992188 C 15.757812 5.625 17.03125 4.976562 18.257812 3.902344 C 18.414062 3.769531 18.5625 3.652344 18.585938 3.652344 C 18.617188 3.652344 18.625 3.699219 18.617188 3.769531 Z M 8.4375 9.6875 C 8.089844 10.4375 7.953125 10.953125 7.914062 11.644531 C 7.875 12.40625 8.011719 12.960938 8.390625 13.550781 C 8.613281 13.902344 8.753906 14.0625 10.160156 15.566406 C 10.757812 16.207031 11.101562 16.703125 11.234375 17.113281 C 11.292969 17.292969 11.304688 17.417969 11.285156 17.6875 L 11.257812 18.027344 L 11.386719 17.871094 C 11.554688 17.664062 11.804688 17.527344 12.148438 17.4375 C 12.496094 17.34375 13.351562 17.367188 14.292969 17.496094 C 16.117188 17.742188 16.621094 17.753906 17.1875 17.582031 C 18.230469 17.257812 19.050781 16.523438 19.707031 15.320312 C 19.804688 15.136719 19.894531 15 19.902344 15.007812 C 19.933594 15.03125 19.804688 15.601562 19.707031 15.890625 C 19.597656 16.214844 19.429688 16.558594 19.230469 16.851562 C 19.148438 16.972656 19.054688 17.144531 19.023438 17.230469 C 19 17.320312 18.894531 17.558594 18.792969 17.761719 C 18.636719 18.066406 18.527344 18.210938 18.171875 18.570312 C 17.8125 18.929688 17.675781 19.042969 17.414062 19.167969 C 16.925781 19.402344 16.59375 19.464844 15.992188 19.441406 C 15.46875 19.414062 15.148438 19.347656 14.570312 19.140625 C 13.085938 18.605469 12.082031 18.441406 11.027344 18.574219 C 10.96875 18.578125 10.902344 18.515625 10.796875 18.328125 C 10.394531 17.613281 9.570312 16.792969 8.601562 16.140625 C 7.714844 15.542969 7.28125 15.125 6.972656 14.570312 C 6.453125 13.628906 6.5625 12.414062 7.257812 11.390625 C 7.351562 11.25 7.464844 11.042969 7.5 10.929688 C 7.59375 10.648438 7.792969 10.261719 7.984375 9.980469 C 8.164062 9.722656 8.582031 9.246094 8.605469 9.273438 C 8.613281 9.28125 8.539062 9.46875 8.4375 9.6875 Z M 6.351562 14.765625 C 6.597656 15.15625 7.007812 15.605469 7.390625 15.894531 C 7.542969 16.007812 8.011719 16.316406 8.429688 16.566406 C 9.3125 17.101562 9.816406 17.488281 10.152344 17.886719 C 10.484375 18.28125 10.625 18.558594 10.648438 18.863281 C 10.660156 19 10.679688 19.113281 10.6875 19.113281 C 10.695312 19.113281 10.773438 19.066406 10.855469 19.007812 C 11.078125 18.859375 11.265625 18.816406 11.734375 18.816406 C 12.445312 18.816406 12.902344 18.945312 14.398438 19.574219 C 15.40625 19.992188 16.058594 20.125 16.78125 20.046875 C 17.195312 20.007812 17.480469 19.9375 17.832031 19.792969 L 18.03125 19.707031 L 17.835938 19.890625 C 17.59375 20.117188 17.191406 20.320312 16.792969 20.414062 C 16.355469 20.523438 15.589844 20.511719 15.101562 20.398438 C 14.625 20.277344 14.640625 20.285156 13.617188 19.828125 C 12.007812 19.105469 11.167969 18.921875 10.777344 19.210938 C 10.710938 19.253906 10.75 19.261719 11.019531 19.25 C 11.515625 19.222656 11.847656 19.363281 12.765625 20.007812 C 14.019531 20.882812 14.355469 21.035156 15.226562 21.148438 C 15.480469 21.183594 15.480469 21.183594 15.355469 21.234375 C 15.285156 21.261719 15.105469 21.308594 14.957031 21.335938 C 14.683594 21.378906 14.304688 21.34375 13.867188 21.230469 C 13.714844 21.1875 13.660156 21.195312 13.414062 21.292969 C 12.820312 21.53125 12.15625 21.394531 11.597656 20.914062 C 11.085938 20.476562 10.957031 20.375 10.804688 20.304688 C 10.710938 20.257812 10.558594 20.21875 10.46875 20.21875 C 10.324219 20.21875 10.277344 20.25 10.09375 20.4375 C 9.925781 20.617188 9.886719 20.644531 9.914062 20.558594 C 9.929688 20.5 9.953125 20.355469 9.964844 20.238281 C 10.011719 19.855469 9.8125 19.707031 8.957031 19.496094 C 8.667969 19.425781 8.316406 19.308594 8.175781 19.242188 C 7.710938 19.015625 7.324219 18.519531 7.277344 18.074219 C 7.253906 17.902344 7.230469 17.867188 7 17.6875 C 6.589844 17.363281 6.28125 16.929688 6.222656 16.585938 L 6.191406 16.417969 L 6.332031 16.585938 C 6.855469 17.203125 7.367188 17.492188 8.730469 17.945312 C 9.683594 18.265625 10.226562 18.601562 10.417969 18.980469 C 10.550781 19.253906 10.601562 19.203125 10.503906 18.898438 C 10.445312 18.714844 10.367188 18.605469 10.128906 18.371094 C 9.71875 17.96875 9.441406 17.773438 8.460938 17.210938 C 7.492188 16.652344 7.199219 16.449219 6.847656 16.101562 C 6.15625 15.421875 5.734375 14.453125 5.839844 13.785156 L 5.871094 13.570312 L 6.011719 14.003906 C 6.09375 14.269531 6.226562 14.566406 6.351562 14.765625 Z M 6.351562 14.765625 "/>
<path style=" stroke:none;fill-rule:nonzero;fill:rgb(0%,0%,0%);fill-opacity:1;" d="M 14.402344 7.90625 C 13 8.269531 11.6875 9.628906 11.132812 11.289062 C 10.945312 11.847656 10.867188 12.339844 10.867188 12.933594 C 10.871094 14.445312 11.554688 15.5625 12.722656 15.953125 C 13.40625 16.179688 14.257812 16.078125 15.035156 15.667969 C 16.371094 14.972656 17.449219 13.429688 17.738281 11.8125 C 17.808594 11.390625 17.824219 10.535156 17.753906 10.195312 C 17.527344 9 16.800781 8.136719 15.816406 7.882812 C 15.453125 7.789062 14.804688 7.796875 14.402344 7.90625 Z M 14.785156 11.027344 C 15.21875 11.242188 15.46875 11.632812 15.550781 12.207031 C 15.660156 13.03125 15.363281 13.863281 14.722656 14.507812 C 13.921875 15.3125 13.082031 15.355469 13.082031 14.589844 L 13.082031 14.394531 L 12.933594 14.503906 C 12.726562 14.667969 12.503906 14.6875 12.316406 14.5625 C 12.003906 14.351562 11.882812 13.582031 12.058594 12.902344 C 12.308594 11.925781 13.089844 11.089844 13.910156 10.917969 C 14.167969 10.859375 14.554688 10.90625 14.785156 11.027344 Z M 14.785156 11.027344 "/>
<path style=" stroke:none;fill-rule:nonzero;fill:rgb(0%,0%,0%);fill-opacity:1;" d="M 7.292969 12.597656 C 7.242188 12.648438 7.261719 13.21875 7.328125 13.527344 C 7.429688 14.003906 7.648438 14.40625 8.023438 14.78125 C 8.347656 15.105469 9.863281 16.328125 10.011719 16.382812 C 10.125 16.425781 9.734375 15.992188 8.910156 15.164062 C 7.945312 14.195312 7.628906 13.71875 7.421875 12.929688 C 7.367188 12.730469 7.308594 12.582031 7.292969 12.597656 Z M 7.292969 12.597656 "/>
<path style=" stroke:none;fill-rule:nonzero;fill:rgb(0%,0%,0%);fill-opacity:1;" d="M 17.632812 18.097656 C 16.863281 18.417969 16.136719 18.441406 14.78125 18.210938 C 13.984375 18.070312 13.117188 17.96875 13.167969 18.019531 C 13.191406 18.046875 14.902344 18.53125 15.398438 18.652344 C 15.652344 18.714844 15.914062 18.75 16.183594 18.75 C 16.714844 18.75 17.035156 18.648438 17.542969 18.328125 C 17.769531 18.179688 18.03125 17.957031 17.964844 17.972656 C 17.953125 17.972656 17.804688 18.03125 17.632812 18.097656 Z M 17.632812 18.097656 "/>
<path style=" stroke:none;fill-rule:nonzero;fill:rgb(0%,0%,0%);fill-opacity:1;" d="M 7.433594 18.097656 C 7.515625 18.242188 7.792969 18.492188 8.019531 18.617188 C 8.132812 18.679688 8.503906 18.808594 8.839844 18.90625 C 9.175781 19 9.542969 19.132812 9.660156 19.191406 C 9.902344 19.320312 10.132812 19.582031 10.175781 19.769531 L 10.207031 19.898438 L 10.246094 19.792969 C 10.265625 19.734375 10.277344 19.59375 10.265625 19.484375 C 10.226562 19.070312 9.914062 18.882812 8.539062 18.457031 C 8.269531 18.371094 7.914062 18.238281 7.746094 18.160156 C 7.386719 17.984375 7.375 17.980469 7.433594 18.097656 Z M 7.433594 18.097656 "/>
<path style=" stroke:none;fill-rule:nonzero;fill:rgb(0%,0%,0%);fill-opacity:1;" d="M 10.566406 19.6875 C 10.480469 19.746094 10.390625 19.832031 10.367188 19.875 C 10.324219 19.945312 10.335938 19.945312 10.519531 19.886719 C 10.886719 19.769531 11.226562 19.914062 11.957031 20.507812 C 12.492188 20.945312 12.964844 21.152344 13.40625 21.152344 C 13.574219 21.152344 13.519531 21.097656 13.195312 20.933594 C 13.03125 20.84375 12.605469 20.5625 12.253906 20.308594 C 11.523438 19.773438 11.238281 19.617188 10.9375 19.59375 C 10.761719 19.578125 10.699219 19.59375 10.566406 19.6875 Z M 10.566406 19.6875 "/>
</g>
</svg>
