<?xml version="1.0" encoding="UTF-8"?>
<svg xmlns="http://www.w3.org/2000/svg" xmlns:xlink="http://www.w3.org/1999/xlink" width="24px" height="24px" viewBox="0 0 24 24" version="1.1">
<g id="surface1">
<path style=" stroke:none;fill-rule:nonzero;fill:rgb(0%,0%,0%);fill-opacity:1;" d="M 16.867188 1.222656 C 16.476562 1.308594 15.84375 1.441406 15.460938 1.523438 C 15.082031 1.601562 13.9375 1.84375 12.921875 2.0625 C 11.902344 2.273438 10.847656 2.5 10.574219 2.558594 C 10.300781 2.617188 9.550781 2.777344 8.902344 2.910156 C 8.261719 3.050781 7.238281 3.265625 6.628906 3.394531 C 6.023438 3.523438 5.4375 3.652344 5.328125 3.683594 C 5.011719 3.769531 4.765625 4.011719 4.664062 4.335938 C 4.632812 4.4375 4.265625 8.546875 3.804688 14.039062 C 3.765625 14.519531 3.59375 16.484375 3.425781 18.414062 C 3.261719 20.339844 3.125 22.015625 3.121094 22.144531 C 3.113281 22.546875 3.3125 22.875 3.675781 23.058594 C 3.824219 23.136719 3.886719 23.144531 4.121094 23.132812 L 4.390625 23.121094 L 6.023438 22.273438 C 6.925781 21.808594 7.757812 21.375 7.875 21.308594 C 7.992188 21.246094 8.328125 21.070312 8.621094 20.917969 C 9.128906 20.65625 9.429688 20.5 10.34375 20.023438 C 10.566406 19.90625 10.992188 19.683594 11.285156 19.53125 C 11.824219 19.253906 12.363281 18.96875 12.957031 18.660156 C 13.132812 18.570312 13.550781 18.351562 13.878906 18.179688 C 14.214844 18.007812 14.554688 17.828125 14.644531 17.78125 C 14.734375 17.730469 15.375 17.402344 16.066406 17.050781 C 16.757812 16.699219 17.347656 16.402344 17.363281 16.386719 C 17.386719 16.371094 17.75 16.179688 18.179688 15.960938 C 18.613281 15.738281 19.011719 15.53125 19.070312 15.496094 C 19.128906 15.460938 19.480469 15.28125 19.851562 15.089844 C 20.226562 14.898438 20.601562 14.695312 20.691406 14.636719 C 20.953125 14.472656 21.144531 14.148438 21.148438 13.855469 C 21.148438 13.785156 20.972656 12.855469 20.757812 11.792969 C 19.9375 7.757812 19.429688 5.257812 19.085938 3.574219 C 18.890625 2.613281 18.707031 1.765625 18.679688 1.683594 C 18.601562 1.480469 18.414062 1.277344 18.214844 1.171875 C 17.9375 1.035156 17.695312 1.046875 16.867188 1.222656 Z M 13.898438 3.925781 C 14.046875 4.929688 14.429688 5.921875 15.023438 6.859375 C 15.613281 7.796875 15.886719 8.652344 15.886719 9.578125 C 15.886719 10.734375 15.417969 11.871094 14.609375 12.691406 C 14.214844 13.089844 13.902344 13.324219 13.457031 13.539062 C 12.925781 13.800781 12.511719 13.929688 11.410156 14.164062 C 10.601562 14.339844 10.207031 14.519531 9.992188 14.824219 L 9.890625 14.960938 L 9.871094 14.730469 C 9.839844 14.316406 9.6875 14.070312 8.914062 13.195312 C 8.039062 12.199219 7.675781 11.589844 7.480469 10.808594 C 7.027344 8.96875 7.742188 7.078125 9.292969 6.015625 C 9.664062 5.757812 9.976562 5.59375 10.589844 5.34375 C 11.253906 5.074219 11.730469 4.808594 12.226562 4.445312 C 12.664062 4.128906 13.253906 3.574219 13.578125 3.167969 L 13.808594 2.882812 L 13.832031 3.261719 C 13.84375 3.472656 13.875 3.769531 13.898438 3.925781 Z M 6.5 8.957031 C 6.296875 9.597656 6.234375 10.378906 6.347656 10.933594 C 6.378906 11.089844 6.464844 11.347656 6.539062 11.507812 C 6.785156 12.035156 7.007812 12.261719 8.070312 13.082031 C 9.105469 13.882812 9.5 14.261719 9.664062 14.605469 C 9.738281 14.769531 9.757812 14.859375 9.757812 15.097656 L 9.757812 15.386719 L 9.820312 15.257812 C 9.984375 14.945312 10.316406 14.730469 10.789062 14.625 C 10.925781 14.597656 11.40625 14.558594 11.855469 14.539062 C 13.96875 14.441406 14.0625 14.425781 14.578125 14.160156 C 15.175781 13.847656 15.761719 13.128906 16.066406 12.335938 C 16.09375 12.265625 16.125 12.203125 16.136719 12.191406 C 16.152344 12.179688 16.195312 12.078125 16.238281 11.960938 L 16.308594 11.746094 L 16.3125 12 C 16.316406 12.320312 16.207031 12.953125 16.140625 13.007812 C 16.097656 13.046875 15.851562 13.648438 15.851562 13.71875 C 15.851562 13.757812 15.808594 13.917969 15.761719 14.082031 C 15.46875 15.007812 14.90625 15.582031 14.074219 15.808594 C 13.71875 15.902344 13.078125 15.886719 12.457031 15.769531 C 11.347656 15.558594 10.457031 15.550781 9.835938 15.746094 L 9.613281 15.816406 L 9.542969 15.722656 C 9.136719 15.160156 8.464844 14.664062 7.429688 14.152344 C 6.734375 13.808594 6.433594 13.621094 6.15625 13.351562 C 5.449219 12.664062 5.273438 11.625 5.707031 10.644531 C 5.777344 10.488281 5.863281 10.21875 5.902344 10.046875 C 5.941406 9.878906 6.023438 9.605469 6.097656 9.445312 C 6.21875 9.167969 6.53125 8.636719 6.578125 8.636719 C 6.59375 8.636719 6.558594 8.78125 6.5 8.957031 Z M 5.417969 13.304688 C 5.632812 13.574219 6.070312 13.914062 6.457031 14.117188 C 6.632812 14.210938 7.015625 14.382812 7.316406 14.5 C 7.617188 14.621094 7.957031 14.765625 8.078125 14.824219 C 8.824219 15.195312 9.417969 15.777344 9.417969 16.128906 C 9.417969 16.285156 9.453125 16.289062 9.609375 16.152344 C 9.683594 16.082031 9.796875 16.003906 9.859375 15.976562 C 10.070312 15.886719 10.515625 15.84375 10.90625 15.863281 C 11.347656 15.886719 11.597656 15.933594 12.394531 16.136719 C 13.269531 16.355469 13.921875 16.390625 14.484375 16.242188 C 14.675781 16.191406 15.097656 16.003906 15.222656 15.917969 C 15.414062 15.78125 15.375 15.894531 15.15625 16.097656 C 14.785156 16.445312 14.367188 16.632812 13.785156 16.710938 C 13.332031 16.765625 12.824219 16.714844 12.207031 16.542969 C 10.605469 16.101562 10.027344 16.039062 9.644531 16.265625 C 9.558594 16.316406 9.492188 16.363281 9.496094 16.371094 C 9.503906 16.378906 9.589844 16.363281 9.6875 16.332031 C 9.777344 16.304688 9.90625 16.28125 9.96875 16.28125 C 10.210938 16.28125 10.65625 16.433594 11.292969 16.734375 C 11.664062 16.914062 12.074219 17.09375 12.210938 17.144531 C 12.542969 17.261719 12.953125 17.324219 13.273438 17.304688 C 13.558594 17.285156 13.578125 17.308594 13.371094 17.414062 C 13.148438 17.527344 12.863281 17.570312 12.476562 17.550781 C 12.113281 17.535156 12.113281 17.535156 11.941406 17.648438 C 11.726562 17.792969 11.464844 17.859375 11.183594 17.832031 C 10.875 17.808594 10.660156 17.726562 10.253906 17.476562 C 9.554688 17.046875 9.339844 17.054688 9.09375 17.503906 L 9.03125 17.613281 L 9.035156 17.375 C 9.039062 17.109375 8.984375 16.992188 8.824219 16.90625 C 8.710938 16.847656 8.292969 16.777344 8.0625 16.777344 C 7.632812 16.773438 7.125 16.582031 6.890625 16.324219 C 6.761719 16.179688 6.574219 15.851562 6.574219 15.761719 C 6.574219 15.738281 6.46875 15.65625 6.335938 15.582031 C 6.054688 15.417969 5.726562 15.109375 5.621094 14.902344 C 5.507812 14.683594 5.527344 14.65625 5.691406 14.800781 C 6.117188 15.1875 6.675781 15.410156 7.605469 15.550781 C 8.574219 15.699219 9.136719 15.9375 9.292969 16.257812 C 9.375 16.441406 9.410156 16.390625 9.335938 16.195312 C 9.207031 15.863281 8.652344 15.488281 7.820312 15.164062 C 7.597656 15.078125 7.21875 14.933594 6.988281 14.839844 C 5.824219 14.390625 5.082031 13.640625 4.9375 12.761719 C 4.875 12.375 4.902344 12.375 5.078125 12.742188 C 5.175781 12.9375 5.328125 13.191406 5.417969 13.304688 Z M 5.417969 13.304688 "/>
<path style=" stroke:none;fill-rule:nonzero;fill:rgb(0%,0%,0%);fill-opacity:1;" d="M 11.410156 6.703125 C 10.917969 6.835938 10.40625 7.152344 10.003906 7.578125 C 9.65625 7.941406 9.449219 8.246094 9.246094 8.679688 C 8.726562 9.777344 8.632812 10.945312 8.984375 11.9375 C 9.132812 12.339844 9.292969 12.597656 9.605469 12.910156 C 10.128906 13.441406 10.796875 13.625 11.523438 13.441406 C 12.375 13.21875 13.191406 12.496094 13.683594 11.515625 C 13.835938 11.226562 14.054688 10.542969 14.113281 10.203125 C 14.179688 9.828125 14.171875 9.003906 14.101562 8.6875 C 13.960938 8.074219 13.71875 7.597656 13.351562 7.234375 C 12.929688 6.820312 12.503906 6.644531 11.921875 6.652344 C 11.746094 6.652344 11.515625 6.675781 11.410156 6.703125 Z M 11.863281 9.347656 C 12.273438 9.554688 12.476562 9.890625 12.542969 10.480469 C 12.644531 11.316406 12.214844 12.226562 11.535156 12.621094 C 11.175781 12.828125 10.855469 12.710938 10.816406 12.359375 L 10.796875 12.191406 L 10.664062 12.3125 C 10.390625 12.558594 10.128906 12.503906 9.957031 12.167969 C 9.695312 11.652344 9.722656 10.875 10.019531 10.28125 C 10.347656 9.628906 10.863281 9.246094 11.414062 9.242188 C 11.605469 9.242188 11.6875 9.261719 11.863281 9.347656 Z M 11.863281 9.347656 "/>
<path style=" stroke:none;fill-rule:nonzero;fill:rgb(0%,0%,0%);fill-opacity:1;" d="M 5.953125 11.675781 C 6.015625 12.355469 6.402344 12.929688 7.0625 13.324219 C 7.175781 13.394531 7.511719 13.582031 7.800781 13.746094 C 8.097656 13.914062 8.402344 14.085938 8.488281 14.132812 C 8.941406 14.398438 8.308594 13.859375 7.519531 13.3125 C 6.769531 12.792969 6.324219 12.300781 6.050781 11.695312 L 5.929688 11.425781 Z M 5.953125 11.675781 "/>
<path style=" stroke:none;fill-rule:nonzero;fill:rgb(0%,0%,0%);fill-opacity:1;" d="M 14.914062 14.5625 C 14.695312 14.703125 14.308594 14.859375 13.953125 14.9375 C 13.671875 15 13.496094 15.007812 12.539062 15.015625 C 11.152344 15.019531 11.074219 15.058594 12.164062 15.1875 C 13.605469 15.363281 13.851562 15.351562 14.378906 15.09375 C 14.625 14.972656 15.003906 14.664062 15.070312 14.535156 C 15.121094 14.445312 15.082031 14.453125 14.914062 14.5625 Z M 14.914062 14.5625 "/>
<path style=" stroke:none;fill-rule:nonzero;fill:rgb(0%,0%,0%);fill-opacity:1;" d="M 6.769531 15.886719 C 7.011719 16.140625 7.328125 16.253906 8.007812 16.335938 C 8.703125 16.417969 8.949219 16.523438 9.117188 16.8125 L 9.210938 16.972656 L 9.195312 16.75 C 9.171875 16.308594 8.957031 16.203125 7.617188 15.996094 C 7.359375 15.953125 7.054688 15.886719 6.945312 15.851562 C 6.671875 15.757812 6.652344 15.765625 6.769531 15.886719 Z M 6.769531 15.886719 "/>
<path style=" stroke:none;fill-rule:nonzero;fill:rgb(0%,0%,0%);fill-opacity:1;" d="M 9.574219 16.636719 C 9.496094 16.667969 9.3125 16.867188 9.3125 16.921875 C 9.3125 16.941406 9.359375 16.933594 9.417969 16.902344 C 9.5625 16.828125 9.878906 16.835938 10.085938 16.914062 C 10.175781 16.953125 10.429688 17.082031 10.640625 17.199219 C 11.082031 17.449219 11.40625 17.558594 11.671875 17.554688 C 12 17.550781 12.023438 17.507812 11.746094 17.417969 C 11.613281 17.371094 11.230469 17.195312 10.894531 17.027344 C 10.117188 16.625 9.816406 16.535156 9.574219 16.636719 Z M 9.574219 16.636719 "/>
</g>
</svg>
