<svg width="131" height="122" viewBox="0 0 131 122" fill="none" xmlns="http://www.w3.org/2000/svg">
<path d="M8 114.54L4.18541 113.336C3.7549 114.701 4.08579 116.191 5.05319 117.245C6.02059 118.299 7.4772 118.756 8.8733 118.443L8 114.54ZM42.881 4V0C41.1356 0 39.5917 1.13177 39.0664 2.7963L42.881 4ZM126.375 88.057L127.248 91.9605C129.076 91.5517 130.375 89.9297 130.375 88.057H126.375ZM126.375 4L130.375 4C130.375 1.79086 128.584 0 126.375 0V4ZM11.8146 115.744L46.6956 5.2037L39.0664 2.7963L4.18541 113.336L11.8146 115.744ZM125.502 84.1535L7.1267 110.636L8.8733 118.443L127.248 91.9605L125.502 84.1535ZM130.375 88.057L130.375 4L122.375 4L122.375 88.057H130.375ZM42.881 8H126.375V0H42.881V8Z" fill="black"/>
<path fill-rule="evenodd" clip-rule="evenodd" d="M94.8134 19.8241C97.5063 21.0329 98.7134 23.1106 98.7134 26.5402C98.7134 30.0581 97.1792 32.3823 94.1836 33.4019C92.3566 34.0236 92.0716 34.4278 91.7108 36.9084C91.4864 38.4501 90.5148 42.1175 89.5511 45.0571L88.5972 47.9675C88.1277 49.3999 88.6884 50.9682 89.9596 51.7782V51.7782V51.7782C91.1802 52.5563 92.7937 52.2677 93.6688 51.1147L93.7146 51.0543C94.5915 49.8985 96.7334 47.2414 98.4749 45.1498C101.173 41.9081 101.56 41.1287 101.094 39.8651C99.2307 34.8099 102.079 29.6375 106.727 29.6375C111.47 29.6375 114 32.236 114 37.1064C114 40.7889 111.377 43.5028 107.793 43.5293C105.366 43.5469 104.953 43.796 103.068 46.3769C101.489 48.5372 99.8762 50.7258 98.138 52.8514C95.5465 56.0206 95.6514 56.6679 96.1441 59.5911C96.236 60.1361 96.2343 60.7077 96.1276 61.25C92.9531 77.3811 81.153 76.4468 72.46 78.901C71.4689 79.1808 70.4246 79.2119 69.4032 79.0808C64.5216 78.4539 54.644 79.2769 48.573 80.9351C42.6644 82.55 37.8546 84.1983 33.7645 86.0105C32.5141 86.5648 31.2758 87.0099 31.0129 86.9998C30.75 86.9904 34.5509 82.9466 39.4591 78.0144C47.1404 70.2964 48.7522 68.3259 51.0312 63.8654C54.3588 57.3536 57.9211 53.1257 62.0149 50.828C65.4514 48.8991 70.4752 47.3126 73.1846 47.3006C73.8032 47.2979 74.229 47.2975 74.4819 47.0816C75.0413 46.6041 74.7548 45.0727 73.8364 40.1312C72.8538 34.8453 72.6789 34.4682 70.5633 33.091C62.8924 28.097 67.2901 16.6581 75.7717 19.5448C78.881 20.6029 80.3693 22.8786 80.3693 26.5755C80.3693 29.1028 80.0563 29.9868 78.6053 31.5525V31.5525C77.4998 32.7454 77.0484 34.4041 77.3969 35.9927L77.9779 38.6406C78.6034 41.4919 79.122 44.7223 79.1305 45.8188C79.1452 47.6556 79.3427 47.8467 81.6332 48.2458C84.4472 48.7364 84.586 48.667 84.956 46.59C85.1033 45.7627 85.9416 42.3646 86.8185 39.0385L87.8441 35.1489C88.2063 33.7754 87.9672 32.3128 87.1867 31.1262L86.8374 30.5953C84.1501 26.5118 85.2672 21.533 89.2564 19.8141C91.7812 18.7263 92.37 18.7276 94.8134 19.8241ZM56.5221 70.1558C56.5221 69.1803 62.7952 62.6931 64.7292 61.6685C67.8813 59.9988 76.7005 58.4785 76.7005 59.6053C76.7005 61.0732 72.7364 66.4702 70.8164 67.6153C69.1618 68.6027 56.5221 70.8488 56.5221 70.1558Z" fill="black"/>
</svg>
