<?xml version="1.0" encoding="UTF-8"?>
<svg xmlns="http://www.w3.org/2000/svg" xmlns:xlink="http://www.w3.org/1999/xlink" width="24px" height="24px" viewBox="0 0 24 24" version="1.1">
<g id="surface1">
<path style=" stroke:none;fill-rule:nonzero;fill:rgb(0%,0%,0%);fill-opacity:1;" d="M 0 11.996094 L 0 23.992188 L 23.992188 23.992188 L 23.992188 0 L 0 0 Z M 12.6875 0.742188 C 12.953125 0.878906 13.117188 1.152344 13.078125 1.394531 C 13.027344 1.714844 12.808594 1.925781 12.503906 1.957031 L 12.335938 1.972656 L 12.230469 2.242188 C 12.171875 2.390625 11.992188 2.832031 11.835938 3.222656 C 11.546875 3.929688 11.328125 4.546875 11.292969 4.746094 L 11.273438 4.847656 L 11.667969 4.871094 C 11.886719 4.878906 12.152344 4.914062 12.261719 4.941406 C 12.804688 5.089844 13.292969 5.371094 13.675781 5.761719 C 14.082031 6.171875 14.285156 6.523438 14.542969 7.269531 C 14.785156 7.972656 14.832031 8.03125 15.707031 8.820312 C 16.140625 9.214844 16.46875 9.679688 16.566406 10.039062 C 16.613281 10.226562 16.648438 10.488281 16.625 10.523438 C 16.613281 10.539062 16.539062 10.492188 16.460938 10.414062 C 15.902344 9.878906 14.890625 9.382812 13.921875 9.160156 L 13.71875 9.113281 L 14.148438 9.121094 C 14.550781 9.132812 14.574219 9.128906 14.488281 9.082031 C 14.421875 9.046875 14.269531 9.027344 14.003906 9.015625 C 13.59375 9.003906 13.4375 9.035156 12.6875 9.265625 C 12.300781 9.382812 11.839844 9.410156 11.515625 9.332031 C 10.714844 9.136719 10.113281 8.292969 10.035156 7.273438 C 10.015625 6.996094 10.066406 6.488281 10.121094 6.433594 C 10.140625 6.414062 10.191406 6.433594 10.25 6.472656 C 10.582031 6.707031 11.050781 6.863281 11.605469 6.917969 C 12.097656 6.96875 12.359375 7.058594 12.539062 7.242188 C 12.667969 7.371094 12.984375 7.917969 12.949219 7.949219 C 12.902344 7.996094 12.339844 8.132812 12.1875 8.132812 C 11.746094 8.132812 11.421875 7.828125 11.398438 7.402344 C 11.390625 7.230469 11.394531 7.226562 11.554688 7.199219 C 11.660156 7.179688 11.671875 7.1875 11.65625 7.234375 C 11.644531 7.261719 11.652344 7.363281 11.675781 7.457031 C 11.757812 7.792969 12.097656 7.921875 12.359375 7.71875 C 12.578125 7.554688 12.566406 7.292969 12.34375 7.152344 C 12.238281 7.085938 12.199219 7.082031 11.625 7.105469 C 11.117188 7.125 10.996094 7.121094 10.890625 7.078125 C 10.746094 7.015625 10.730469 7.03125 10.847656 7.128906 C 10.898438 7.167969 10.953125 7.265625 10.988281 7.382812 C 11.109375 7.804688 11.355469 8.140625 11.671875 8.3125 C 11.882812 8.425781 12.253906 8.523438 12.605469 8.554688 C 13.117188 8.597656 13.550781 8.679688 14.121094 8.84375 C 14.824219 9.042969 15.050781 9.121094 15.242188 9.226562 L 15.386719 9.308594 L 15.332031 9.210938 C 15.246094 9.070312 14.992188 8.882812 14.617188 8.6875 C 14.195312 8.46875 14.011719 8.269531 13.753906 7.761719 C 13.503906 7.273438 13.320312 7.007812 13.054688 6.769531 C 12.816406 6.554688 12.542969 6.410156 12.214844 6.320312 C 12.03125 6.269531 11.894531 6.261719 11.355469 6.277344 C 9.957031 6.308594 9.730469 6.296875 9.324219 6.152344 C 9.28125 6.136719 9.292969 6.160156 9.359375 6.234375 L 9.457031 6.339844 L 9.402344 6.585938 C 9.3125 6.964844 9.296875 7.394531 9.359375 7.746094 C 9.386719 7.910156 9.410156 8.050781 9.402344 8.058594 C 9.378906 8.078125 9.210938 7.574219 9.183594 7.40625 C 9.15625 7.257812 9.152344 7.277344 9.148438 7.574219 C 9.144531 7.996094 9.199219 8.21875 9.40625 8.640625 C 9.539062 8.914062 9.609375 9.003906 9.882812 9.285156 L 10.210938 9.605469 L 10.054688 9.808594 C 9.609375 10.402344 9.421875 11.019531 9.390625 12.011719 C 9.371094 12.738281 9.425781 13.160156 9.632812 13.847656 C 10.03125 15.15625 10.730469 16.273438 11.8125 17.328125 C 12.542969 18.039062 13.96875 19.136719 14.476562 19.378906 C 14.816406 19.542969 15.324219 19.871094 15.707031 20.171875 C 16.074219 20.46875 16.359375 20.75 16.703125 21.160156 C 16.878906 21.371094 17.113281 21.636719 17.21875 21.757812 C 17.324219 21.871094 17.414062 21.984375 17.414062 22.003906 C 17.414062 22.070312 16.976562 22.015625 16.898438 21.945312 C 16.859375 21.910156 16.660156 21.695312 16.449219 21.460938 C 15.792969 20.730469 15.492188 20.460938 14.8125 19.992188 C 14.601562 19.847656 14.28125 19.585938 14.105469 19.421875 L 13.785156 19.113281 L 13.449219 19.019531 C 11.128906 18.363281 9 17.191406 7.710938 15.855469 C 7.128906 15.253906 6.738281 14.714844 6.445312 14.09375 C 5.894531 12.945312 5.746094 11.683594 6.007812 10.355469 C 6.285156 8.914062 7.148438 7.363281 8.253906 6.3125 C 8.578125 6.007812 9.015625 5.648438 9.136719 5.589844 C 9.179688 5.570312 9.210938 5.546875 9.210938 5.535156 C 9.210938 5.519531 9.066406 5.410156 8.886719 5.285156 C 8.441406 4.972656 7.910156 4.449219 7.550781 3.964844 L 7.242188 3.558594 L 7.078125 3.570312 C 6.757812 3.59375 6.441406 3.339844 6.390625 3.015625 C 6.347656 2.710938 6.5625 2.390625 6.871094 2.3125 C 7.394531 2.179688 7.839844 2.734375 7.613281 3.230469 L 7.550781 3.371094 L 7.652344 3.53125 C 7.839844 3.816406 8.375 4.425781 8.65625 4.667969 C 8.804688 4.796875 9.066406 5.003906 9.234375 5.132812 L 9.550781 5.367188 L 9.675781 5.292969 C 9.746094 5.25 9.804688 5.21875 9.8125 5.214844 C 9.816406 5.210938 9.730469 5.0625 9.617188 4.882812 C 9.175781 4.175781 8.878906 3.460938 8.691406 2.660156 C 8.675781 2.585938 8.644531 2.566406 8.542969 2.542969 C 8.300781 2.5 8.144531 2.375 8.046875 2.152344 C 7.820312 1.597656 8.382812 1.085938 8.929688 1.351562 C 9.148438 1.457031 9.28125 1.671875 9.28125 1.914062 C 9.28125 2.117188 9.191406 2.324219 9.070312 2.410156 C 9.003906 2.460938 9 2.46875 9.042969 2.65625 C 9.199219 3.351562 9.605469 4.300781 10 4.898438 L 10.128906 5.085938 L 10.246094 5.046875 C 10.339844 5.019531 10.359375 4.996094 10.347656 4.945312 C 10.230469 4.480469 10.234375 3.039062 10.355469 2.234375 L 10.382812 2.058594 L 10.246094 1.996094 C 9.929688 1.847656 9.773438 1.550781 9.855469 1.242188 C 9.914062 1.027344 10.011719 0.910156 10.222656 0.816406 C 10.394531 0.738281 10.421875 0.734375 10.589844 0.769531 C 11.039062 0.863281 11.257812 1.296875 11.070312 1.707031 C 11.011719 1.839844 10.820312 2.023438 10.742188 2.023438 C 10.671875 2.023438 10.613281 2.9375 10.613281 3.921875 C 10.613281 4.449219 10.625 4.898438 10.636719 4.914062 C 10.648438 4.925781 10.722656 4.921875 10.800781 4.90625 L 10.945312 4.875 L 10.992188 4.644531 C 11.0625 4.289062 11.238281 3.792969 11.648438 2.777344 L 12.015625 1.855469 L 11.910156 1.722656 C 11.714844 1.480469 11.734375 1.101562 11.957031 0.878906 C 12.160156 0.667969 12.441406 0.617188 12.6875 0.742188 Z M 3.296875 5.539062 C 3.777344 5.921875 3.351562 6.699219 2.792969 6.453125 C 2.355469 6.261719 2.304688 5.691406 2.707031 5.488281 C 2.867188 5.402344 3.164062 5.429688 3.296875 5.539062 Z M 21.855469 6.269531 C 21.960938 6.457031 22.167969 6.601562 22.402344 6.667969 C 22.507812 6.695312 22.625 6.730469 22.660156 6.75 C 22.71875 6.773438 22.714844 6.78125 22.625 6.78125 C 22.464844 6.78125 22.210938 6.871094 22.066406 6.972656 C 21.902344 7.082031 21.804688 7.242188 21.730469 7.503906 L 21.675781 7.707031 L 21.601562 7.464844 C 21.484375 7.070312 21.238281 6.855469 20.839844 6.800781 C 20.636719 6.769531 20.617188 6.730469 20.796875 6.703125 C 20.988281 6.671875 21.253906 6.546875 21.371094 6.425781 C 21.488281 6.308594 21.542969 6.207031 21.59375 6.007812 C 21.660156 5.75 21.667969 5.746094 21.71875 5.9375 C 21.746094 6.039062 21.804688 6.1875 21.855469 6.269531 Z M 2.488281 6.542969 C 2.671875 6.628906 2.8125 6.835938 2.8125 7.027344 C 2.8125 7.300781 2.632812 7.5 2.359375 7.546875 L 2.238281 7.566406 L 2.21875 8.164062 C 2.210938 8.492188 2.207031 10.226562 2.214844 12.015625 L 2.21875 15.28125 L 2.367188 15.410156 C 2.445312 15.484375 3.078125 16.035156 3.761719 16.636719 C 5.128906 17.828125 5.296875 17.984375 5.296875 18.039062 C 5.296875 18.054688 5.25 18.121094 5.195312 18.183594 L 5.09375 18.296875 L 4.996094 18.214844 C 4.796875 18.054688 2.523438 16.078125 2.046875 15.652344 L 1.789062 15.414062 L 1.789062 11.34375 C 1.789062 9 1.773438 7.226562 1.757812 7.167969 C 1.722656 7.039062 1.757812 6.816406 1.835938 6.699219 C 1.902344 6.597656 2.132812 6.480469 2.261719 6.480469 C 2.308594 6.480469 2.410156 6.507812 2.488281 6.542969 Z M 4.390625 6.519531 C 4.570312 6.582031 4.683594 6.679688 4.742188 6.824219 C 4.808594 7 4.804688 7.101562 4.722656 7.277344 C 4.5 7.734375 3.824219 7.625 3.730469 7.113281 C 3.675781 6.828125 3.933594 6.507812 4.238281 6.484375 C 4.257812 6.480469 4.328125 6.496094 4.390625 6.519531 Z M 3.632812 7.5625 C 3.683594 7.578125 3.78125 7.644531 3.839844 7.703125 C 4.1875 8.042969 3.921875 8.609375 3.433594 8.566406 L 3.273438 8.546875 L 3.273438 14.03125 L 3.570312 14.296875 C 3.730469 14.441406 4.105469 14.773438 4.402344 15.035156 C 5.71875 16.179688 6.246094 16.671875 6.214844 16.722656 C 6.203125 16.746094 6.152344 16.808594 6.101562 16.871094 L 6.007812 16.976562 L 5.863281 16.847656 C 5.789062 16.777344 5.644531 16.648438 5.550781 16.566406 C 5.460938 16.480469 5.132812 16.195312 4.824219 15.925781 C 4.519531 15.65625 4.253906 15.425781 4.230469 15.40625 C 4.121094 15.300781 3.640625 14.875 3.527344 14.777344 C 3.453125 14.714844 3.332031 14.609375 3.257812 14.542969 C 3.183594 14.472656 3.070312 14.375 3.011719 14.320312 L 2.894531 14.222656 L 2.902344 11.09375 C 2.902344 9.046875 2.914062 7.929688 2.9375 7.871094 C 3.039062 7.597656 3.359375 7.457031 3.632812 7.5625 Z M 19.539062 7.964844 C 19.589844 8.152344 19.746094 8.320312 19.945312 8.394531 L 20.117188 8.457031 L 19.972656 8.5 C 19.773438 8.5625 19.585938 8.765625 19.53125 8.964844 L 19.496094 9.125 L 19.433594 8.945312 C 19.359375 8.714844 19.226562 8.582031 18.996094 8.503906 C 18.820312 8.441406 18.816406 8.441406 18.914062 8.417969 C 18.972656 8.40625 19.085938 8.355469 19.171875 8.3125 C 19.324219 8.230469 19.390625 8.132812 19.453125 7.902344 C 19.484375 7.796875 19.5 7.808594 19.539062 7.964844 Z M 22.035156 8.039062 C 22.484375 8.230469 22.746094 8.75 22.628906 9.210938 C 22.539062 9.5625 22.378906 9.757812 22.0625 9.90625 C 21.902344 9.980469 21.832031 9.988281 21.625 9.980469 L 21.378906 9.972656 L 21.246094 10.175781 C 21.0625 10.453125 20.371094 11.136719 19.945312 11.460938 C 18.929688 12.230469 17.671875 13.019531 16.601562 13.5625 C 16.054688 13.84375 16.0625 13.839844 16.0625 13.652344 C 16.0625 13.460938 16.082031 13.441406 16.609375 13.148438 C 17.046875 12.902344 17.453125 12.664062 17.648438 12.535156 C 19.722656 11.203125 20.253906 10.792969 20.835938 10.0625 L 21.03125 9.8125 L 20.914062 9.691406 C 20.707031 9.476562 20.636719 9.300781 20.636719 8.992188 C 20.636719 8.601562 20.78125 8.324219 21.09375 8.09375 C 21.324219 7.933594 21.730469 7.90625 22.035156 8.039062 Z M 18.886719 9.402344 C 19.625 9.75 19.671875 10.832031 18.972656 11.214844 C 18.742188 11.339844 18.507812 11.382812 18.289062 11.34375 L 18.117188 11.316406 L 17.691406 11.742188 C 17.453125 11.980469 17.175781 12.238281 17.074219 12.324219 C 16.90625 12.460938 16.457031 12.757812 16.414062 12.757812 C 16.402344 12.757812 16.445312 12.6875 16.5 12.609375 C 16.554688 12.523438 16.601562 12.445312 16.601562 12.433594 C 16.601562 12.339844 16.972656 11.894531 17.34375 11.542969 L 17.78125 11.125 L 17.648438 10.945312 C 17.359375 10.535156 17.390625 10 17.738281 9.621094 C 17.882812 9.457031 17.980469 9.402344 18.230469 9.332031 C 18.449219 9.269531 18.65625 9.292969 18.886719 9.402344 Z M 0.800781 10.339844 C 0.992188 10.503906 0.882812 10.832031 0.625 10.882812 C 0.402344 10.929688 0.1875 10.664062 0.273438 10.449219 C 0.359375 10.25 0.625 10.191406 0.800781 10.339844 Z M 23.347656 11.046875 C 23.417969 11.15625 23.644531 11.300781 23.761719 11.308594 C 23.789062 11.308594 23.734375 11.34375 23.640625 11.386719 C 23.433594 11.480469 23.367188 11.550781 23.285156 11.765625 C 23.246094 11.859375 23.21875 11.898438 23.21875 11.859375 C 23.21875 11.730469 23.019531 11.484375 22.863281 11.410156 C 22.777344 11.367188 22.683594 11.339844 22.652344 11.335938 C 22.621094 11.335938 22.660156 11.308594 22.746094 11.28125 C 22.972656 11.203125 23.101562 11.089844 23.167969 10.910156 C 23.226562 10.761719 23.230469 10.757812 23.253906 10.84375 C 23.269531 10.894531 23.3125 10.984375 23.347656 11.046875 Z M 4.484375 11.152344 C 4.824219 11.324219 4.886719 11.765625 4.609375 12.007812 C 4.441406 12.152344 4.257812 12.175781 4.058594 12.074219 C 3.855469 11.976562 3.773438 11.859375 3.757812 11.652344 C 3.742188 11.519531 3.757812 11.46875 3.820312 11.371094 C 3.988281 11.125 4.261719 11.035156 4.484375 11.152344 Z M 15.621094 11.257812 C 15.660156 11.324219 15.722656 11.386719 15.757812 11.394531 C 15.851562 11.417969 15.84375 11.453125 15.742188 11.5 C 15.695312 11.519531 15.632812 11.589844 15.601562 11.65625 L 15.546875 11.773438 L 15.492188 11.664062 C 15.460938 11.609375 15.390625 11.527344 15.335938 11.488281 L 15.226562 11.417969 L 15.324219 11.382812 C 15.378906 11.363281 15.449219 11.296875 15.480469 11.242188 C 15.511719 11.183594 15.542969 11.136719 15.546875 11.136719 C 15.546875 11.136719 15.582031 11.191406 15.621094 11.257812 Z M 21.792969 11.402344 C 22.011719 11.515625 22.191406 11.695312 22.296875 11.90625 C 22.375 12.070312 22.390625 12.136719 22.390625 12.382812 C 22.386719 12.613281 22.375 12.703125 22.3125 12.8125 C 22.085938 13.25 21.667969 13.472656 21.214844 13.398438 C 20.980469 13.359375 20.839844 13.289062 20.664062 13.121094 L 20.523438 12.984375 L 20.125 13.144531 C 19.65625 13.328125 19.078125 13.617188 18.769531 13.808594 L 18.554688 13.945312 L 18.433594 13.824219 C 18.285156 13.675781 18.289062 13.671875 18.667969 13.425781 C 19.003906 13.210938 19.625 12.910156 20.046875 12.757812 L 20.367188 12.640625 L 20.355469 12.445312 C 20.316406 11.953125 20.589844 11.523438 21.039062 11.363281 C 21.261719 11.285156 21.59375 11.300781 21.792969 11.402344 Z M 15.242188 12.261719 C 15.457031 12.382812 15.671875 12.65625 15.746094 12.917969 C 15.855469 13.277344 15.738281 13.65625 15.445312 13.925781 C 15.183594 14.167969 14.855469 14.253906 14.523438 14.164062 L 14.351562 14.121094 L 14.144531 14.347656 C 13.535156 15.03125 13.035156 15.34375 11.863281 15.78125 C 11.105469 16.070312 11.125 16.066406 11.019531 15.886719 C 10.960938 15.78125 10.945312 15.738281 10.976562 15.722656 C 11 15.707031 11.269531 15.605469 11.574219 15.488281 C 12.738281 15.050781 13.304688 14.707031 13.816406 14.128906 L 14.003906 13.914062 L 13.875 13.667969 C 13.769531 13.449219 13.75 13.394531 13.75 13.179688 C 13.75 12.71875 14.003906 12.355469 14.433594 12.195312 C 14.640625 12.117188 15.035156 12.152344 15.242188 12.261719 Z M 3.875 12.394531 C 3.964844 12.480469 3.964844 12.511719 3.878906 12.621094 C 3.824219 12.691406 3.8125 12.757812 3.8125 13.078125 L 3.8125 13.457031 L 3.976562 13.585938 C 4.0625 13.65625 4.292969 13.855469 4.488281 14.023438 C 4.683594 14.195312 5.085938 14.542969 5.382812 14.800781 C 5.9375 15.285156 6.699219 15.917969 7.539062 16.597656 C 7.800781 16.8125 8.273438 17.199219 8.589844 17.464844 C 8.90625 17.722656 9.457031 18.183594 9.816406 18.476562 C 10.734375 19.234375 11.121094 19.554688 11.640625 19.988281 C 11.890625 20.195312 12.304688 20.535156 12.554688 20.738281 C 13.285156 21.34375 13.617188 21.726562 13.945312 22.339844 C 14.089844 22.605469 14.269531 23.089844 14.324219 23.34375 C 14.347656 23.453125 14.359375 23.445312 13.949219 23.570312 C 13.929688 23.578125 13.863281 23.449219 13.800781 23.292969 C 13.535156 22.578125 13.167969 22 12.71875 21.582031 C 12.480469 21.359375 10.820312 19.960938 9.773438 19.101562 C 9.492188 18.875 9.15625 18.59375 9.023438 18.480469 C 8.890625 18.363281 8.539062 18.066406 8.234375 17.816406 C 7.929688 17.566406 7.535156 17.234375 7.355469 17.074219 C 7.179688 16.921875 6.980469 16.746094 6.917969 16.6875 C 6.855469 16.632812 6.730469 16.523438 6.648438 16.449219 C 6.503906 16.3125 5.4375 15.375 4.09375 14.195312 C 3.738281 13.886719 3.4375 13.597656 3.429688 13.554688 C 3.390625 13.421875 3.410156 12.722656 3.449219 12.644531 C 3.527344 12.496094 3.71875 12.285156 3.757812 12.308594 C 3.78125 12.316406 3.832031 12.359375 3.875 12.394531 Z M 20.878906 13.972656 C 20.9375 13.996094 20.988281 14.027344 20.988281 14.039062 C 20.988281 14.046875 20.9375 14.078125 20.878906 14.109375 C 20.816406 14.140625 20.742188 14.214844 20.707031 14.289062 L 20.644531 14.414062 L 20.589844 14.300781 C 20.558594 14.242188 20.476562 14.152344 20.410156 14.109375 L 20.28125 14.027344 L 20.414062 13.96875 C 20.511719 13.925781 20.554688 13.875 20.589844 13.789062 L 20.632812 13.667969 L 20.699219 13.796875 C 20.738281 13.863281 20.820312 13.945312 20.878906 13.972656 Z M 18.296875 13.941406 C 18.671875 14.132812 18.863281 14.417969 18.890625 14.835938 C 18.90625 15.054688 18.898438 15.101562 18.804688 15.292969 C 18.679688 15.554688 18.574219 15.664062 18.347656 15.78125 C 18.125 15.894531 17.753906 15.910156 17.503906 15.816406 L 17.34375 15.753906 L 17.101562 15.980469 C 16.625 16.429688 16.078125 16.734375 14.976562 17.15625 C 14.109375 17.492188 13.851562 17.589844 13.421875 17.773438 L 13.054688 17.929688 L 12.914062 17.789062 C 12.839844 17.714844 12.78125 17.644531 12.789062 17.640625 C 12.867188 17.582031 14.242188 17.019531 15.066406 16.703125 C 15.855469 16.410156 16.53125 16.019531 16.878906 15.667969 L 17.042969 15.507812 L 16.957031 15.304688 C 16.816406 14.957031 16.863281 14.542969 17.070312 14.246094 C 17.171875 14.109375 17.382812 13.964844 17.609375 13.878906 C 17.777344 13.820312 18.113281 13.847656 18.296875 13.941406 Z M 22.152344 14.152344 C 22.179688 14.222656 22.246094 14.292969 22.308594 14.328125 L 22.421875 14.382812 L 22.308594 14.441406 C 22.242188 14.476562 22.175781 14.546875 22.148438 14.617188 L 22.101562 14.730469 L 22.027344 14.59375 C 21.984375 14.519531 21.902344 14.4375 21.84375 14.40625 L 21.734375 14.351562 L 21.84375 14.304688 C 21.90625 14.277344 21.980469 14.210938 22.019531 14.148438 C 22.054688 14.089844 22.089844 14.042969 22.09375 14.039062 C 22.101562 14.039062 22.125 14.089844 22.152344 14.152344 Z M 16.601562 14.609375 L 16.601562 14.808594 L 16.207031 14.949219 C 15.308594 15.273438 14.949219 15.433594 14.492188 15.710938 C 13.933594 16.050781 13.625 16.1875 12.609375 16.554688 L 11.828125 16.835938 L 11.703125 16.695312 C 11.632812 16.617188 11.574219 16.546875 11.574219 16.535156 C 11.574219 16.523438 11.84375 16.421875 12.175781 16.300781 C 13.289062 15.90625 13.773438 15.699219 14.15625 15.46875 C 14.691406 15.148438 15.097656 14.949219 15.675781 14.738281 C 16.070312 14.59375 16.472656 14.449219 16.597656 14.414062 C 16.597656 14.410156 16.601562 14.5 16.601562 14.609375 Z M 3.0625 14.972656 C 3.605469 15.410156 5.808594 17.367188 5.804688 17.410156 C 5.800781 17.417969 5.75 17.488281 5.6875 17.5625 L 5.570312 17.691406 L 4.871094 17.070312 C 4.023438 16.316406 3.871094 16.183594 3.308594 15.695312 L 2.867188 15.3125 L 2.867188 15.082031 C 2.867188 14.953125 2.878906 14.847656 2.886719 14.847656 C 2.898438 14.847656 2.980469 14.90625 3.0625 14.972656 Z M 21.375 14.996094 C 21.960938 15.171875 22.277344 15.855469 22.027344 16.402344 C 21.917969 16.648438 21.804688 16.773438 21.589844 16.890625 C 21.433594 16.980469 21.382812 16.992188 21.125 16.992188 C 20.878906 16.992188 20.8125 16.976562 20.664062 16.898438 C 20.566406 16.847656 20.429688 16.738281 20.359375 16.652344 C 20.207031 16.472656 20.238281 16.46875 19.453125 16.671875 C 18.710938 16.863281 17.785156 17.167969 16.753906 17.570312 C 15.652344 18.003906 15.453125 18.097656 14.78125 18.507812 C 14.492188 18.683594 14.242188 18.832031 14.222656 18.832031 C 14.164062 18.832031 13.957031 18.640625 13.980469 18.605469 C 14.027344 18.527344 15.046875 17.882812 15.386719 17.714844 C 15.789062 17.515625 17.3125 16.925781 18.132812 16.652344 C 18.929688 16.390625 19.429688 16.253906 19.84375 16.183594 C 20.007812 16.15625 20.09375 16.128906 20.085938 16.101562 C 20.070312 16.011719 20.144531 15.640625 20.21875 15.507812 C 20.441406 15.074219 20.921875 14.863281 21.375 14.996094 Z M 16.28125 15.621094 C 16.179688 15.707031 15.527344 16.113281 15.371094 16.183594 C 15.167969 16.273438 14.519531 16.5 14.472656 16.5 C 14.457031 16.5 14.546875 16.410156 14.675781 16.300781 C 14.804688 16.1875 14.921875 16.078125 14.9375 16.058594 C 14.976562 15.988281 15.359375 15.761719 15.523438 15.707031 C 15.613281 15.679688 15.8125 15.640625 15.96875 15.628906 C 16.125 15.609375 16.261719 15.597656 16.28125 15.59375 C 16.300781 15.59375 16.300781 15.601562 16.28125 15.621094 Z M 6.875 17.183594 C 6.933594 17.226562 6.984375 17.269531 6.984375 17.28125 C 6.984375 17.292969 6.929688 17.363281 6.863281 17.441406 C 6.730469 17.59375 6.734375 17.621094 6.914062 17.769531 L 7.027344 17.863281 L 7.140625 17.738281 L 7.253906 17.609375 L 7.371094 17.703125 C 7.46875 17.78125 7.480469 17.808594 7.449219 17.855469 C 7.375 17.957031 6.589844 18.84375 6.46875 18.957031 L 6.351562 19.074219 L 6.15625 18.894531 C 6.042969 18.796875 5.875 18.644531 5.777344 18.554688 L 5.597656 18.382812 L 5.792969 18.160156 C 6.238281 17.648438 6.726562 17.109375 6.742188 17.109375 C 6.753906 17.109375 6.8125 17.144531 6.875 17.183594 Z M 20.589844 17.402344 C 20.617188 17.441406 20.71875 17.515625 20.8125 17.558594 L 20.988281 17.640625 L 20.886719 17.664062 C 20.707031 17.695312 20.558594 17.835938 20.507812 18.011719 L 20.464844 18.160156 L 20.40625 18.011719 C 20.332031 17.820312 20.226562 17.722656 20.042969 17.667969 L 19.898438 17.625 L 20.027344 17.582031 C 20.234375 17.515625 20.304688 17.457031 20.386719 17.285156 L 20.464844 17.128906 L 20.496094 17.230469 C 20.515625 17.285156 20.558594 17.367188 20.589844 17.402344 Z M 18.28125 17.726562 C 18.695312 17.941406 18.945312 18.425781 18.867188 18.851562 C 18.6875 19.820312 17.402344 20.003906 16.953125 19.128906 C 16.921875 19.066406 16.894531 19.011719 16.890625 19.003906 C 16.871094 18.980469 15.78125 19.109375 15.355469 19.183594 C 15.105469 19.226562 14.894531 19.261719 14.886719 19.253906 C 14.855469 19.21875 15.164062 18.898438 15.289062 18.839844 C 15.457031 18.761719 15.984375 18.675781 16.496094 18.640625 C 16.703125 18.628906 16.847656 18.605469 16.855469 18.582031 C 16.859375 18.558594 16.878906 18.46875 16.902344 18.378906 C 16.976562 18.070312 17.214844 17.816406 17.539062 17.695312 C 17.707031 17.632812 18.136719 17.652344 18.28125 17.726562 Z M 8.21875 18.382812 L 8.328125 18.472656 L 8.214844 18.609375 C 8.148438 18.683594 8.097656 18.75 8.097656 18.761719 C 8.097656 18.773438 8.160156 18.84375 8.234375 18.914062 L 8.367188 19.046875 L 8.5 18.917969 L 8.636719 18.785156 L 8.871094 18.996094 L 8.796875 19.089844 C 8.632812 19.304688 7.648438 20.449219 7.628906 20.449219 C 7.621094 20.449219 7.429688 20.292969 7.214844 20.109375 C 6.945312 19.875 6.828125 19.753906 6.84375 19.722656 C 6.855469 19.699219 7.074219 19.441406 7.324219 19.148438 C 7.574219 18.855469 7.839844 18.542969 7.914062 18.457031 C 7.988281 18.367188 8.0625 18.292969 8.074219 18.292969 C 8.089844 18.289062 8.152344 18.332031 8.21875 18.382812 Z M 10.933594 18.628906 C 11.367188 18.867188 11.773438 19.140625 12.332031 19.570312 C 12.699219 19.855469 12.984375 20.070312 13.71875 20.617188 C 14.421875 21.148438 14.933594 21.738281 15.285156 22.433594 C 15.410156 22.683594 15.566406 23.058594 15.546875 23.0625 C 15.542969 23.066406 15.46875 23.089844 15.382812 23.121094 L 15.226562 23.171875 L 15.039062 22.792969 C 14.609375 21.910156 14.25 21.507812 13.152344 20.675781 C 12.449219 20.140625 11.46875 19.351562 11.136719 19.054688 C 10.835938 18.78125 10.375 18.3125 10.460938 18.363281 C 10.507812 18.390625 10.722656 18.507812 10.933594 18.628906 Z M 12.753906 19.164062 C 13.246094 19.328125 13.320312 19.375 14.390625 20.15625 C 14.886719 20.523438 15.351562 20.964844 15.660156 21.378906 C 15.878906 21.671875 16.332031 22.539062 16.34375 22.695312 C 16.351562 22.78125 16.335938 22.796875 16.199219 22.835938 C 16.117188 22.859375 16.035156 22.867188 16.023438 22.851562 C 16.007812 22.839844 15.957031 22.734375 15.914062 22.621094 C 15.871094 22.503906 15.75 22.269531 15.644531 22.09375 C 15.246094 21.417969 14.875 21.011719 14.148438 20.449219 C 13.945312 20.292969 13.503906 19.953125 13.175781 19.699219 C 12.523438 19.203125 12.300781 19.011719 12.390625 19.042969 C 12.421875 19.054688 12.585938 19.109375 12.753906 19.164062 Z M 9.628906 19.523438 C 9.679688 19.566406 9.71875 19.609375 9.71875 19.621094 C 9.71875 19.625 9.664062 19.699219 9.601562 19.777344 L 9.480469 19.921875 L 9.574219 20.019531 C 9.742188 20.195312 9.777344 20.199219 9.914062 20.046875 L 10.039062 19.910156 L 10.152344 20.011719 C 10.285156 20.136719 10.28125 20.140625 9.945312 20.53125 C 9.808594 20.683594 9.546875 20.996094 9.355469 21.222656 L 9.007812 21.632812 L 8.796875 21.457031 C 8.683594 21.359375 8.496094 21.191406 8.390625 21.085938 L 8.191406 20.894531 L 8.558594 20.480469 C 8.765625 20.25 9.046875 19.921875 9.191406 19.746094 C 9.335938 19.578125 9.476562 19.4375 9.496094 19.4375 C 9.515625 19.4375 9.574219 19.476562 9.628906 19.523438 Z M 11.015625 20.683594 C 11.074219 20.75 11.074219 20.753906 10.945312 20.910156 L 10.820312 21.066406 L 10.949219 21.183594 C 11.019531 21.242188 11.097656 21.292969 11.121094 21.292969 C 11.144531 21.292969 11.203125 21.234375 11.257812 21.164062 C 11.308594 21.097656 11.355469 21.035156 11.363281 21.027344 C 11.367188 21.015625 11.425781 21.0625 11.492188 21.125 L 11.609375 21.238281 L 11.515625 21.359375 C 11.46875 21.425781 11.417969 21.484375 11.40625 21.496094 C 11.394531 21.507812 11.183594 21.75 10.9375 22.035156 C 10.6875 22.324219 10.476562 22.5625 10.457031 22.570312 C 10.445312 22.574219 10.265625 22.433594 10.058594 22.253906 C 9.804688 22.03125 9.691406 21.914062 9.710938 21.882812 C 9.726562 21.859375 9.980469 21.550781 10.285156 21.195312 C 10.871094 20.511719 10.863281 20.515625 11.015625 20.683594 Z M 18.15625 21.085938 C 18.375 21.246094 18.457031 21.570312 18.339844 21.800781 C 18.226562 22.023438 17.84375 22.117188 17.609375 21.980469 C 17.390625 21.851562 17.292969 21.554688 17.390625 21.316406 C 17.511719 21.03125 17.910156 20.914062 18.15625 21.085938 Z M 12.078125 21.609375 C 12.125 21.660156 12.144531 21.710938 12.128906 21.738281 C 12.078125 21.832031 11.597656 22.40625 11.578125 22.40625 C 11.566406 22.40625 11.511719 22.363281 11.457031 22.304688 L 11.363281 22.207031 L 11.457031 22.078125 C 11.640625 21.835938 11.921875 21.53125 11.960938 21.53125 C 11.984375 21.53125 12.039062 21.566406 12.078125 21.609375 Z M 12.078125 21.609375 "/>
<path style=" stroke:none;fill-rule:nonzero;fill:rgb(0%,0%,0%);fill-opacity:1;" d="M 21.367188 8.570312 C 21.164062 8.691406 21.09375 9.023438 21.226562 9.234375 C 21.363281 9.464844 21.605469 9.53125 21.847656 9.417969 C 22.203125 9.242188 22.21875 8.738281 21.867188 8.554688 C 21.730469 8.484375 21.5 8.492188 21.367188 8.570312 Z M 21.367188 8.570312 "/>
<path style=" stroke:none;fill-rule:nonzero;fill:rgb(0%,0%,0%);fill-opacity:1;" d="M 18.203125 9.917969 C 18.074219 9.996094 17.988281 10.175781 17.988281 10.359375 C 17.988281 10.851562 18.632812 11.007812 18.878906 10.578125 C 18.929688 10.5 18.964844 10.402344 18.964844 10.355469 C 18.960938 10.214844 18.839844 9.992188 18.722656 9.921875 C 18.582031 9.832031 18.339844 9.832031 18.203125 9.917969 Z M 18.203125 9.917969 "/>
<path style=" stroke:none;fill-rule:nonzero;fill:rgb(0%,0%,0%);fill-opacity:1;" d="M 21.167969 11.910156 C 20.796875 12.082031 20.796875 12.65625 21.167969 12.835938 C 21.332031 12.910156 21.457031 12.90625 21.609375 12.8125 C 21.785156 12.707031 21.867188 12.570312 21.867188 12.382812 C 21.867188 12.011719 21.496094 11.757812 21.167969 11.910156 Z M 21.167969 11.910156 "/>
<path style=" stroke:none;fill-rule:nonzero;fill:rgb(0%,0%,0%);fill-opacity:1;" d="M 14.5625 12.71875 C 14.46875 12.757812 14.351562 12.890625 14.3125 13.003906 C 14.234375 13.207031 14.285156 13.402344 14.457031 13.5625 C 14.578125 13.675781 14.855469 13.699219 15.011719 13.601562 C 15.300781 13.417969 15.332031 13.03125 15.070312 12.792969 C 14.976562 12.707031 14.691406 12.660156 14.5625 12.71875 Z M 14.5625 12.71875 "/>
<path style=" stroke:none;fill-rule:nonzero;fill:rgb(0%,0%,0%);fill-opacity:1;" d="M 17.738281 14.410156 C 17.449219 14.496094 17.316406 14.878906 17.480469 15.144531 C 17.566406 15.285156 17.8125 15.402344 17.945312 15.371094 C 18.234375 15.308594 18.425781 15.035156 18.359375 14.785156 C 18.308594 14.601562 18.175781 14.453125 18.027344 14.410156 C 17.886719 14.371094 17.867188 14.371094 17.738281 14.410156 Z M 17.738281 14.410156 "/>
<path style=" stroke:none;fill-rule:nonzero;fill:rgb(0%,0%,0%);fill-opacity:1;" d="M 20.902344 15.554688 C 20.75 15.625 20.617188 15.832031 20.617188 16.007812 C 20.617188 16.164062 20.75 16.359375 20.90625 16.433594 C 21.078125 16.519531 21.136719 16.519531 21.316406 16.4375 C 21.472656 16.367188 21.597656 16.175781 21.597656 16.007812 C 21.597656 15.835938 21.46875 15.632812 21.3125 15.558594 C 21.136719 15.472656 21.082031 15.472656 20.902344 15.554688 Z M 20.902344 15.554688 "/>
<path style=" stroke:none;fill-rule:nonzero;fill:rgb(0%,0%,0%);fill-opacity:1;" d="M 17.613281 18.265625 C 17.480469 18.355469 17.378906 18.53125 17.378906 18.679688 C 17.378906 18.824219 17.480469 19.003906 17.613281 19.089844 C 17.84375 19.246094 18.160156 19.15625 18.292969 18.898438 C 18.378906 18.742188 18.375 18.609375 18.28125 18.441406 C 18.144531 18.199219 17.835938 18.117188 17.613281 18.265625 Z M 17.613281 18.265625 "/>
</g>
</svg>
