<svg width="131" height="122" viewBox="0 0 131 122" fill="none" xmlns="http://www.w3.org/2000/svg">
<path d="M8 114.54L4.18541 113.336C3.7549 114.701 4.08579 116.191 5.05319 117.245C6.02059 118.299 7.4772 118.756 8.8733 118.443L8 114.54ZM42.881 4V0C41.1356 0 39.5917 1.13177 39.0664 2.7963L42.881 4ZM126.375 88.057L127.248 91.9605C129.076 91.5517 130.375 89.9297 130.375 88.057L126.375 88.057ZM126.375 4L130.375 4C130.375 1.79086 128.584 0 126.375 0V4ZM11.8146 115.744L46.6956 5.2037L39.0664 2.7963L4.18541 113.336L11.8146 115.744ZM125.502 84.1535L7.1267 110.636L8.8733 118.443L127.248 91.9605L125.502 84.1535ZM130.375 88.057L130.375 4L122.375 4L122.375 88.057L130.375 88.057ZM42.881 8H126.375V0H42.881V8Z" fill="black"/>
<path fill-rule="evenodd" clip-rule="evenodd" d="M50.5951 40.9128L50.595 40.9129L50.5948 40.9141L50.5948 40.9142C50.4132 41.8012 50.2349 42.6717 50.0602 43.5268C52.8143 38.0811 56.7641 32.6375 62.5 27.5C76.8504 14.6467 103.535 22.1996 103.535 22.1996C103.535 22.1996 107.164 45.1996 96.7962 65.6996C91.8814 71.3575 86.3363 74.8641 80.5609 77.0518C90.1536 74.9626 100.424 71.7084 112.255 66.7401C95.8977 83.9237 80.3933 85.4437 63.387 87.1109H63.387C53.7207 88.0586 43.5692 89.0538 32.5 93C35.9293 82.3691 37.8298 71.7383 39.6337 61.6479C42.7254 44.3535 45.5333 28.647 55.2683 17.2499C53.5608 26.4278 51.9795 34.1509 50.5951 40.9128ZM93.6937 32.6247C93.6937 32.6247 82.373 30.4079 72.5267 32.5993C62.245 34.8876 56.1406 41.8559 52.8508 51.3191C54.1097 49.3215 55.8301 47.2897 58.059 45.2615C58.059 45.2615 68.364 35.8842 86.8457 39.5494C90.1412 57.0337 79.8363 66.4109 79.8363 66.4109C78.2917 67.8164 76.7533 68.9924 75.2339 69.954C84.4498 67.0742 90.7957 61.6386 93.2641 48.6976C95.5008 36.971 93.6937 32.6247 93.6937 32.6247ZM73.5962 64.4081C72.0789 65.7887 70.5873 66.8687 69.1434 67.6745C68.1125 65.2792 66.4473 62.8563 64.2045 60.6782C61.7445 58.2892 58.949 56.5434 56.1973 55.5229C57.1191 54.1121 58.3707 52.659 59.9854 51.1897C59.9854 51.1897 67.1749 44.6474 79.2778 46.436C80.7857 57.8658 73.5962 64.4081 73.5962 64.4081ZM58.6723 66.7264C55.5097 63.5638 50.7195 63.2265 47.973 65.973C45.2265 68.7195 45.5638 73.5097 48.7264 76.6723C51.889 79.835 56.6793 80.1723 59.4258 77.4258C62.1723 74.6793 61.835 69.889 58.6723 66.7264Z" fill="black"/>
</svg>
