<svg xmlns="http://www.w3.org/2000/svg" xmlns:xlink="http://www.w3.org/1999/xlink" width="24px" height="24px" viewBox="-3 -3 30 30" version="1.1" transform="matrix(1, 0, 0, 1, 0, 0)"><g id="deeditor_bgCarrier" stroke-width="0">
    <rect id="dee_c_e" x="-3" y="-3" width="30" height="30" rx="0" fill="#010101" strokewidth="0"/>
  </g>
<g id="surface1">
<path style=" stroke:none;fill-rule:nonzero;fill:#ffffff;fill-opacity:1;" d="M 0 12 L 0 24 L 24 24 L 24 0 L 0 0 Z M 12.007812 4.300781 C 12.195312 4.378906 12.332031 4.609375 12.292969 4.785156 C 12.25 4.996094 12.101562 5.136719 11.894531 5.15625 L 11.78125 5.167969 L 11.703125 5.355469 C 11.664062 5.457031 11.539062 5.761719 11.429688 6.035156 C 11.234375 6.519531 11.082031 6.945312 11.054688 7.09375 L 11.042969 7.171875 L 11.234375 7.171875 C 11.59375 7.171875 11.976562 7.277344 12.300781 7.46875 C 12.5 7.585938 12.832031 7.902344 12.96875 8.109375 C 13.105469 8.308594 13.1875 8.488281 13.3125 8.847656 C 13.480469 9.332031 13.511719 9.375 14.117188 9.921875 C 14.476562 10.246094 14.6875 10.578125 14.742188 10.902344 C 14.78125 11.136719 14.769531 11.148438 14.609375 11 C 14.234375 10.648438 13.535156 10.308594 12.878906 10.15625 L 12.738281 10.125 L 13.039062 10.132812 C 13.328125 10.140625 13.339844 10.136719 13.261719 10.105469 C 13.214844 10.082031 13.089844 10.0625 12.925781 10.058594 C 12.652344 10.050781 12.535156 10.074219 12.023438 10.234375 C 11.609375 10.359375 11.199219 10.332031 10.894531 10.152344 C 10.410156 9.863281 10.105469 9.152344 10.191406 8.488281 C 10.207031 8.375 10.226562 8.277344 10.238281 8.265625 C 10.253906 8.253906 10.289062 8.265625 10.332031 8.292969 C 10.441406 8.371094 10.730469 8.503906 10.882812 8.539062 C 10.957031 8.5625 11.132812 8.585938 11.269531 8.601562 C 11.613281 8.636719 11.792969 8.699219 11.921875 8.828125 C 12.007812 8.914062 12.230469 9.296875 12.203125 9.320312 C 12.171875 9.355469 11.78125 9.445312 11.671875 9.445312 C 11.496094 9.445312 11.3125 9.355469 11.21875 9.21875 C 11.152344 9.125 11.101562 8.890625 11.132812 8.835938 C 11.140625 8.820312 11.1875 8.804688 11.234375 8.796875 C 11.308594 8.785156 11.316406 8.789062 11.304688 8.820312 C 11.300781 8.839844 11.304688 8.910156 11.320312 8.976562 C 11.375 9.207031 11.613281 9.296875 11.796875 9.15625 C 11.945312 9.042969 11.9375 8.863281 11.785156 8.761719 C 11.710938 8.71875 11.683594 8.714844 11.285156 8.734375 C 10.929688 8.746094 10.847656 8.742188 10.773438 8.710938 C 10.671875 8.667969 10.664062 8.679688 10.746094 8.746094 C 10.78125 8.773438 10.820312 8.84375 10.84375 8.925781 C 10.898438 9.125 11.007812 9.316406 11.136719 9.4375 C 11.335938 9.621094 11.574219 9.699219 12.066406 9.75 C 12.425781 9.785156 12.652344 9.828125 13.066406 9.949219 C 13.507812 10.078125 13.75 10.164062 13.835938 10.226562 L 13.90625 10.273438 L 13.859375 10.199219 C 13.800781 10.097656 13.628906 9.96875 13.363281 9.828125 C 13.070312 9.675781 12.933594 9.535156 12.761719 9.183594 C 12.464844 8.59375 12.167969 8.3125 11.695312 8.1875 C 11.566406 8.152344 11.472656 8.148438 11.097656 8.15625 C 10.285156 8.175781 9.988281 8.167969 9.828125 8.113281 C 9.746094 8.089844 9.679688 8.074219 9.679688 8.082031 C 9.679688 8.089844 9.703125 8.117188 9.730469 8.148438 C 9.777344 8.199219 9.777344 8.203125 9.742188 8.371094 C 9.679688 8.632812 9.667969 8.933594 9.710938 9.175781 C 9.730469 9.289062 9.746094 9.390625 9.742188 9.394531 C 9.722656 9.40625 9.605469 9.054688 9.589844 8.941406 C 9.570312 8.839844 9.566406 8.851562 9.566406 9.058594 C 9.558594 9.519531 9.71875 9.882812 10.078125 10.246094 L 10.304688 10.46875 L 10.214844 10.585938 C 9.878906 11.011719 9.722656 11.550781 9.722656 12.269531 C 9.726562 13.039062 9.980469 13.867188 10.472656 14.683594 C 10.785156 15.203125 11.414062 15.890625 12.011719 16.363281 C 12.691406 16.898438 13.046875 17.152344 13.265625 17.257812 C 13.503906 17.371094 13.855469 17.597656 14.117188 17.808594 C 14.375 18.011719 14.574219 18.207031 14.8125 18.496094 C 14.933594 18.640625 15.097656 18.824219 15.171875 18.90625 C 15.242188 18.988281 15.304688 19.066406 15.304688 19.082031 C 15.304688 19.125 15.003906 19.085938 14.945312 19.039062 C 14.921875 19.015625 14.816406 18.898438 14.710938 18.785156 C 14.230469 18.242188 13.96875 18.003906 13.5 17.679688 C 13.351562 17.582031 13.128906 17.398438 13.007812 17.285156 L 12.785156 17.070312 L 12.554688 17.007812 C 11.484375 16.703125 10.441406 16.230469 9.617188 15.675781 C 8.734375 15.078125 8.082031 14.382812 7.71875 13.652344 C 7.179688 12.578125 7.15625 11.316406 7.65625 10.089844 C 7.949219 9.375 8.410156 8.6875 8.945312 8.183594 C 9.167969 7.96875 9.472656 7.71875 9.558594 7.679688 C 9.585938 7.667969 9.609375 7.648438 9.609375 7.640625 C 9.609375 7.632812 9.507812 7.554688 9.382812 7.46875 C 9.074219 7.25 8.703125 6.886719 8.453125 6.550781 L 8.242188 6.269531 L 8.128906 6.277344 C 7.824219 6.300781 7.574219 5.984375 7.664062 5.707031 C 7.71875 5.542969 7.882812 5.398438 8.027344 5.390625 C 8.171875 5.382812 8.222656 5.394531 8.324219 5.460938 C 8.523438 5.59375 8.59375 5.828125 8.5 6.039062 L 8.457031 6.136719 L 8.511719 6.226562 C 8.617188 6.394531 9.019531 6.859375 9.203125 7.023438 C 9.304688 7.109375 9.488281 7.261719 9.613281 7.351562 L 9.84375 7.523438 L 9.929688 7.472656 C 9.980469 7.445312 10.023438 7.421875 10.027344 7.417969 C 10.027344 7.414062 9.972656 7.320312 9.898438 7.203125 C 9.59375 6.71875 9.375 6.195312 9.25 5.644531 C 9.238281 5.59375 9.214844 5.578125 9.144531 5.5625 C 8.917969 5.523438 8.765625 5.347656 8.765625 5.121094 C 8.765625 4.871094 8.960938 4.683594 9.214844 4.683594 C 9.460938 4.683594 9.65625 4.886719 9.65625 5.128906 C 9.65625 5.265625 9.59375 5.414062 9.511719 5.46875 L 9.457031 5.507812 L 9.507812 5.703125 C 9.636719 6.195312 9.898438 6.808594 10.132812 7.164062 L 10.246094 7.328125 L 10.328125 7.304688 C 10.394531 7.28125 10.40625 7.269531 10.398438 7.226562 C 10.328125 6.953125 10.324219 5.972656 10.390625 5.453125 L 10.421875 5.222656 L 10.324219 5.183594 C 10.105469 5.082031 10 4.875 10.054688 4.660156 C 10.097656 4.507812 10.164062 4.429688 10.308594 4.363281 C 10.429688 4.308594 10.449219 4.308594 10.566406 4.332031 C 10.878906 4.398438 11.03125 4.695312 10.902344 4.984375 C 10.859375 5.074219 10.726562 5.203125 10.671875 5.203125 C 10.625 5.203125 10.582031 5.839844 10.582031 6.519531 C 10.582031 6.886719 10.589844 7.199219 10.597656 7.210938 C 10.609375 7.21875 10.660156 7.214844 10.714844 7.203125 L 10.8125 7.183594 L 10.84375 7.023438 C 10.894531 6.777344 11.015625 6.433594 11.300781 5.726562 L 11.558594 5.089844 L 11.480469 4.992188 C 11.347656 4.824219 11.363281 4.554688 11.515625 4.402344 C 11.652344 4.269531 11.835938 4.226562 12.007812 4.300781 Z M 5.5 7.636719 C 5.59375 7.710938 5.644531 7.820312 5.648438 7.941406 C 5.652344 8.207031 5.386719 8.382812 5.152344 8.277344 C 4.847656 8.144531 4.8125 7.75 5.089844 7.609375 C 5.199219 7.550781 5.410156 7.566406 5.5 7.636719 Z M 18.40625 8.179688 C 18.484375 8.300781 18.644531 8.398438 18.804688 8.4375 C 18.976562 8.476562 19.015625 8.503906 18.910156 8.507812 C 18.726562 8.507812 18.484375 8.640625 18.394531 8.785156 C 18.367188 8.832031 18.324219 8.933594 18.304688 9.007812 L 18.265625 9.148438 L 18.214844 8.980469 C 18.132812 8.707031 17.960938 8.558594 17.6875 8.519531 C 17.542969 8.5 17.53125 8.46875 17.652344 8.449219 C 17.773438 8.429688 17.972656 8.34375 18.039062 8.277344 C 18.113281 8.207031 18.179688 8.085938 18.210938 7.96875 C 18.253906 7.789062 18.261719 7.789062 18.304688 7.9375 C 18.324219 8.019531 18.371094 8.128906 18.40625 8.179688 Z M 4.9375 8.339844 C 5.070312 8.402344 5.164062 8.546875 5.164062 8.679688 C 5.160156 8.871094 5.042969 9.007812 4.847656 9.039062 L 4.765625 9.050781 L 4.753906 9.476562 C 4.734375 10.269531 4.75 14.417969 4.773438 14.433594 C 4.796875 14.449219 5.917969 15.433594 6.574219 16.011719 C 6.742188 16.160156 6.878906 16.296875 6.878906 16.316406 C 6.878906 16.332031 6.851562 16.386719 6.8125 16.425781 L 6.746094 16.503906 L 6.679688 16.449219 C 6.542969 16.335938 4.964844 14.960938 4.632812 14.667969 L 4.453125 14.503906 L 4.453125 11.675781 C 4.453125 10.046875 4.445312 8.816406 4.433594 8.773438 C 4.40625 8.6875 4.433594 8.53125 4.484375 8.449219 C 4.53125 8.378906 4.691406 8.296875 4.78125 8.296875 C 4.8125 8.296875 4.882812 8.316406 4.9375 8.339844 Z M 6.261719 8.324219 C 6.382812 8.367188 6.464844 8.433594 6.503906 8.535156 C 6.550781 8.65625 6.546875 8.730469 6.488281 8.851562 C 6.335938 9.167969 5.867188 9.089844 5.800781 8.738281 C 5.761719 8.539062 5.945312 8.316406 6.15625 8.300781 C 6.167969 8.296875 6.214844 8.308594 6.261719 8.324219 Z M 5.734375 9.050781 C 5.769531 9.0625 5.835938 9.105469 5.878906 9.148438 C 6.121094 9.382812 5.933594 9.777344 5.597656 9.746094 L 5.484375 9.734375 L 5.484375 13.542969 L 5.761719 13.789062 C 5.910156 13.925781 6.273438 14.242188 6.5625 14.496094 C 7.34375 15.183594 7.546875 15.378906 7.527344 15.410156 C 7.519531 15.425781 7.484375 15.472656 7.449219 15.511719 L 7.382812 15.589844 L 7.285156 15.5 C 7.230469 15.449219 7.132812 15.359375 7.066406 15.300781 C 7.003906 15.242188 6.777344 15.042969 6.5625 14.859375 C 6.347656 14.671875 6.171875 14.515625 6.164062 14.507812 C 6.15625 14.5 5.960938 14.328125 5.730469 14.125 C 5.5 13.917969 5.289062 13.734375 5.265625 13.710938 C 5.222656 13.671875 5.222656 13.578125 5.226562 11.5 C 5.226562 10.082031 5.234375 9.304688 5.253906 9.261719 C 5.324219 9.074219 5.546875 8.976562 5.734375 9.050781 Z M 16.910156 9.535156 C 16.953125 9.578125 17.035156 9.621094 17.089844 9.636719 L 17.183594 9.664062 L 17.066406 9.707031 C 16.917969 9.761719 16.8125 9.878906 16.777344 10.023438 L 16.75 10.132812 L 16.707031 10.011719 C 16.65625 9.851562 16.5625 9.757812 16.402344 9.703125 C 16.28125 9.660156 16.28125 9.660156 16.347656 9.640625 C 16.386719 9.636719 16.46875 9.601562 16.527344 9.570312 C 16.632812 9.511719 16.679688 9.449219 16.726562 9.285156 C 16.738281 9.230469 16.742188 9.238281 16.785156 9.34375 C 16.8125 9.414062 16.867188 9.496094 16.910156 9.535156 Z M 18.515625 9.378906 C 18.640625 9.429688 18.804688 9.585938 18.867188 9.703125 C 18.945312 9.859375 18.96875 10.035156 18.929688 10.195312 C 18.835938 10.554688 18.582031 10.746094 18.21875 10.730469 L 18.058594 10.722656 L 17.96875 10.863281 C 17.839844 11.058594 17.359375 11.53125 17.054688 11.761719 C 16.390625 12.265625 15.453125 12.855469 14.765625 13.203125 C 14.359375 13.410156 14.367188 13.410156 14.367188 13.28125 C 14.367188 13.144531 14.382812 13.132812 14.746094 12.929688 C 15.195312 12.675781 15.464844 12.511719 15.96875 12.183594 C 16.949219 11.546875 17.316406 11.242188 17.726562 10.726562 L 17.820312 10.613281 L 17.734375 10.527344 C 17.59375 10.378906 17.546875 10.257812 17.546875 10.042969 C 17.542969 9.773438 17.640625 9.578125 17.863281 9.417969 C 18.019531 9.308594 18.304688 9.289062 18.515625 9.378906 Z M 16.328125 10.328125 C 16.839844 10.570312 16.875 11.320312 16.386719 11.585938 C 16.226562 11.671875 16.0625 11.703125 15.914062 11.675781 L 15.792969 11.65625 L 15.496094 11.953125 C 15.332031 12.117188 15.140625 12.296875 15.070312 12.355469 C 14.960938 12.449219 14.644531 12.65625 14.617188 12.65625 C 14.609375 12.65625 14.667969 12.546875 14.75 12.414062 C 14.867188 12.214844 14.941406 12.125 15.214844 11.855469 C 15.394531 11.683594 15.539062 11.527344 15.539062 11.515625 C 15.539062 11.503906 15.5 11.445312 15.457031 11.382812 C 15.265625 11.113281 15.296875 10.734375 15.53125 10.480469 C 15.628906 10.367188 15.699219 10.328125 15.871094 10.277344 C 16.027344 10.234375 16.167969 10.25 16.328125 10.328125 Z M 3.765625 10.976562 C 3.898438 11.09375 3.824219 11.320312 3.644531 11.355469 C 3.488281 11.386719 3.34375 11.203125 3.402344 11.054688 C 3.460938 10.914062 3.644531 10.875 3.765625 10.976562 Z M 19.425781 11.46875 C 19.472656 11.546875 19.632812 11.644531 19.714844 11.652344 C 19.730469 11.652344 19.695312 11.675781 19.628906 11.703125 C 19.488281 11.769531 19.4375 11.820312 19.386719 11.960938 L 19.34375 12.074219 L 19.316406 11.980469 C 19.28125 11.855469 19.15625 11.734375 19.023438 11.691406 L 18.910156 11.65625 L 19.011719 11.628906 C 19.160156 11.582031 19.257812 11.5 19.304688 11.375 C 19.34375 11.269531 19.34375 11.269531 19.363281 11.328125 C 19.371094 11.363281 19.402344 11.425781 19.425781 11.46875 Z M 6.324219 11.542969 C 6.558594 11.664062 6.605469 11.96875 6.414062 12.136719 C 6.296875 12.238281 6.167969 12.253906 6.03125 12.183594 C 5.890625 12.113281 5.832031 12.03125 5.820312 11.890625 C 5.808594 11.796875 5.820312 11.761719 5.863281 11.695312 C 5.980469 11.523438 6.171875 11.460938 6.324219 11.542969 Z M 14.058594 11.613281 C 14.085938 11.65625 14.136719 11.707031 14.171875 11.722656 L 14.238281 11.746094 L 14.164062 11.777344 C 14.117188 11.796875 14.070312 11.839844 14.046875 11.890625 L 14.007812 11.972656 L 13.972656 11.898438 C 13.949219 11.859375 13.902344 11.804688 13.859375 11.773438 L 13.785156 11.726562 L 13.855469 11.703125 C 13.890625 11.6875 13.941406 11.644531 13.960938 11.605469 C 13.984375 11.5625 14.007812 11.53125 14.007812 11.53125 C 14.007812 11.53125 14.03125 11.570312 14.058594 11.613281 Z M 18.378906 11.734375 C 18.820312 11.984375 18.90625 12.59375 18.542969 12.921875 C 18.367188 13.078125 18.167969 13.140625 17.945312 13.101562 C 17.78125 13.074219 17.6875 13.027344 17.5625 12.910156 L 17.464844 12.816406 L 17.1875 12.925781 C 16.863281 13.054688 16.460938 13.253906 16.246094 13.386719 L 16.097656 13.484375 L 16.011719 13.398438 C 15.910156 13.296875 15.914062 13.292969 16.175781 13.121094 C 16.410156 12.972656 16.839844 12.765625 17.136719 12.65625 L 17.359375 12.578125 L 17.347656 12.441406 C 17.316406 11.984375 17.652344 11.628906 18.097656 11.65625 C 18.21875 11.664062 18.285156 11.679688 18.378906 11.734375 Z M 13.773438 12.300781 C 13.980469 12.40625 14.140625 12.648438 14.171875 12.894531 C 14.191406 13.085938 14.132812 13.261719 13.988281 13.417969 C 13.796875 13.625 13.550781 13.703125 13.289062 13.632812 C 13.199219 13.609375 13.15625 13.605469 13.152344 13.621094 C 13.136719 13.660156 12.894531 13.917969 12.738281 14.058594 C 12.429688 14.339844 12.105469 14.511719 11.445312 14.757812 C 10.921875 14.957031 10.9375 14.957031 10.867188 14.832031 C 10.820312 14.757812 10.8125 14.726562 10.835938 14.714844 C 10.851562 14.703125 11.039062 14.632812 11.253906 14.554688 C 12.050781 14.257812 12.453125 14.011719 12.804688 13.609375 L 12.9375 13.460938 L 12.847656 13.289062 C 12.773438 13.140625 12.761719 13.097656 12.761719 12.953125 C 12.761719 12.628906 12.9375 12.378906 13.234375 12.265625 C 13.363281 12.21875 13.648438 12.238281 13.773438 12.300781 Z M 5.902344 12.40625 C 5.964844 12.464844 5.964844 12.488281 5.90625 12.5625 C 5.867188 12.613281 5.859375 12.660156 5.859375 12.882812 L 5.859375 13.140625 L 5.984375 13.246094 C 6.054688 13.300781 6.378906 13.578125 6.707031 13.867188 C 7.234375 14.328125 7.902344 14.886719 8.449219 15.328125 C 8.550781 15.410156 8.820312 15.628906 9.039062 15.8125 C 9.261719 16 9.660156 16.328125 9.921875 16.542969 C 10.714844 17.195312 11.007812 17.4375 11.316406 17.695312 C 11.480469 17.832031 11.757812 18.058594 11.929688 18.203125 C 12.441406 18.625 12.667969 18.886719 12.910156 19.335938 C 13 19.5 13.125 19.839844 13.160156 20.007812 C 13.175781 20.085938 13.183594 20.082031 12.898438 20.167969 C 12.886719 20.171875 12.839844 20.082031 12.796875 19.972656 C 12.613281 19.480469 12.355469 19.074219 12.042969 18.789062 C 11.875 18.628906 10.773438 17.699219 9.929688 17.007812 C 9.695312 16.8125 9.460938 16.621094 9.40625 16.574219 C 9.355469 16.527344 9.140625 16.34375 8.929688 16.171875 C 8.5625 15.871094 8.265625 15.613281 7.828125 15.21875 C 7.703125 15.109375 6.699219 14.222656 6.054688 13.65625 C 5.808594 13.441406 5.597656 13.238281 5.59375 13.210938 C 5.566406 13.117188 5.578125 12.625 5.609375 12.570312 C 5.671875 12.464844 5.796875 12.332031 5.820312 12.34375 C 5.835938 12.351562 5.871094 12.378906 5.902344 12.40625 Z M 17.710938 13.5 C 17.753906 13.519531 17.789062 13.539062 17.789062 13.546875 C 17.789062 13.554688 17.753906 13.574219 17.710938 13.597656 C 17.667969 13.617188 17.617188 13.667969 17.59375 13.71875 L 17.550781 13.808594 L 17.511719 13.730469 C 17.488281 13.6875 17.433594 13.625 17.382812 13.597656 L 17.292969 13.539062 L 17.375 13.503906 C 17.433594 13.484375 17.472656 13.445312 17.5 13.386719 L 17.542969 13.296875 L 17.589844 13.378906 C 17.617188 13.425781 17.671875 13.480469 17.710938 13.5 Z M 15.933594 13.488281 C 16.175781 13.609375 16.308594 13.8125 16.332031 14.089844 C 16.34375 14.292969 16.292969 14.449219 16.15625 14.597656 C 16.015625 14.757812 15.875 14.820312 15.65625 14.820312 C 15.539062 14.824219 15.441406 14.808594 15.367188 14.78125 L 15.253906 14.738281 L 15.097656 14.886719 C 14.714844 15.246094 14.433594 15.394531 13.335938 15.820312 C 13.035156 15.9375 12.671875 16.082031 12.53125 16.140625 L 12.277344 16.25 L 12.179688 16.152344 C 12.128906 16.097656 12.089844 16.050781 12.09375 16.046875 C 12.148438 16.007812 12.910156 15.695312 13.757812 15.367188 C 14.28125 15.164062 14.71875 14.90625 14.957031 14.65625 L 15.046875 14.566406 L 14.988281 14.425781 C 14.890625 14.183594 14.921875 13.894531 15.066406 13.691406 C 15.136719 13.597656 15.285156 13.496094 15.441406 13.4375 C 15.566406 13.390625 15.789062 13.414062 15.933594 13.488281 Z M 18.59375 13.625 C 18.617188 13.675781 18.660156 13.726562 18.707031 13.75 L 18.78125 13.785156 L 18.707031 13.828125 C 18.660156 13.851562 18.613281 13.902344 18.59375 13.949219 L 18.558594 14.027344 L 18.507812 13.933594 C 18.480469 13.882812 18.421875 13.824219 18.382812 13.800781 L 18.308594 13.765625 L 18.382812 13.730469 C 18.425781 13.714844 18.476562 13.667969 18.503906 13.625 C 18.53125 13.582031 18.554688 13.550781 18.554688 13.546875 C 18.558594 13.546875 18.578125 13.582031 18.59375 13.625 Z M 14.742188 13.941406 L 14.742188 14.082031 L 14.46875 14.179688 C 13.859375 14.398438 13.597656 14.511719 13.300781 14.691406 C 12.835938 14.976562 12.679688 15.042969 11.789062 15.359375 L 11.425781 15.488281 L 11.339844 15.390625 C 11.289062 15.335938 11.25 15.289062 11.25 15.28125 C 11.25 15.273438 11.425781 15.207031 11.644531 15.132812 C 12.421875 14.855469 12.757812 14.710938 13.128906 14.488281 C 13.527344 14.257812 13.753906 14.152344 14.296875 13.960938 C 14.496094 13.890625 14.675781 13.828125 14.695312 13.820312 C 14.714844 13.8125 14.734375 13.808594 14.738281 13.808594 C 14.738281 13.804688 14.742188 13.867188 14.742188 13.941406 Z M 5.339844 14.195312 C 5.679688 14.46875 7.242188 15.859375 7.242188 15.886719 C 7.238281 15.894531 7.203125 15.941406 7.160156 15.992188 L 7.082031 16.082031 L 6.59375 15.652344 C 6.003906 15.128906 5.898438 15.039062 5.511719 14.699219 L 5.203125 14.433594 L 5.203125 14.269531 C 5.203125 14.183594 5.210938 14.109375 5.21875 14.109375 C 5.222656 14.109375 5.28125 14.148438 5.339844 14.195312 Z M 18.074219 14.214844 C 18.476562 14.359375 18.683594 14.816406 18.511719 15.191406 C 18.433594 15.359375 18.355469 15.445312 18.207031 15.527344 C 18.097656 15.589844 18.0625 15.597656 17.882812 15.597656 C 17.710938 15.597656 17.667969 15.589844 17.5625 15.535156 C 17.496094 15.5 17.398438 15.421875 17.351562 15.363281 C 17.304688 15.304688 17.246094 15.257812 17.222656 15.257812 C 17.132812 15.257812 16.347656 15.472656 15.890625 15.621094 C 15.289062 15.816406 14.046875 16.308594 13.863281 16.421875 C 13.5 16.644531 13.105469 16.875 13.085938 16.875 C 13.046875 16.875 12.90625 16.742188 12.921875 16.71875 C 12.953125 16.664062 13.660156 16.214844 13.898438 16.097656 C 14.179688 15.957031 15.25 15.546875 15.808594 15.359375 C 16.351562 15.183594 16.679688 15.089844 16.984375 15.039062 C 17.101562 15.019531 17.164062 14.996094 17.160156 14.980469 C 17.148438 14.917969 17.207031 14.660156 17.253906 14.570312 C 17.40625 14.265625 17.769531 14.109375 18.074219 14.214844 Z M 14.519531 14.644531 C 14.449219 14.707031 13.996094 14.988281 13.878906 15.039062 C 13.746094 15.097656 13.296875 15.257812 13.261719 15.257812 C 13.238281 15.257812 13.582031 14.949219 13.695312 14.863281 C 13.882812 14.726562 14.074219 14.664062 14.390625 14.640625 C 14.449219 14.636719 14.503906 14.632812 14.519531 14.628906 C 14.535156 14.628906 14.535156 14.632812 14.519531 14.644531 Z M 7.984375 15.730469 C 8.027344 15.761719 8.0625 15.792969 8.0625 15.800781 C 8.0625 15.804688 8.023438 15.855469 7.976562 15.910156 C 7.886719 16.015625 7.890625 16.035156 8.011719 16.140625 L 8.09375 16.203125 L 8.171875 16.117188 L 8.246094 16.027344 L 8.328125 16.09375 C 8.398438 16.144531 8.40625 16.164062 8.382812 16.199219 C 8.335938 16.269531 7.789062 16.882812 7.703125 16.964844 L 7.621094 17.042969 L 7.484375 16.917969 C 7.410156 16.851562 7.292969 16.746094 7.222656 16.683594 L 7.097656 16.566406 L 7.234375 16.410156 C 7.542969 16.054688 7.882812 15.679688 7.894531 15.679688 C 7.902344 15.679688 7.941406 15.703125 7.984375 15.730469 Z M 17.511719 15.882812 C 17.527344 15.910156 17.601562 15.960938 17.667969 15.992188 L 17.792969 16.050781 L 17.710938 16.0625 C 17.59375 16.085938 17.46875 16.210938 17.449219 16.320312 L 17.429688 16.410156 L 17.371094 16.285156 C 17.300781 16.148438 17.226562 16.082031 17.105469 16.058594 L 17.027344 16.039062 L 17.121094 16.007812 C 17.265625 15.960938 17.3125 15.921875 17.371094 15.800781 L 17.421875 15.695312 L 17.445312 15.765625 C 17.460938 15.800781 17.488281 15.859375 17.511719 15.882812 Z M 15.847656 16.09375 C 16.0625 16.164062 16.238281 16.367188 16.300781 16.613281 C 16.394531 16.964844 16.167969 17.351562 15.8125 17.449219 C 15.632812 17.5 15.503906 17.488281 15.328125 17.410156 C 15.203125 17.359375 15.042969 17.207031 14.984375 17.074219 L 14.945312 16.988281 L 14.789062 17.003906 C 14.480469 17.035156 14.042969 17.089844 13.804688 17.132812 C 13.671875 17.160156 13.554688 17.175781 13.554688 17.171875 C 13.527344 17.144531 13.742188 16.921875 13.832031 16.882812 C 13.949219 16.828125 14.3125 16.765625 14.667969 16.742188 C 14.8125 16.734375 14.914062 16.71875 14.917969 16.703125 C 14.921875 16.6875 14.933594 16.625 14.949219 16.5625 C 15.039062 16.183594 15.464844 15.960938 15.847656 16.09375 Z M 8.914062 16.558594 C 8.949219 16.589844 8.976562 16.621094 8.976562 16.628906 C 8.976562 16.636719 8.945312 16.683594 8.902344 16.738281 L 8.828125 16.832031 L 8.925781 16.929688 L 9.023438 17.023438 L 9.113281 16.9375 L 9.207031 16.84375 L 9.289062 16.917969 L 9.371094 16.988281 L 9.320312 17.054688 C 9.160156 17.265625 8.527344 18 8.511719 18 C 8.503906 18 8.371094 17.894531 8.222656 17.761719 C 7.996094 17.574219 7.949219 17.519531 7.964844 17.488281 C 7.976562 17.46875 8.078125 17.347656 8.183594 17.222656 C 8.289062 17.101562 8.476562 16.886719 8.589844 16.75 C 8.707031 16.613281 8.8125 16.503906 8.824219 16.503906 C 8.839844 16.503906 8.875 16.527344 8.914062 16.558594 Z M 10.855469 16.761719 C 11.101562 16.894531 11.410156 17.113281 12.367188 17.835938 C 13.246094 18.5 13.539062 18.808594 13.824219 19.378906 C 13.914062 19.554688 14.019531 19.808594 14.007812 19.816406 C 14.007812 19.820312 13.953125 19.835938 13.894531 19.855469 L 13.785156 19.890625 L 13.65625 19.625 C 13.355469 19.015625 13.089844 18.71875 12.339844 18.152344 C 12.171875 18.027344 11.949219 17.851562 11.84375 17.769531 C 11.738281 17.683594 11.585938 17.5625 11.503906 17.496094 C 11.199219 17.257812 10.914062 17.007812 10.628906 16.726562 C 10.441406 16.539062 10.429688 16.527344 10.523438 16.578125 C 10.582031 16.613281 10.730469 16.695312 10.855469 16.761719 Z M 12.074219 17.109375 C 12.417969 17.222656 12.492188 17.269531 13.207031 17.800781 C 13.589844 18.089844 13.871094 18.355469 14.082031 18.640625 C 14.304688 18.933594 14.613281 19.566406 14.5625 19.617188 C 14.53125 19.648438 14.359375 19.6875 14.339844 19.667969 C 14.332031 19.660156 14.300781 19.585938 14.265625 19.507812 C 14.234375 19.425781 14.148438 19.261719 14.078125 19.144531 C 13.796875 18.671875 13.542969 18.386719 13.039062 18 C 12.894531 17.890625 12.589844 17.65625 12.359375 17.476562 C 11.890625 17.117188 11.753906 17 11.824219 17.023438 C 11.851562 17.035156 11.960938 17.070312 12.074219 17.109375 Z M 9.898438 17.355469 C 9.933594 17.386719 9.960938 17.417969 9.960938 17.421875 C 9.960938 17.429688 9.921875 17.476562 9.878906 17.535156 L 9.792969 17.632812 L 9.859375 17.699219 C 9.976562 17.824219 10.003906 17.828125 10.082031 17.734375 C 10.164062 17.632812 10.1875 17.628906 10.273438 17.707031 C 10.351562 17.78125 10.347656 17.789062 10.117188 18.054688 C 10.023438 18.160156 9.839844 18.378906 9.707031 18.535156 L 9.464844 18.824219 L 9.320312 18.699219 C 9.242188 18.628906 9.113281 18.515625 9.039062 18.441406 L 8.898438 18.3125 L 9.15625 18.019531 C 9.296875 17.863281 9.496094 17.632812 9.59375 17.511719 C 9.695312 17.394531 9.792969 17.296875 9.804688 17.296875 C 9.820312 17.296875 9.859375 17.324219 9.898438 17.355469 Z M 10.859375 18.160156 C 10.902344 18.207031 10.902344 18.210938 10.816406 18.320312 L 10.726562 18.429688 L 10.8125 18.507812 C 10.859375 18.550781 10.914062 18.585938 10.929688 18.585938 C 10.949219 18.585938 10.992188 18.546875 11.03125 18.496094 C 11.066406 18.449219 11.097656 18.40625 11.101562 18.402344 C 11.105469 18.394531 11.148438 18.425781 11.191406 18.46875 L 11.273438 18.546875 L 11.210938 18.628906 C 11.175781 18.675781 11.140625 18.71875 11.132812 18.726562 C 11.125 18.734375 10.976562 18.902344 10.808594 19.101562 C 10.632812 19.300781 10.484375 19.46875 10.472656 19.472656 C 10.441406 19.484375 9.9375 19.027344 9.953125 19 C 9.964844 18.984375 10.140625 18.769531 10.355469 18.523438 C 10.761719 18.039062 10.753906 18.042969 10.859375 18.160156 Z M 15.820312 18.441406 C 16.039062 18.601562 16.039062 18.933594 15.824219 19.0625 C 15.722656 19.121094 15.539062 19.117188 15.441406 19.0625 C 15.324219 18.992188 15.253906 18.859375 15.265625 18.71875 C 15.277344 18.578125 15.335938 18.496094 15.472656 18.425781 C 15.589844 18.367188 15.722656 18.371094 15.820312 18.441406 Z M 11.597656 18.804688 L 11.652344 18.863281 L 11.597656 18.941406 C 11.507812 19.070312 11.269531 19.359375 11.25 19.359375 C 11.242188 19.359375 11.207031 19.328125 11.167969 19.289062 L 11.101562 19.222656 L 11.167969 19.132812 C 11.296875 18.964844 11.492188 18.75 11.515625 18.75 C 11.535156 18.75 11.570312 18.777344 11.597656 18.804688 Z M 11.597656 18.804688 "/>
<path style=" stroke:none;fill-rule:nonzero;fill:#ffffff;fill-opacity:1;" d="M 18.050781 9.75 C 17.859375 9.867188 17.863281 10.199219 18.054688 10.324219 C 18.289062 10.480469 18.621094 10.261719 18.574219 9.984375 C 18.535156 9.746094 18.261719 9.625 18.050781 9.75 Z M 18.050781 9.75 "/>
<path style=" stroke:none;fill-rule:nonzero;fill:#ffffff;fill-opacity:1;" d="M 15.851562 10.683594 C 15.765625 10.738281 15.703125 10.863281 15.703125 10.992188 C 15.703125 11.335938 16.152344 11.441406 16.324219 11.144531 C 16.355469 11.089844 16.382812 11.019531 16.382812 10.988281 C 16.378906 10.890625 16.296875 10.738281 16.214844 10.6875 C 16.117188 10.625 15.949219 10.625 15.851562 10.683594 Z M 15.851562 10.683594 "/>
<path style=" stroke:none;fill-rule:nonzero;fill:#ffffff;fill-opacity:1;" d="M 17.914062 12.066406 C 17.65625 12.1875 17.65625 12.574219 17.910156 12.703125 C 18.027344 12.765625 18.109375 12.761719 18.21875 12.695312 C 18.34375 12.621094 18.398438 12.527344 18.398438 12.394531 C 18.398438 12.136719 18.140625 11.960938 17.914062 12.066406 Z M 17.914062 12.066406 "/>
<path style=" stroke:none;fill-rule:nonzero;fill:#ffffff;fill-opacity:1;" d="M 13.324219 12.632812 C 13.261719 12.660156 13.179688 12.746094 13.152344 12.828125 C 13.097656 12.96875 13.132812 13.105469 13.25 13.214844 C 13.335938 13.296875 13.527344 13.308594 13.636719 13.246094 C 13.855469 13.105469 13.859375 12.804688 13.644531 12.664062 C 13.5625 12.605469 13.414062 12.59375 13.324219 12.632812 Z M 13.324219 12.632812 "/>
<path style=" stroke:none;fill-rule:nonzero;fill:#ffffff;fill-opacity:1;" d="M 15.527344 13.808594 C 15.324219 13.878906 15.238281 14.128906 15.351562 14.316406 C 15.410156 14.410156 15.582031 14.492188 15.675781 14.472656 C 15.875 14.429688 16.007812 14.238281 15.960938 14.066406 C 15.929688 13.9375 15.835938 13.835938 15.730469 13.804688 C 15.628906 13.777344 15.617188 13.777344 15.527344 13.808594 Z M 15.527344 13.808594 "/>
<path style=" stroke:none;fill-rule:nonzero;fill:#ffffff;fill-opacity:1;" d="M 17.726562 14.597656 C 17.621094 14.648438 17.53125 14.792969 17.53125 14.914062 C 17.53125 15.023438 17.621094 15.160156 17.730469 15.210938 C 17.851562 15.269531 17.890625 15.269531 18.015625 15.214844 C 18.125 15.164062 18.210938 15.03125 18.210938 14.914062 C 18.210938 14.796875 18.121094 14.65625 18.015625 14.605469 C 17.890625 14.542969 17.851562 14.542969 17.726562 14.597656 Z M 17.726562 14.597656 "/>
<path style=" stroke:none;fill-rule:nonzero;fill:#ffffff;fill-opacity:1;" d="M 15.441406 16.484375 C 15.351562 16.542969 15.28125 16.667969 15.28125 16.769531 C 15.28125 16.871094 15.351562 16.996094 15.441406 17.054688 C 15.605469 17.164062 15.824219 17.101562 15.917969 16.921875 C 15.976562 16.8125 15.972656 16.71875 15.90625 16.605469 C 15.8125 16.4375 15.597656 16.378906 15.441406 16.484375 Z M 15.441406 16.484375 "/>
</g>
</svg>