<svg width="131" height="122" viewBox="0 0 131 122" fill="none" xmlns="http://www.w3.org/2000/svg">
<path d="M8 114.54L4.18541 113.336C3.7549 114.701 4.08579 116.191 5.05319 117.245C6.02059 118.299 7.4772 118.756 8.8733 118.443L8 114.54ZM42.881 4V0C41.1356 0 39.5917 1.13177 39.0664 2.7963L42.881 4ZM126.375 88.057L127.248 91.9605C129.076 91.5517 130.375 89.9297 130.375 88.057H126.375ZM126.375 4L130.375 4C130.375 1.79086 128.584 0 126.375 0V4ZM11.8146 115.744L46.6956 5.2037L39.0664 2.7963L4.18541 113.336L11.8146 115.744ZM125.502 84.1535L7.1267 110.636L8.8733 118.443L127.248 91.9605L125.502 84.1535ZM130.375 88.057L130.375 4L122.375 4L122.375 88.057H130.375ZM42.881 8H126.375V0H42.881V8Z" fill="black"/>
<path fill-rule="evenodd" clip-rule="evenodd" d="M105.241 30.9028C107.291 32.2983 110.477 34.5998 112.289 38.7787C112.595 39.4855 112.718 40.2747 112.703 41.0449C112.249 63.9581 95.824 65.5318 84.4845 71.0051C83.1916 71.6291 81.7656 71.9246 80.3316 71.9918C73.4784 72.313 60.1177 75.8337 52.185 79.5797C44.4646 83.2268 38.2607 86.6538 33.0845 90.1316C31.502 91.1952 29.91 92.106 29.5466 92.1558C29.1833 92.2065 33.4223 85.7352 38.9664 77.7762C47.643 65.3217 49.3787 62.2264 51.4275 55.5514C54.4194 45.8066 58.2864 39.1403 63.3501 34.995C67.6007 31.5152 73.4498 28.2213 77.83 27.449C81.6951 26.7674 84.8524 26.4811 89.657 26.7015C95.4968 26.9692 100.561 27.5668 105.241 30.9028ZM60.4882 62.8577C60.252 61.5186 67.2933 51.0946 69.7004 49.2198C73.6234 46.1646 85.3623 41.9428 85.6351 43.4897C85.9904 45.5048 81.8549 53.8733 79.4963 55.91C77.4638 57.6661 60.6559 63.809 60.4882 62.8577Z" fill="black"/>
</svg>
