<svg width="127" height="119" viewBox="0 0 127 119" fill="none" xmlns="http://www.w3.org/2000/svg">
<path d="M4 114.54L0.185408 113.336C-0.245096 114.701 0.0857902 116.191 1.05319 117.245C2.02059 118.299 3.4772 118.756 4.8733 118.443L4 114.54ZM38.881 4V0C37.1356 0 35.5917 1.13177 35.0664 2.7963L38.881 4ZM122.375 88.057L123.248 91.9605C125.076 91.5517 126.375 89.9297 126.375 88.057L122.375 88.057ZM122.375 4L126.375 4C126.375 1.79086 124.584 0 122.375 0V4ZM7.81459 115.744L42.6956 5.2037L35.0664 2.7963L0.185408 113.336L7.81459 115.744ZM121.502 84.1535L3.1267 110.636L4.8733 118.443L123.248 91.9605L121.502 84.1535ZM126.375 88.057L126.375 4L118.375 4L118.375 88.057L126.375 88.057ZM38.881 8H122.375V0H38.881V8Z" fill="black"/>
<path fill-rule="evenodd" clip-rule="evenodd" d="M33.8536 61.3267C33.8336 61.3567 33.8138 61.3873 33.7943 61.4182C32.1524 68.2236 33.7119 73.9575 35.0023 78.7024C35.9081 82.0326 36.6813 84.8757 36.1223 87.2602C38.399 86.9888 40.5638 87.5152 43.2481 88.1679C48.0833 89.3436 54.6041 90.9291 66.5 89C66.8135 88.7989 67.0565 88.5589 67.2357 88.2847C67.0066 88.5236 66.7616 88.7621 66.5 89C53.9378 83.8018 50.3825 83.4824 44.2353 82.9302C43.2871 82.845 42.2772 82.7543 41.1631 82.6393C39.4576 74.5845 39.3035 74.0683 33.8536 61.3267Z" fill="black"/>
<path fill-rule="evenodd" clip-rule="evenodd" d="M48.0571 35.3162C49.7806 44.3239 49.3448 52.6382 48.9599 59.9823C48.6879 65.1719 48.4414 69.8771 49 74C67.5856 74.885 77.1635 74.2035 97.8372 69.5291C84.4185 78.4181 69.1279 78.6883 57.7425 78.8894C51.1491 79.0059 45.8654 79.0993 43.0134 80.83C44.3038 77.3941 44.5061 71.0432 44.7389 63.7373C45.0342 54.4666 45.3785 43.6581 48.0571 35.3162Z" fill="black"/>
<path fill-rule="evenodd" clip-rule="evenodd" d="M87.3323 16.1265C82.9559 14.7272 76.6108 14.7813 67.5 18.5C51.4166 30.8431 52.1212 47.663 52.6557 60.4193C52.8357 64.7153 52.9963 68.5505 52.4899 71.5985C55.6751 71.2593 59.175 71.1947 62.8608 71.1267C76.5442 70.8741 92.7891 70.5743 105 56C109.161 47.4702 108.388 40.6718 106.066 35.6406C106.044 35.7597 106.022 35.8795 106 36C102.5 65.5 79.5 68 57.5 65.5C57.4164 63.7981 57.2702 62.0513 57.1212 60.2714C55.9384 46.1458 54.581 29.9333 83 17.5C84.4033 16.8861 85.861 16.4396 87.3323 16.1265Z" fill="black"/>
<path fill-rule="evenodd" clip-rule="evenodd" d="M64.0154 59.4622C69.8156 65.3024 79.1078 65.7063 88.6419 56.7113C88.6419 56.7113 98.5811 47.3341 95.4026 29.8498C77.5767 26.1846 67.6374 35.5619 67.6374 35.5619C58.1034 44.5568 58.2152 53.6219 64.0154 59.4622ZM66.2052 57.3962C69.8304 61.0464 75.9715 60.984 82.6232 54.7085C82.6232 54.7085 89.5576 48.1662 88.1032 36.7364C76.4298 34.9478 69.4954 41.4901 69.4954 41.4901C62.8438 47.7656 62.5801 53.746 66.2052 57.3962Z" fill="black"/>
<path fill-rule="evenodd" clip-rule="evenodd" d="M66.607 56.3771C68.9633 58.7497 72.9977 58.669 75.618 56.1968C78.2384 53.7246 78.4524 49.7971 76.0961 47.4245C73.7398 45.0519 69.7054 45.1326 67.085 47.6048C64.4646 50.077 64.2506 54.0045 66.607 56.3771ZM67.3369 55.6884C68.6057 56.966 70.778 56.9225 72.189 55.5913C73.6 54.2601 73.7152 52.1454 72.4464 50.8678C71.1776 49.5902 69.0052 49.6337 67.5943 50.9649C66.1833 52.2961 66.0681 54.4109 67.3369 55.6884Z" fill="black"/>
</svg>
