<svg width="131" height="122" viewBox="0 0 131 122" fill="none" xmlns="http://www.w3.org/2000/svg">
<path d="M8 114.54L4.18541 113.336C3.7549 114.701 4.08579 116.191 5.05319 117.245C6.02059 118.299 7.4772 118.756 8.8733 118.443L8 114.54ZM42.881 4V0C41.1356 0 39.5917 1.13177 39.0664 2.7963L42.881 4ZM126.375 88.057L127.248 91.9605C129.076 91.5517 130.375 89.9297 130.375 88.057L126.375 88.057ZM126.375 4L130.375 4C130.375 1.79086 128.584 0 126.375 0V4ZM11.8146 115.744L46.6956 5.2037L39.0664 2.7963L4.18541 113.336L11.8146 115.744ZM125.502 84.1535L7.1267 110.636L8.8733 118.443L127.248 91.9605L125.502 84.1535ZM130.375 88.057L130.375 4L122.375 4L122.375 88.057L130.375 88.057ZM42.881 8H126.375V0H42.881V8Z" fill="black"/>
<path fill-rule="evenodd" clip-rule="evenodd" d="M50.1642 22.3443C42.852 51.643 38.0464 72.6915 40 85.5C61.3024 85.5 80.1944 83.1034 107.255 71.7401C90.8977 88.9237 75.3933 90.4437 58.387 92.1109C48.7207 93.0586 38.5692 94.0538 27.5 98C31.2683 86.9767 33.4285 75.6545 35.4722 64.9434C38.7006 48.0228 41.6381 32.6273 50.1642 22.3443Z" fill="black"/>
<path fill-rule="evenodd" clip-rule="evenodd" d="M107.5 19.5C107.5 19.5 80.4848 13 65.5 24.5C49.0188 37.1483 48.9911 55.0853 48.9708 68.22C48.9646 72.2198 48.9591 75.7743 48.4899 78.5985C51.6751 78.2593 55.175 78.1947 58.8608 78.1267C72.5442 77.8741 88.7891 77.5743 101 63C111 42.5 107.5 19.5 107.5 19.5ZM97.6262 29.5311C97.6262 29.5311 85.9242 25.3829 76.9248 29.2107C52.0596 39.787 53.4764 54.1017 54.7108 66.5738C54.8664 68.1453 55.019 69.6876 55.1158 71.1895C74.53 73.6939 94.7569 71.8029 97.4379 45.8376C99.4562 33.9673 97.6262 29.5311 97.6262 29.5311Z" fill="black"/>
<path fill-rule="evenodd" clip-rule="evenodd" d="M60.0154 66.4622C65.8156 72.3024 75.1078 72.7063 84.6419 63.7113C84.6419 63.7113 94.5811 54.3341 91.4026 36.8498C73.5767 33.1846 63.6374 42.5619 63.6374 42.5619C54.1034 51.5568 54.2152 60.6219 60.0154 66.4622ZM62.2052 64.3962C65.8304 68.0464 71.9715 67.984 78.6232 61.7085C78.6232 61.7085 85.5576 55.1662 84.1032 43.7364C72.4298 41.9478 65.4954 48.4901 65.4954 48.4901C58.8438 54.7656 58.5801 60.746 62.2052 64.3962Z" fill="black"/>
<path d="M76.0572 73.5838C70.3791 78.9409 60.7877 78.2608 54.6343 72.0649C48.4809 65.869 48.0956 56.5035 53.7737 51.1464C59.4518 45.7894 69.0432 46.4694 75.1966 52.6653C81.35 58.8612 81.7353 68.2268 76.0572 73.5838Z" fill="black"/>
</svg>
